<?xml version="1.0" encoding="UTF-8"?>
<svg width="28px" height="34px" viewBox="0 0 28 34" version="1.1" xmlns="http://www.w3.org/2000/svg" xmlns:xlink="http://www.w3.org/1999/xlink">
    <!-- Generator: sketchtool 57.1 (101010) - https://sketch.com -->
    <title>75845D5B-3A54-4676-9943-650BBB7068A0</title>
    <desc>Created with sketchtool.</desc>
    <g id="desktop" stroke="none" stroke-width="1" fill="none" fill-rule="evenodd">
        <g id="home-page" transform="translate(-1059.000000, -34.000000)" fill="#356460" fill-rule="nonzero">
            <g id="top-menu">
                <g id="icone-call">
                    <g transform="translate(1058.000000, 33.000000)">
                        <circle id="Oval" cx="28" cy="23.6" r="1"></circle>
                        <path d="M27.2,26.2 C26.4,25.7 25.4,25.6 24.5,25.9 C24.2,26 23.9,26.2 23.7,26.4 C23.6,26.5 23.4,26.6 23.3,26.7 C22.3,27.1 21.1,26.9 20.3,26.1 L3.8,9.7 C2.7,8.6 2.7,6.8 3.8,5.8 L6.3,3.3 C6.4,3.1 6.6,3 6.7,3 C7,3 7.3,3 7.5,3.2 L11.9,7.7 C12.2,8 12.2,8.6 11.9,8.9 L11.5,9.3 C11,9.9 10.7,10.6 10.7,11.3 C10.7,12.1 11,12.9 11.6,13.5 L16.5,18.4 C17,18.9 17.8,19.2 18.5,19.2 C19.3,19.2 20,18.9 20.5,18.3 C20.7,18.1 20.9,18 21.1,18 L21.1,18 C21.1,18 21.1,18 21.1,18 C21.2,18 21.3,18 21.4,18.1 C21.5,18.1 21.6,18.2 21.7,18.3 L25.8,22.4 C26.2,22.8 26.8,22.8 27.2,22.4 C27.6,22 27.6,21.4 27.2,21 L23.1,16.9 C22.8,16.6 22.4,16.4 22,16.2 C21.7,16.1 21.4,16 21.1,16 C21.1,16 21.1,16 21.1,16 C20.3,16 19.6,16.3 19,16.9 C18.8,17.1 18.6,17.2 18.4,17.2 C18.1,17.2 18,17.1 17.8,16.9 L12.9,12 C12.7,11.8 12.6,11.6 12.6,11.4 C12.6,11.2 12.7,11 12.9,10.8 L13.3,10.4 C14.4,9.3 14.4,7.5 13.3,6.3 L8.9,1.8 C8.3,1.2 7.3,0.9 6.4,1 C5.8,1.1 5.3,1.4 4.9,1.8 L2.4,4.3 C0.5,6.2 0.5,9.2 2.4,11.1 L18.8,27.5 C20.2,28.9 22.2,29.3 24,28.5 C24.4,28.3 24.6,28.1 24.9,27.9 C25,27.8 25.2,27.7 25.2,27.7 C25.5,27.6 25.7,27.6 26,27.8 C26.6,28.2 26.9,29 26.9,29.6 L26.9,33.5 C26.9,34.1 27.3,34.5 27.9,34.5 C28.5,34.5 28.9,34.1 28.9,33.5 L28.9,29.6 C29,28.4 28.2,26.9 27.2,26.2 Z" id="Path"></path>
                    </g>
                </g>
            </g>
        </g>
    </g>
</svg>