<?xml version="1.0" encoding="UTF-8"?>
<svg width="25px" height="22px" viewBox="0 0 25 22" version="1.1" xmlns="http://www.w3.org/2000/svg" xmlns:xlink="http://www.w3.org/1999/xlink">
    <!-- Generator: sketchtool 57.1 (101010) - https://sketch.com -->
    <title>389E007F-502F-46DA-887F-B2D4B197D33E</title>
    <desc>Created with sketchtool.</desc>
    <defs>
        <filter x="-3.2%" y="-4.8%" width="115.6%" height="131.2%" filterUnits="objectBoundingBox" id="filter-1">
            <feOffset dx="0" dy="2" in="SourceAlpha" result="shadowOffsetOuter1"></feOffset>
            <feGaussianBlur stdDeviation="2" in="shadowOffsetOuter1" result="shadowBlurOuter1"></feGaussianBlur>
            <feColorMatrix values="0 0 0 0 0   0 0 0 0 0   0 0 0 0 0  0 0 0 0.5 0" type="matrix" in="shadowBlurOuter1" result="shadowMatrixOuter1"></feColorMatrix>
            <feMerge>
                <feMergeNode in="shadowMatrixOuter1"></feMergeNode>
                <feMergeNode in="SourceGraphic"></feMergeNode>
            </feMerge>
        </filter>
    </defs>
    <g id="desktop" stroke="none" stroke-width="1" fill="none" fill-rule="evenodd">
        <g id="home-page" transform="translate(-730.000000, -741.000000)" fill="#FFFFFF">
            <g id="slider-hero">
                <g id="infos-projet" filter="url(#filter-1)" transform="translate(250.000000, 457.000000)">
                    <g id="fleche-droite" transform="translate(493.000000, 293.000000) scale(-1, 1) translate(-493.000000, -293.000000) translate(453.000000, 253.000000)">
                        <path d="M48.2439744,39.2331728 L34.590153,39.2331728 L39.6383876,34.2921992 C39.9362617,34.0001641 39.9407978,33.5231565 39.6484679,33.2255923 C39.35513,32.9285307 38.8768179,32.9245096 38.5789438,33.2155395 L32.2263131,39.4332245 C32.0821642,39.5744669 32.0005135,39.7669789 32,39.9680358 C31.9990014,40.1690928 32.0786361,40.36261 32.2212729,40.5048578 L38.584488,46.8507166 C38.732165,46.9979908 38.9257075,47.0713765 39.1192501,47.0713765 C39.3122886,47.0713765 39.5058311,46.9979908 39.6535081,46.8507166 C39.9488621,46.5561682 39.9488621,46.078658 39.6535081,45.7846123 L34.5962012,40.7410997 L48.2439744,40.7410997 C48.6613006,40.7410997 49,40.4033241 49,39.9871363 C49,39.5704458 48.6613006,39.2331728 48.2439744,39.2331728" id="fleche"></path>
                    </g>
                </g>
            </g>
        </g>
    </g>
</svg>