<?xml version="1.0" encoding="UTF-8"?>
<svg width="42px" height="42px" viewBox="0 0 42 42" version="1.1" xmlns="http://www.w3.org/2000/svg" xmlns:xlink="http://www.w3.org/1999/xlink">
    <!-- Generator: sketchtool 57.1 (101010) - https://sketch.com -->
    <title>605F4C21-3172-4E05-B0F6-52C2ECF1C7E1</title>
    <desc>Created with sketchtool.</desc>
    <g id="desktop" stroke="none" stroke-width="1" fill="none" fill-rule="evenodd">
        <g id="home-page" transform="translate(-915.000000, -2992.000000)" fill="#243842" fill-rule="nonzero">
            <g id="carrousel-projets" transform="translate(0.000000, 1860.000000)">
                <g id="points-forts" transform="translate(250.000000, 1083.000000)">
                    <g id="avantages" transform="translate(155.000000, 43.000000)">
                        <g id="avantage-4" transform="translate(510.000000, 6.000000)">
                            <g id="icone-mer" transform="translate(0.000000, -0.000000)">
                                <path d="M39.4606784,33.7313216 L32.8837076,33.7313216 L40.9110292,25.7039181 C41.5605146,25.0544327 41.9182105,24.1910994 41.9182105,23.2725848 C41.9182105,22.3540702 41.5605146,21.490655 40.9111111,20.8413333 C40.2616257,20.1917661 39.3982105,19.8339883 38.4796959,19.8339883 C37.5611813,19.8339883 36.6977661,20.1917661 36.0483626,20.8412515 L29.4290643,27.4605497 L21.8779883,14.3107018 L26.2591696,11.7812047 C26.278655,11.7718713 26.2982222,11.7624561 26.3172164,11.7514854 C26.3362105,11.7405146 26.3541404,11.7283158 26.3719064,11.716117 L32.5892164,8.12654971 C32.7772749,8.0179883 32.9144912,7.83909942 32.9707368,7.62934503 C33.0269006,7.41950877 32.9974269,7.19608187 32.8888655,7.00802339 C29.1644561,0.560982456 21.0510877,-1.80518129 14.481076,1.4968538 L14.2284211,1.05925146 C14.0023743,0.667660819 13.5016491,0.533473684 13.1100585,0.759602339 C12.7184678,0.985730994 12.5842807,1.48637427 12.8104094,1.87796491 L13.0630643,2.31556725 C6.91845614,6.35436257 4.91080702,14.563848 8.63202339,21.0126901 C8.7405848,21.2008304 8.91939181,21.3380468 9.1291462,21.3942924 C9.19890058,21.4130409 9.27012865,21.4222105 9.34111111,21.4222105 C9.48364912,21.4222105 9.62495906,21.3850409 9.75046784,21.3125029 L15.9812865,17.715076 C15.9961053,17.7077076 16.0112515,17.7015673 16.0257427,17.6932164 C16.0447368,17.6822456 16.0625848,17.6701287 16.0804327,17.657848 L20.4599766,15.1293333 L28.1331228,28.4917193 L16.8386433,28.4917193 C16.3864678,28.4917193 16.0199298,28.8583392 16.0199298,29.3104327 C16.0199298,29.7625263 16.3864678,30.1291462 16.8386433,30.1291462 L28.7368421,30.1291462 C28.9539649,30.1291462 29.1622456,30.0428538 29.3157544,29.889345 L37.2061871,21.9989942 C37.5463626,21.6588187 37.9986199,21.4714152 38.479614,21.4714152 C38.9606901,21.4714152 39.4129474,21.6588187 39.7531228,21.999076 C40.0932982,22.3392515 40.2806199,22.7915906 40.2806199,23.2725848 C40.2806199,23.7536608 40.0932982,24.2059181 39.7530409,24.5460936 L31.0954737,33.2038246 C30.7553801,33.544 30.3030409,33.7313216 29.8219649,33.7313216 L3.43957895,33.7313216 C2.44639766,33.7313216 1.63849123,32.9233333 1.63849123,31.9302339 C1.63849123,30.9371345 2.44647953,30.1291462 3.43957895,30.1291462 L10.0709123,30.1291462 C10.5230877,30.1291462 10.8896257,29.7625263 10.8896257,29.3104327 C10.8896257,28.8583392 10.5230877,28.4917193 10.0709123,28.4917193 L3.43957895,28.4917193 C1.54360234,28.4917193 0.00106432749,30.0341754 0.00106432749,31.9302339 C0.00106432749,32.8336023 0.351719298,33.6560819 0.923426901,34.2703626 C0.361052632,34.7207368 0,35.4124678 0,36.1873801 C0,37.541614 1.10182456,38.6434386 2.45605848,38.6434386 L6.11636257,38.6434386 L4.59633918,40.5819883 C4.40304094,40.8285029 4.3674269,41.1636842 4.50447953,41.4454035 C4.64153216,41.7271228 4.9274269,41.905848 5.24066667,41.905848 L8.59730994,41.905848 C8.79134503,41.905848 8.97907602,41.8369123 9.12701754,41.7114035 L12.7427018,38.6434386 L29.1764094,38.6434386 L32.7920936,41.7114035 C32.9400351,41.8369123 33.1277661,41.905848 33.3218012,41.905848 L36.6784444,41.905848 C36.9916842,41.905848 37.2774971,41.7270409 37.4146316,41.4454035 C37.5517661,41.1637661 37.5160702,40.8285029 37.3227719,40.5819883 L35.8028304,38.6434386 L39.4608421,38.6434386 C40.815076,38.6434386 41.9169006,37.541614 41.9169006,36.1873801 C41.9169006,34.8331462 40.8149123,33.7313216 39.4606784,33.7313216 Z M20.7409591,1.64872515 C24.7604327,1.64872515 28.6812515,3.60700585 31.0381637,7.13148538 L26.1959649,9.92706433 C24.454807,7.09022222 22.3521871,4.71095906 20.2180468,3.17538012 C19.4834971,2.64681871 18.7667135,2.23525146 18.0777661,1.94092398 C18.959848,1.7454152 19.8527368,1.64872515 20.7409591,1.64872515 Z M9.66409357,19.4717076 C7.37611696,14.8277193 8.27670175,9.33235088 11.6492281,5.65190643 C11.5596608,6.39587135 11.557614,7.22260819 11.6480819,8.12327485 C11.9108889,10.7393099 12.9200351,13.7498012 14.5062924,16.6760468 L9.66409357,19.4717076 Z M15.9247953,15.8570877 C14.4523392,13.1317544 13.5178596,10.3533684 13.2773216,7.95953216 C13.0940936,6.13617544 13.3410994,4.70490058 13.960538,3.87005848 L17.0845029,9.28093567 C17.2361287,9.54357895 17.5112982,9.69045614 17.7942456,9.69045614 C17.9330994,9.69045614 18.0739181,9.65500585 18.2028655,9.5805848 C18.5944561,9.35445614 18.7286433,8.85381287 18.5025146,8.46222222 L15.3785497,3.05126316 C16.4112749,2.93214035 17.7741871,3.4340117 19.2617076,4.50431579 C21.2145848,5.90955556 23.1535439,8.10804678 24.7775439,10.7457778 L15.9247953,15.8570877 Z M8.29676023,40.2683392 L6.92295906,40.2683392 L8.19712281,38.6433567 L10.2118947,38.6433567 L8.29676023,40.2683392 Z M33.6220234,40.2683392 L31.7069708,38.6433567 L33.7217427,38.6433567 L34.9958246,40.2683392 L33.6220234,40.2683392 Z M39.4606784,37.0060936 L2.45605848,37.0060936 C2.00461988,37.0060936 1.63734503,36.6388187 1.63734503,36.1873801 C1.63734503,35.7359415 2.00461988,35.3686667 2.45605848,35.3686667 L39.4606784,35.3686667 C39.912117,35.3686667 40.2793918,35.7359415 40.2793918,36.1873801 C40.2793918,36.6388187 39.912117,37.0060936 39.4606784,37.0060936 Z" id="Shape"></path>
                                <path d="M14.2796725,28.731193 C14.1265731,28.5789123 13.915345,28.4913099 13.7000234,28.4913099 C13.4847018,28.4913099 13.2734737,28.5788304 13.121193,28.731193 C12.9689123,28.8842924 12.8813099,29.0947018 12.8813099,29.3100234 C12.8813099,29.525345 12.9689123,29.7365731 13.121193,29.8896725 C13.2734737,30.0418713 13.4847018,30.1295556 13.7000234,30.1295556 C13.9154269,30.1294737 14.126655,30.0418713 14.2796725,29.8896725 C14.4319532,29.7365731 14.5187368,29.5261637 14.5187368,29.3100234 C14.5187368,29.0947018 14.4319532,28.8834737 14.2796725,28.731193 Z" id="Path"></path>
                                <path d="M19.8673099,10.9017427 C19.7150292,10.7495439 19.5037193,10.6626784 19.2884795,10.6626784 C19.0731579,10.6626784 18.8619298,10.7495439 18.7096491,10.9017427 C18.5573684,11.0548421 18.4697661,11.2652515 18.4697661,11.4813918 C18.4697661,11.6967135 18.5573684,11.9079415 18.7096491,12.0602222 C18.8619298,12.2125029 19.0731579,12.3001053 19.2884795,12.3001053 C19.5038012,12.3001053 19.7150292,12.2125848 19.8673099,12.0602222 C20.0195906,11.9079415 20.107193,11.6967135 20.107193,11.4813918 C20.107193,11.2652515 20.0195906,11.0548421 19.8673099,10.9017427 Z" id="Path"></path>
                            </g>
                        </g>
                    </g>
                </g>
            </g>
        </g>
    </g>
</svg>