<?xml version="1.0" encoding="UTF-8"?>
<svg width="42px" height="31px" viewBox="0 0 42 31" version="1.1" xmlns="http://www.w3.org/2000/svg" xmlns:xlink="http://www.w3.org/1999/xlink">
    <!-- Generator: sketchtool 57.1 (101010) - https://sketch.com -->
    <title>AE44EFE9-9FF8-4D14-AF01-77E24F55EB8B</title>
    <desc>Created with sketchtool.</desc>
    <g id="desktop" stroke="none" stroke-width="1" fill="none" fill-rule="evenodd" opacity="0.2">
        <g id="page-projet" transform="translate(-699.000000, -1922.000000)" fill="#243842" fill-rule="nonzero">
            <g id="multimedia" transform="translate(0.000000, 1634.000000)">
                <g id="icones" transform="translate(445.000000, 260.395105)">
                    <g id="video" transform="translate(195.000000, 0.000000)">
                        <g id="icone-video" transform="translate(59.000000, 28.000000)">
                            <path d="M40.7201053,6.26100887 C39.9191579,5.74476718 38.9244211,5.67568736 38.0615789,6.0775388 L32.4210526,8.70182927 L32.4210526,8.60452328 C32.4210526,7.2504102 31.3283158,6.14810421 29.9843158,6.14810421 L26.5263158,6.14810421 L26.5263158,2.43413525 C26.5263158,1.20555432 25.5345263,0.20575388 24.3157895,0.20575388 L0.736842105,0.20575388 C0.330105263,0.20575388 0,0.537782705 0,0.948547672 C0,1.35931264 0.330105263,1.69134146 0.736842105,1.69134146 L24.3157895,1.69134146 C24.7217895,1.69134146 25.0526316,2.02411308 25.0526316,2.43413525 L25.0526316,6.14810421 L2.43673684,6.14810421 C1.09273684,6.14884701 0,7.2504102 0,8.60452328 L0,27.4618293 C0,28.8159424 1.09273684,29.9182483 2.43673684,29.9182483 L29.9843158,29.9182483 C31.3283158,29.9182483 32.4210526,28.8166851 32.4210526,27.4618293 L32.4210526,27.3645233 L38.0615789,29.9888137 C38.4344211,30.1618847 38.8315789,30.2480488 39.2272632,30.2480488 C39.7482105,30.2480488 40.2654737,30.09949 40.7208421,29.8053437 C41.5217895,29.289102 42,28.4081486 42,27.4492018 L42,8.61789357 C42,7.65894678 41.5217895,6.77799335 40.7201053,6.26100887 Z M30.9473684,27.4618293 C30.9473684,27.9973836 30.5155789,28.4326608 29.9843158,28.4326608 L2.43673684,28.4326608 C1.90547368,28.4326608 1.47368421,27.9973836 1.47368421,27.4618293 L1.47368421,8.60452328 C1.47368421,8.06896896 1.90547368,7.6336918 2.43673684,7.6336918 L29.9843158,7.6336918 C30.5155789,7.6336918 30.9473684,8.06896896 30.9473684,8.60452328 L30.9473684,9.38742794 L30.9473684,26.6789246 L30.9473684,27.4618293 L30.9473684,27.4618293 Z M40.5263158,27.4492018 C40.5263158,27.9052772 40.3074737,28.3086142 39.9265263,28.5544789 C39.5455789,28.8003437 39.0916842,28.8337694 38.6797895,28.6399002 L32.4210526,25.7288914 L32.4210526,10.3374612 L38.6790526,7.42645233 C39.0902105,7.23332594 39.5448421,7.26600887 39.9257895,7.51187361 C40.3067368,7.75773836 40.5263158,8.16181818 40.5263158,8.61789357 L40.5263158,27.4492018 Z" id="Shape"></path>
                        </g>
                    </g>
                </g>
            </g>
        </g>
    </g>
</svg>