<?xml version="1.0" encoding="UTF-8"?>
<svg width="42px" height="42px" viewBox="0 0 42 42" version="1.1" xmlns="http://www.w3.org/2000/svg" xmlns:xlink="http://www.w3.org/1999/xlink">
    <!-- Generator: sketchtool 57.1 (101010) - https://sketch.com -->
    <title>5013F0A0-BE6E-4C84-BF4C-29F2D3FBABBB</title>
    <desc>Created with sketchtool.</desc>
    <g id="desktop" stroke="none" stroke-width="1" fill="none" fill-rule="evenodd">
        <g id="page-projet" transform="translate(-700.000000, -5009.000000)" fill="#47706D" fill-rule="nonzero">
            <g id="call-to-action" transform="translate(0.000000, 4757.000000)">
                <g id="cta" transform="translate(299.000000, 211.818182)">
                    <g id="brochure" transform="translate(293.000000, 0.000000)">
                        <g id="icone-telechargement" transform="translate(108.000000, 41.000000)">
                            <path d="M31.8040852,21.2878724 C32.2511507,20.8424733 32.2511507,20.1412705 31.8040852,19.6958714 C31.3721231,19.2504722 30.6531933,19.2504722 30.2222382,19.6958714 L22.1196778,27.7531821 L22.1196778,1.13055144 C22.1196778,0.509600828 21.6242808,0 21.0010069,0 C20.377733,0 19.8662255,0.509600828 19.8662255,1.13055144 L19.8662255,27.7531821 L11.7797756,19.6958714 C11.33271,19.2504722 10.6127733,19.2504722 10.1818182,19.6958714 C9.73475259,20.1412705 9.73475259,20.8424733 10.1818182,21.2878724 L20.2025316,31.2712335 C20.6344937,31.7015854 21.3534235,31.7015854 21.8004891,31.2712335 L31.8040852,21.2878724 Z M39.7465478,28.5968323 C39.7465478,27.9758817 40.2419448,27.4823313 40.8652186,27.4823313 C41.4884925,27.4823313 42,27.9758817 42,28.5968323 L42,39.5512438 C42,40.1721944 41.4884925,40.6817953 40.8652186,40.6817953 L1.11867089,40.6817953 C0.495397008,40.6817953 0,40.1721944 0,39.5512438 L0,28.5968323 C0,27.9758817 0.495397008,27.4823313 1.11867089,27.4823313 C1.74194476,27.4823313 2.25345224,27.9758817 2.25345224,28.5968323 L2.25345224,38.4367428 L39.7465478,38.4367428 L39.7465478,28.5968323 Z" id="Shape"></path>
                        </g>
                    </g>
                </g>
            </g>
        </g>
    </g>
</svg>