<?xml version="1.0" encoding="UTF-8"?>
<svg width="39px" height="32px" viewBox="0 0 39 32" version="1.1" xmlns="http://www.w3.org/2000/svg" xmlns:xlink="http://www.w3.org/1999/xlink">
    <!-- Generator: sketchtool 57.1 (101010) - https://sketch.com -->
    <title>28B7766D-7278-4FF8-8F8F-81DAAABDB76C</title>
    <desc>Created with sketchtool.</desc>
    <g id="desktop" stroke="none" stroke-width="1" fill="none" fill-rule="evenodd">
        <g id="page-projet" transform="translate(-506.000000, -1926.000000)" fill="#243842" fill-rule="nonzero">
            <g id="multimedia" transform="translate(0.000000, 1634.000000)">
                <g id="icones" transform="translate(445.000000, 260.395105)">
                    <g id="photos">
                        <g id="icone-images" transform="translate(61.000000, 32.000000)">
                            <path d="M38.3275862,0 L0.672413793,0 C0.301241379,0 0,0.306637299 0,0.685989483 L0,30.8695267 C0,31.2488789 0.301241379,31.5555162 0.672413793,31.5555162 L38.3275862,31.5555162 C38.6987586,31.5555162 39,31.2488789 39,30.8695267 L39,0.685989483 C39,0.306637299 38.6987586,0 38.3275862,0 Z M37.6551724,30.1835373 L1.34482759,30.1835373 L1.34482759,1.37197897 L37.6551724,1.37197897 L37.6551724,30.1835373 Z" id="Shape"></path>
                            <path d="M10.7586207,15.1864352 C12.8236034,15.1864352 14.5032931,13.4728335 14.5032931,11.3668457 C14.5032931,9.25948605 12.8236034,7.54588432 10.7586207,7.54588432 C8.69363793,7.54588432 7.01394828,9.25948605 7.01394828,11.3661597 C7.01394828,13.4728335 8.69363793,15.1864352 10.7586207,15.1864352 Z M10.7586207,8.91786328 C12.081931,8.91786328 13.1584655,10.0168184 13.1584655,11.3661597 C13.1584655,12.7155011 12.081931,13.8144562 10.7586207,13.8144562 C9.43531034,13.8144562 8.35877586,12.7161871 8.35877586,11.3668457 C8.35877586,10.0175044 9.43531034,8.91786328 10.7586207,8.91786328 Z" id="Shape"></path>
                            <path d="M4.70689655,27.4395793 C4.86424138,27.4395793 5.02293103,27.3833282 5.15068966,27.2687679 L16.1197759,17.416587 L23.0469828,24.4829647 C23.3098966,24.7511865 23.7348621,24.7511865 23.9977759,24.4829647 C24.2606897,24.2147428 24.2606897,23.7811974 23.9977759,23.5129755 L20.7654828,20.2154241 L26.9389138,13.3184858 L34.5109655,20.3999553 C34.7846379,20.6558293 35.2102759,20.6366216 35.4610862,20.3574239 C35.7118966,20.0782262 35.6937414,19.6439948 35.4193966,19.3881208 L27.350431,11.8422364 C27.2186379,11.7194443 27.0431379,11.6583913 26.8662931,11.6625072 C26.6881034,11.6707391 26.52,11.7509998 26.3996379,11.8854538 L19.8140172,19.244063 L16.6247586,15.9904149 C16.3732759,15.7345408 15.9711724,15.721507 15.7048966,15.9602313 L4.26243103,26.2384117 C3.98337931,26.4887979 3.95648276,26.9223433 4.20191379,27.2070289 C4.33505172,27.3613765 4.52063793,27.4395793 4.70689655,27.4395793 Z" id="Path"></path>
                        </g>
                    </g>
                </g>
            </g>
        </g>
    </g>
</svg>