<?xml version="1.0" encoding="UTF-8"?>
<svg width="14px" height="12px" viewBox="0 0 14 12" version="1.1" xmlns="http://www.w3.org/2000/svg" xmlns:xlink="http://www.w3.org/1999/xlink">
    <!-- Generator: sketchtool 57.1 (101010) - https://sketch.com -->
    <title>0874CD59-9570-4042-BE77-F0349E09622E</title>
    <desc>Created with sketchtool.</desc>
    <g id="desktop" stroke="none" stroke-width="1" fill="none" fill-rule="evenodd">
        <g id="home-page" transform="translate(-411.000000, -1048.000000)" fill="#E6D399">
            <g id="acces-direct-projets" transform="translate(75.000000, 860.000000)">
                <g id="projet-1">
                    <path d="M349.377391,193.315619 L338.133067,193.315619 L342.290437,189.101981 C342.535745,188.852935 342.539481,188.446145 342.298738,188.192384 C342.057166,187.939051 341.663262,187.935622 341.417954,188.183811 L336.186375,193.486222 C336.067665,193.606673 336.000423,193.770846 336,193.942306 C335.999178,194.113767 336.064759,194.278797 336.182225,194.400105 L341.42252,199.811822 C341.544136,199.937417 341.703524,200 341.862912,200 C342.021885,200 342.181273,199.937417 342.302889,199.811822 C342.546122,199.560633 342.546122,199.153415 342.302889,198.902654 L338.138048,194.601571 L349.377391,194.601571 C349.721071,194.601571 350,194.313518 350,193.958595 C350,193.603244 349.721071,193.315619 349.377391,193.315619" id="fleche-droite" transform="translate(343.000000, 194.000000) scale(-1, 1) translate(-343.000000, -194.000000) "></path>
                </g>
            </g>
        </g>
    </g>
</svg>