<?xml version="1.0" encoding="UTF-8"?>
<svg width="24px" height="24px" viewBox="0 0 24 24" version="1.1" xmlns="http://www.w3.org/2000/svg" xmlns:xlink="http://www.w3.org/1999/xlink">
    <!-- Generator: sketchtool 57.1 (101010) - https://sketch.com -->
    <title>B6EC9816-3008-4E31-850B-DA6F5D56DEDD</title>
    <desc>Created with sketchtool.</desc>
    <g id="desktop" stroke="none" stroke-width="1" fill="none" fill-rule="evenodd">
        <g id="full-menu" transform="translate(-1304.000000, -244.000000)" fill="#C9982E" fill-rule="nonzero">
            <g id="menu" transform="translate(-213.000000, -106.000000)">
                <g id="sidebar-right" transform="translate(1403.000000, 106.000000)">
                    <g id="social-icons" transform="translate(114.000000, 190.000000)">
                        <g id="icone-instagram" transform="translate(0.000000, 54.000000)">
                            <path d="M12.096,5.97647059 C8.736,5.97647059 5.952,8.65882353 5.952,12 C5.952,15.3411765 8.688,18.0235294 12.096,18.0235294 C15.504,18.0235294 18.24,15.2941176 18.24,12 C18.24,8.70588235 15.456,5.97647059 12.096,5.97647059 Z M12.096,15.8588235 C9.936,15.8588235 8.16,14.1176471 8.16,12 C8.16,9.88235294 9.936,8.14117647 12.096,8.14117647 C14.256,8.14117647 16.032,9.88235294 16.032,12 C16.032,14.1176471 14.256,15.8588235 12.096,15.8588235 Z" id="Shape"></path>
                            <ellipse id="Oval" cx="18.48" cy="5.83529412" rx="1.392" ry="1.36470588"></ellipse>
                            <path d="M22.08,2.30588235 C20.832,1.03529412 19.056,0.376470588 17.04,0.376470588 L7.152,0.376470588 C2.976,0.376470588 0.192,3.10588235 0.192,7.2 L0.192,16.8470588 C0.192,18.8705882 0.864,20.6117647 2.208,21.8823529 C3.504,23.1058824 5.232,23.7176471 7.2,23.7176471 L16.992,23.7176471 C19.056,23.7176471 20.784,23.0588235 22.032,21.8823529 C23.328,20.6588235 24,18.9176471 24,16.8941176 L24,7.2 C24,5.22352941 23.328,3.52941176 22.08,2.30588235 Z M21.888,16.8941176 C21.888,18.3529412 21.36,19.5294118 20.496,20.3294118 C19.632,21.1294118 18.432,21.5529412 16.992,21.5529412 L7.2,21.5529412 C5.76,21.5529412 4.56,21.1294118 3.696,20.3294118 C2.832,19.4823529 2.4,18.3058824 2.4,16.8470588 L2.4,7.2 C2.4,5.78823529 2.832,4.61176471 3.696,3.76470588 C4.512,2.96470588 5.76,2.54117647 7.2,2.54117647 L17.088,2.54117647 C18.528,2.54117647 19.728,2.96470588 20.592,3.81176471 C21.408,4.65882353 21.888,5.83529412 21.888,7.2 L21.888,16.8941176 L21.888,16.8941176 Z" id="Shape"></path>
                        </g>
                    </g>
                </g>
            </g>
        </g>
    </g>
</svg>