<?xml version="1.0" encoding="UTF-8"?>
<svg width="42px" height="35px" viewBox="0 0 42 35" version="1.1" xmlns="http://www.w3.org/2000/svg" xmlns:xlink="http://www.w3.org/1999/xlink">
    <!-- Generator: sketchtool 57.1 (101010) - https://sketch.com -->
    <title>FFAE782F-9D30-4B61-BD45-A3D6E2AAA7FA</title>
    <desc>Created with sketchtool.</desc>
    <g id="desktop" stroke="none" stroke-width="1" fill="none" fill-rule="evenodd">
        <g id="home-page" transform="translate(-405.000000, -2995.000000)" fill="#243842" fill-rule="nonzero">
            <g id="carrousel-projets" transform="translate(0.000000, 1860.000000)">
                <g id="points-forts" transform="translate(250.000000, 1083.000000)">
                    <g id="avantages" transform="translate(155.000000, 43.000000)">
                        <g id="avantage-1" transform="translate(0.000000, 9.000000)">
                            <g id="icone-securite">
                                <path d="M20.9138031,10.5077666 C21.3239594,10.6990445 21.8119812,10.5215669 22.0039215,10.1101269 C22.1949005,9.69932883 22.0177002,9.21054323 21.6069031,9.01862344 C21.1967469,8.82702465 20.7090454,9.00450225 20.5171051,9.41594229 C20.3258057,9.82674041 20.503006,10.315526 20.9138031,10.5077666 Z" id="Path"></path>
                                <path d="M41.9506531,13.3467668 C41.8763123,13.1420096 41.7234649,12.9751229 41.5263977,12.8830143 L14.7665863,0.386727899 C12.7132416,-0.572870798 10.2750549,0.314517312 9.31759648,2.37235915 C9.17019649,2.68880204 6.77655029,7.82987637 6.54455566,8.3279691 C5.58677675,10.3851691 6.47277832,12.8271714 8.52836611,13.7864491 L15.6650849,17.1196908 L15.6650849,21.8303899 L4.92091368,21.8303899 L4.92091368,21.0091146 C4.92091368,19.6502714 3.8170166,18.5446468 2.46061709,18.5446468 L0.8203125,18.5446468 C0.367217977,18.5446468 0,18.9124395 0,19.3662431 L0,34.152087 C0,34.6055696 0.367217977,34.9733623 0.8203125,34.9733623 L2.46061709,34.9733623 C3.8170166,34.9733623 4.92091368,33.8680586 4.92091368,32.5092155 L4.92091368,31.0621148 C4.92091368,31.0621148 18.5791168,28.6412944 18.5823212,28.6406525 C19.7432557,28.4204904 20.5859985,27.4018394 20.5859985,26.2185483 L20.5859985,24.6758088 C21.5860748,24.0965192 22.2263031,23.0165694 22.2263031,21.8303899 L22.2263031,20.184309 L28.4648437,23.0984082 C29.6674347,23.6590834 31.1013794,23.1603488 31.6993103,21.9744902 L34.4934998,23.279737 C34.9023742,23.470694 35.3913574,23.2951419 35.5832977,22.8824182 L38.042633,17.6010949 L40.2933654,16.8606954 C40.5083771,16.7900895 40.6849365,16.6331518 40.7807465,16.4277527 L41.9230957,13.9748386 C42.0150604,13.7774629 42.0249939,13.551524 41.9506531,13.3467668 L41.9506531,13.3467668 Z M3.28060917,32.5092155 C3.28060917,32.9620562 2.9127502,33.3304908 2.46061709,33.3304908 L1.64030459,33.3304908 L1.64030459,20.1875184 L2.46061709,20.1875184 C2.9127502,20.1875184 3.28060917,20.5559529 3.28060917,21.0091146 L3.28060917,32.5092155 Z M18.9456939,26.2185483 C18.9456939,26.6116949 18.666275,26.9506034 18.2811127,27.0257024 L4.92091368,29.3938894 L4.92091368,23.4732614 L16.1047211,23.4732614 C16.6831055,24.4752238 17.7613678,25.116133 18.9456939,25.116133 L18.9456939,26.2185483 Z M20.5859985,21.8303899 C20.5859985,22.727727 19.8602143,23.4732614 18.9456939,23.4732614 C18.0497589,23.4732614 17.3053894,22.7463413 17.3053894,21.8303899 L17.3053894,17.8857651 L20.5859985,19.4182346 L20.5859985,21.8303899 Z M29.1579437,21.609265 L9.22114561,12.297306 C7.9884338,11.7221886 7.45587158,10.2574365 8.03137207,9.02215376 L8.37776182,8.27822399 L31.2881928,18.9782314 L30.2480621,21.2113043 C30.0567627,21.6217815 29.5674591,21.8002219 29.1579437,21.609265 Z M34.4435119,21.443662 L32.3952941,20.4869517 L32.9608612,19.2722087 L35.9053345,18.3039447 L34.4435119,21.443662 Z M39.4442139,15.4110274 C39.4115295,15.4216183 32.4702759,17.7044362 32.4539337,17.7098922 L9.07086182,6.7894018 L10.8044129,3.06686473 C11.3783111,1.83318662 12.8404541,1.29946998 14.0734863,1.87555018 L40.0898895,14.0249046 L39.4442139,15.4110274 Z" id="Shape"></path>
                                <path d="M13.083664,5.94405624 C12.892044,6.35517528 13.0698853,6.84396088 13.4803619,7.03588067 L17.9401703,9.11907648 C18.3493652,9.31003336 18.8380279,9.13416041 19.0302887,8.72175763 C19.2215881,8.31063859 19.0440674,7.82185299 18.6335907,7.62993329 L14.1734619,5.54705839 C13.7629852,5.35481769 13.2749634,5.53293721 13.083664,5.94405624 Z" id="Path"></path>
                            </g>
                        </g>
                    </g>
                </g>
            </g>
        </g>
    </g>
</svg>