<?xml version="1.0" encoding="UTF-8"?>
<svg width="40px" height="43px" viewBox="0 0 40 43" version="1.1" xmlns="http://www.w3.org/2000/svg" xmlns:xlink="http://www.w3.org/1999/xlink">
    <!-- Generator: sketchtool 57.1 (101010) - https://sketch.com -->
    <title>E90C8B3C-EA17-42B2-A2BB-D25A3C9D2F1C</title>
    <desc>Created with sketchtool.</desc>
    <g id="desktop" stroke="none" stroke-width="1" fill="none" fill-rule="evenodd">
        <g id="page-projet" transform="translate(-993.000000, -5009.000000)" fill="#33615E" fill-rule="nonzero">
            <g id="call-to-action" transform="translate(0.000000, 4757.000000)">
                <g id="cta" transform="translate(299.000000, 211.818182)">
                    <g id="rdv" transform="translate(585.000000, 0.000000)">
                        <g id="icone-rdv" transform="translate(109.000000, 41.000000)">
                            <path d="M36.4438186,4.55179569 C36.3592363,4.54831202 36.2745585,4.54773141 36.1898807,4.55015063 L32.9978043,4.55015063 L32.9978043,1.7695084 C32.9978998,0.657251506 31.9504535,0 30.8531742,0 L27.9105489,0 C26.8132697,0 26.0152745,0.657251506 26.0152745,1.7695084 L26.0152745,4.55005386 L14.0450597,4.55005386 L14.0450597,1.7695084 C14.0450597,0.657251506 13.2470644,0 12.1497852,0 L9.20706444,0 C8.10988067,0 7.06243437,0.657251506 7.06243437,1.7695084 L7.06243437,4.55005386 L3.87045346,4.55005386 C1.8328401,4.49247661 0.134988067,6.12021919 0.0781861575,8.18554882 C0.0757995227,8.2712857 0.0767363077,8.3572161 0.0798090692,8.44295298 L0.0798090692,37.6646143 C0.0798090692,39.889128 1.67579952,41.9619088 3.870358,41.9619088 L36.1899761,41.9619088 C38.3845346,41.9619088 39.9805251,39.889128 39.9805251,37.6646143 L39.9805251,8.44295298 C40.0639618,6.37849426 38.4804773,4.63637134 36.4438186,4.55179569 Z M27.9105489,2.02226766 L31.002864,2.02226766 L31.002864,7.58345535 L27.9105489,7.58345535 L27.9105489,2.02226766 Z M9.2071599,2.02226766 L12.0501193,2.02226766 L12.0501193,7.58345535 L9.2071599,7.58345535 L9.2071599,2.02226766 Z M37.9854893,37.6646143 C37.9854893,38.7768711 37.2872554,39.9396412 36.1899761,39.9396412 L3.87045346,39.9396412 C2.77317422,39.9396412 2.07494033,38.7768711 2.07494033,37.6646143 L2.07494033,16.1781413 L37.9854893,16.1781413 L37.9854893,37.6646143 Z M37.9854893,8.44295298 L37.9854893,14.1558736 L2.07484487,14.1558736 L2.07484487,8.44295298 C1.990358,7.49752494 2.67799523,6.66163882 3.61069212,6.57599872 C3.69699284,6.56806371 3.78386635,6.56690248 3.870358,6.57241829 L7.06243437,6.57241829 L7.06243437,7.68467518 C7.06243437,8.79693207 8.1097852,9.60581978 9.20706444,9.60581978 L12.1497852,9.60581978 C13.1685919,9.63417295 14.0170883,8.8198662 14.0450597,7.787153 C14.0460143,7.75299372 14.0460143,7.71883445 14.0450597,7.68467518 L14.0450597,6.57232152 L26.0152745,6.57232152 L26.0152745,7.68457841 C25.9873031,8.71729161 26.7906444,9.57736985 27.8094511,9.60572301 C27.8431504,9.6066907 27.8768496,9.6066907 27.9105489,9.60572301 L30.8532697,9.60572301 C31.9505489,9.60572301 32.9978998,8.7968353 32.9978998,7.68457841 L32.9978998,6.57232152 L36.1899761,6.57232152 C37.1246778,6.51261537 37.9301193,7.23228254 37.9890215,8.17974271 C37.994463,8.26741496 37.9933174,8.35547427 37.9854893,8.44295298 Z" id="Shape"></path>
                        </g>
                    </g>
                </g>
            </g>
        </g>
    </g>
</svg>