<?xml version="1.0" encoding="UTF-8"?>
<svg width="24px" height="17px" viewBox="0 0 24 17" version="1.1" xmlns="http://www.w3.org/2000/svg" xmlns:xlink="http://www.w3.org/1999/xlink">
    <!-- Generator: sketchtool 57.1 (101010) - https://sketch.com -->
    <title>0AAAA5BB-547A-4789-B369-C11F97550477</title>
    <desc>Created with sketchtool.</desc>
    <g id="desktop" stroke="none" stroke-width="1" fill="none" fill-rule="evenodd">
        <g id="full-menu" transform="translate(-1304.000000, -298.000000)" fill="#356460" fill-rule="nonzero">
            <g id="menu" transform="translate(-213.000000, -106.000000)">
                <g id="sidebar-right" transform="translate(1403.000000, 106.000000)">
                    <g id="social-icons" transform="translate(114.000000, 190.000000)">
                        <g id="icone-youtube" transform="translate(0.000000, 108.000000)">
                            <path d="M23.5037247,3.68339409 C23.5037247,3.68339409 23.2718452,2.01118333 22.5611699,1.27337191 C21.6581849,0.307421427 20.6459871,0.302567404 20.182228,0.245128138 C16.8591484,0 11.8709677,0 11.8709677,0 C11.8709677,0 6.8819957,0 3.55970753,0.245937141 C3.09594839,0.302567404 2.08375054,0.307421427 1.18076559,1.27418091 C0.468507527,2.01118333 0.237419355,3.68339409 0.237419355,3.68339409 C0.237419355,3.68339409 0,5.31758168 0,7.28103379 L0,9.70885405 C0,11.6723062 0.237419355,13.3809221 0.237419355,13.3809221 C0.237419355,13.3809221 0.468507527,15.0523239 1.18076559,15.7893263 C2.08375054,16.7560858 3.27005591,16.7261526 3.79870968,16.8272781 C5.69806452,17.013349 11.8709677,16.9898878 11.8709677,16.9898878 C11.8709677,16.9898878 16.8591484,17.0626982 20.182228,16.81757 C20.6459871,16.7609398 21.6581849,16.7560858 22.5611699,15.7893263 C23.2718452,15.0531329 23.5037247,13.3809221 23.5037247,13.3809221 C23.5037247,13.3809221 23.7419355,11.6731152 23.7419355,9.70966306 L23.7419355,7.28184279 C23.7419355,5.31758168 23.5037247,3.68339409 23.5037247,3.68339409 Z M8.70537634,11.7362175 L8.70537634,5.26418743 L15.0365591,8.50020245 L8.70537634,11.7362175 Z" id="Shape"></path>
                        </g>
                    </g>
                </g>
            </g>
        </g>
    </g>
</svg>