<?xml version="1.0" encoding="UTF-8"?>
<svg width="40px" height="37px" viewBox="0 0 40 37" version="1.1" xmlns="http://www.w3.org/2000/svg" xmlns:xlink="http://www.w3.org/1999/xlink">
    <!-- Generator: sketchtool 57.1 (101010) - https://sketch.com -->
    <title>6716D42B-1429-4FEF-82BD-878095FBAE79</title>
    <desc>Created with sketchtool.</desc>
    <g id="desktop" stroke="none" stroke-width="1" fill="none" fill-rule="evenodd" opacity="0.2">
        <g id="page-projet" transform="translate(-895.000000, -1918.000000)" fill="#243842" fill-rule="nonzero">
            <g id="multimedia" transform="translate(0.000000, 1634.000000)">
                <g id="icones" transform="translate(445.000000, 260.395105)">
                    <g id="plan-3D" transform="translate(390.000000, 0.000000)">
                        <g id="icone-3d" transform="translate(60.000000, 24.000000)">
                            <path d="M39.9058462,20.3247778 C39.9058462,20.3213196 39.9046154,20.3179501 39.9040879,20.3144032 C39.9004159,20.2914089 39.8954556,20.2686429 39.8892308,20.2462144 C39.8875604,20.2400961 39.8858901,20.2339777 39.884044,20.227948 C39.8764179,20.2025834 39.8671978,20.1777344 39.8564396,20.1535522 C39.8453783,20.129492 39.8327804,20.1061814 39.8187253,20.0837673 C39.8155604,20.0786243 39.8122198,20.0736587 39.8088791,20.0686931 C39.7963293,20.0494078 39.78268,20.0308737 39.768,20.0131844 C39.7657143,20.0104355 39.7636923,20.007598 39.7614066,20.0048492 C39.7438271,19.9844743 39.7249755,19.9652525 39.704967,19.9473011 L39.6961758,19.9401186 C39.6782544,19.9247069 39.6594688,19.9103479 39.6399121,19.8971127 C39.6358681,19.8943639 39.6319121,19.8914377 39.6278681,19.8887775 C39.6054406,19.8744035 39.5821586,19.8614329 39.5581538,19.8499392 C39.5569438,19.849361 39.5557695,19.8487095 39.5546374,19.8479884 L30.2663736,15.5203509 L30.2663736,5.22216079 C30.2663736,5.22012133 30.2663736,5.21817055 30.2663736,5.21613109 C30.2662316,5.18895659 30.2642932,5.16182187 30.2605714,5.13490753 C30.2605714,5.13180401 30.2593407,5.12878916 30.2589011,5.12604033 C30.2552295,5.10292908 30.2502693,5.08004495 30.244044,5.05749686 C30.2421978,5.05093513 30.2403516,5.04428473 30.2383297,5.037723 C30.2312816,5.01482883 30.2229457,4.99235838 30.2133626,4.97042095 C30.2123956,4.96811547 30.2116044,4.96572133 30.2106374,4.96350453 L30.2101099,4.96217445 C30.1991966,4.93886435 30.1868958,4.91624126 30.1732747,4.89442903 C30.1701099,4.88919738 30.1665934,4.88414308 30.1632527,4.87908877 C30.1510212,4.86065179 30.1378153,4.84289173 30.1236923,4.82588557 C30.1208791,4.82242736 30.1182418,4.81888048 30.1153407,4.81551094 C30.0979006,4.79526153 30.0791645,4.77618579 30.0592527,4.75840617 C30.0567912,4.75610069 30.053978,4.75414991 30.0514286,4.75184444 C30.0335071,4.73643274 30.0147215,4.72207371 29.9951648,4.70883851 C29.9907692,4.70582366 29.9863736,4.70272014 29.9818901,4.69997131 C29.959571,4.68559422 29.9363747,4.67265195 29.9124396,4.66122164 C29.9113846,4.66122164 29.9105934,4.66015758 29.9095385,4.65962555 L20.2141538,0.141875219 C20.0503976,0.0655603485 19.8616903,0.0655603485 19.6979341,0.141875219 L10.002989,4.65891617 C10.0021099,4.65935953 10.0014066,4.65998023 10.0005275,4.66033492 C9.97627248,4.67185909 9.9527804,4.68495066 9.9301978,4.69952795 C9.92606593,4.70218811 9.92202198,4.70511429 9.91789011,4.70786312 C9.89790076,4.72148177 9.87873145,4.73628653 9.86048352,4.75219913 L9.85345055,4.75796281 C9.83344902,4.77586081 9.81462524,4.79505464 9.7970989,4.81542227 C9.79428571,4.81870313 9.79182418,4.82207267 9.7890989,4.82535354 C9.77483877,4.84264532 9.76151532,4.86070161 9.74918681,4.87944346 C9.74584615,4.88449777 9.74241758,4.8894634 9.73925275,4.89469505 C9.7255952,4.9164856 9.71329312,4.93911099 9.70241758,4.96244047 L9.70189011,4.96377055 C9.70092308,4.96598735 9.70013187,4.96838149 9.69916484,4.97068696 C9.68958174,4.9926244 9.68124588,5.01509484 9.6741978,5.03798902 C9.67217582,5.04455075 9.67032967,5.05120115 9.66848352,5.05776288 C9.66225817,5.08031097 9.65729792,5.10319509 9.65362637,5.12630634 C9.65362637,5.12940986 9.6523956,5.13242471 9.65195604,5.13517354 C9.64823425,5.16208789 9.64629588,5.1892226 9.64615385,5.21639711 L9.64615385,5.2224268 L9.64615385,15.5203509 L0.357274725,19.8479884 C0.355868132,19.8486978 0.354549451,19.8496732 0.353054945,19.8503826 C0.329529435,19.8616291 0.306716592,19.8743335 0.284747253,19.8884229 C0.280087912,19.8914377 0.275956044,19.8947186 0.271032967,19.8978221 C0.25212936,19.9107078 0.23393403,19.9246203 0.216527473,19.9394979 C0.213362637,19.9422468 0.209934066,19.9448183 0.206857143,19.9476558 C0.186981526,19.9653838 0.168302556,19.9844316 0.150945055,20.0046719 C0.148395604,20.007598 0.146197802,20.0107016 0.143648352,20.0135391 C0.129199935,20.0310052 0.115728469,20.0492704 0.103296703,20.0682497 C0.099956044,20.0733927 0.0965274725,20.078447 0.0932747253,20.0836786 C0.0649370621,20.1283849 0.0429781371,20.1768912 0.028043956,20.2277706 C0.0261978022,20.2338003 0.0245274725,20.2399187 0.0228571429,20.2460371 C0.0166323515,20.2684655 0.0116720265,20.2912316 0.008,20.3142259 C0.00747252747,20.3177727 0.00668131868,20.3211423 0.00624175824,20.3246005 C0.00244741345,20.3516866 0.000351648352,20.3790012 0.000351648352,20.4063561 L0.000351648352,20.4113217 L0.000351648352,31.133364 C0.000351648352,31.375362 0.139826148,31.5952851 0.357626374,31.696786 L10.0523077,36.2136496 C10.2160391,36.2899372 10.4047081,36.2899372 10.5684396,36.2136496 L19.956044,31.8399913 L29.3436484,36.2136496 C29.5073798,36.2899372 29.6960488,36.2899372 29.8597802,36.2136496 L39.5548132,31.69652 C39.7725268,31.5950595 39.9120879,31.3752657 39.9120879,31.133364 L39.9120879,20.4114991 C39.9120879,20.4098143 39.9120879,20.4082182 39.9120879,20.4065334 C39.9120879,20.3791705 39.9097582,20.3518559 39.9058462,20.3247778 Z M10.232967,16.6143862 L18.4527473,20.4443964 L10.3103297,24.1964639 L2.08958242,20.4083955 L10.232967,16.6143862 Z M19.3406593,10.1361863 L19.3406593,19.4906402 L10.8764835,15.5469525 L10.8764835,6.19258728 L19.3406593,10.1361863 Z M29.0356044,15.5469525 L20.5714286,19.4906402 L20.5714286,10.1361863 L29.0356044,6.19258728 L29.0356044,15.5469525 Z M10.9257143,25.2778191 L19.3406593,21.400192 L19.3406593,30.7592568 L10.9257143,34.6796238 L10.9257143,25.2778191 Z M20.5714286,21.400192 L28.9863736,25.2778191 L28.9863736,34.6796238 L20.5714286,30.7592568 L20.5714286,21.400192 Z M29.6017582,24.1964639 L21.4593407,20.4443964 L29.6795604,16.6143862 L37.8225055,20.4083955 L29.6017582,24.1964639 Z M19.956044,1.38878105 L28.1835604,5.22216079 L19.956044,9.05554053 L11.7285275,5.22216079 L19.956044,1.38878105 Z M1.23076923,21.377492 L9.69494505,25.2778191 L9.69494505,34.6796238 L1.23076923,30.7362908 L1.23076923,21.377492 Z M30.2171429,34.6796238 L30.2171429,25.2778191 L38.6813187,21.377492 L38.6813187,30.7362908 L30.2171429,34.6796238 Z" id="Shape"></path>
                        </g>
                    </g>
                </g>
            </g>
        </g>
    </g>
</svg>