<?xml version="1.0" encoding="UTF-8"?>
<svg width="27px" height="27px" viewBox="0 0 27 27" version="1.1" xmlns="http://www.w3.org/2000/svg" xmlns:xlink="http://www.w3.org/1999/xlink">
    <!-- Generator: sketchtool 57.1 (101010) - https://sketch.com -->
    <title>BD37BCA2-364A-4EC6-BF21-C1FD745012A3</title>
    <desc>Created with sketchtool.</desc>
    <g id="desktop" stroke="none" stroke-width="1" fill="none" fill-rule="evenodd">
        <g id="home-page" transform="translate(-1177.000000, -852.000000)" fill="#243842">
            <g id="moteur-recherche" transform="translate(152.000000, 790.000000)">
                <g id="recherche" transform="translate(942.109152, 10.000000)">
                    <path d="M99.1307927,71.2491202 C96.8425298,71.2491202 94.7668716,70.3338211 93.2496463,68.8473203 C93.2475755,68.8473203 93.2468852,68.8404384 93.2448144,68.8404384 C93.241363,68.8404384 93.2365311,68.8335564 93.2330797,68.8335564 C91.6868628,67.3126459 90.7253091,65.1998878 90.7253091,62.8737894 C90.7253091,58.2491202 94.4962837,54.4915766 99.1307927,54.4915766 C103.765302,54.4915766 107.536276,58.2491202 107.536276,62.8737894 C107.536276,67.4915766 103.765302,71.2491202 99.1307927,71.2491202 Z M88.6544829,62.8737894 C88.6544829,65.4063463 89.5663367,67.7324447 91.0773496,69.5423971 L83.9323089,76.6652134 C83.5278075,77.0712483 83.5278075,77.7181515 83.9323089,78.1241864 C84.1345596,78.3237629 84.3996254,78.4269921 84.6646911,78.4269921 C84.9297569,78.4269921 85.1941323,78.3237629 85.396383,78.1241864 L92.5538487,70.9876062 C94.3533967,72.4396973 96.6409693,73.3137047 99.1307927,73.3137047 C104.907708,73.3137047 109.607102,68.627098 109.607102,62.8737894 C109.607102,57.1135988 104.907708,52.4269921 99.1307927,52.4269921 C93.3545681,52.4269921 88.6544829,57.1135988 88.6544829,62.8737894 Z" id="icone-recherche"></path>
                </g>
            </g>
        </g>
    </g>
</svg>