<?xml version="1.0" encoding="UTF-8"?>
<svg width="42px" height="54px" viewBox="0 0 42 54" version="1.1" xmlns="http://www.w3.org/2000/svg" xmlns:xlink="http://www.w3.org/1999/xlink">
    <!-- Generator: sketchtool 57.1 (101010) - https://sketch.com -->
    <title>FDF91E54-C78C-4D95-85EB-AB696F35A962</title>
    <desc>Created with sketchtool.</desc>
    <g id="desktop" stroke="none" stroke-width="1" fill="none" fill-rule="evenodd">
        <g id="home-page" transform="translate(-583.000000, -2986.000000)" fill="#243842" fill-rule="nonzero">
            <g id="carrousel-projets" transform="translate(0.000000, 1860.000000)">
                <g id="points-forts" transform="translate(250.000000, 1083.000000)">
                    <g id="avantages" transform="translate(155.000000, 43.000000)">
                        <g id="avantage-2" transform="translate(178.000000, 0.000000)">
                            <g id="icone-piscine">
                                <path d="M28.0546875,20.1870575 C28.507782,20.1870575 28.875,19.8198395 28.875,19.366745 L28.875,19.3664246 C28.875,18.9133301 28.507782,18.5461121 28.0546875,18.5461121 C27.6019135,18.5461121 27.234375,18.9136505 27.234375,19.366745 C27.234375,19.8198395 27.6019135,20.1870575 28.0546875,20.1870575 Z" id="Path"></path>
                                <path d="M27.7265625,31.3003692 C29.7084503,32.8009644 32.4715576,32.8009644 34.453125,31.3003692 C35.4439087,32.050827 36.6301574,32.4258156 37.8164062,32.4258156 C39.2445831,32.4258156 40.6724396,31.8822784 41.759674,30.7950439 C42.0801086,30.4746094 42.0801086,29.955185 41.759674,29.6347504 C41.4392395,29.3146362 40.9201355,29.3146362 40.599701,29.6347504 C39.8562928,30.3781586 38.8677521,30.7876739 37.8164062,30.7876739 C36.7650604,30.7876739 35.7765197,30.3781586 35.0331115,29.6347504 C34.712677,29.3146362 34.193573,29.3146362 33.8731385,29.6347504 C33.1294098,30.3781586 32.1411896,30.7876739 31.0898438,30.7876739 C30.0384979,30.7876739 29.0499572,30.3781586 28.306549,29.6347504 C27.9861145,29.3146362 27.46669,29.3146362 27.1462555,29.6347504 C26.4685363,30.3124695 25.6030426,30.6905822 24.7157593,30.7697296 C26.4989776,30.1349487 27.7791138,28.4308777 27.7791138,26.4329682 C27.7791138,25.3043976 27.3702393,24.2700348 26.6934814,23.4686279 L37.2425079,23.4609375 C37.6956024,23.4606171 38.0621796,23.093399 38.0621796,22.640625 C38.0621796,21.5453797 37.6353607,20.5155029 36.8605499,19.741333 C36.08638,18.9681244 35.0581055,18.5425873 33.9644623,18.5425873 C33.9631806,18.5425873 33.9615783,18.5425873 33.9599762,18.5425873 L31.2529449,18.5445099 C30.8001709,18.5448303 30.4329529,18.9123688 30.4332733,19.3654633 C30.4335938,19.8182373 30.8008117,20.1851349 31.2535858,20.1851349 L31.2542267,20.1851349 L33.9615783,20.1832123 L33.9641418,20.1832123 C34.6200714,20.1832123 35.236908,20.4382782 35.7008973,20.9019471 C35.9652558,21.1659851 36.1616821,21.4793701 36.2824859,21.8212738 L22.981247,21.8308868 C22.9302979,21.8308868 22.880951,21.8360138 22.8325653,21.8449859 C20.4552612,22.0218658 18.5746308,24.0114441 18.5746308,26.4329682 C18.5746308,27.8082733 19.1818543,29.0435486 20.1409149,29.8875732 C18.5964203,31.1638642 16.2982636,31.0799103 14.853424,29.6350708 C14.5329895,29.3146362 14.013565,29.3146362 13.6931305,29.6350708 C12.9497223,30.378479 11.9615021,30.7876739 10.9098358,30.7876739 C10.1151581,30.7876739 9.35636904,30.5534363 8.7119751,30.1179657 L9.84535215,28.8013 C12.6674194,25.5226135 16.036789,22.8338471 19.8602143,20.8103027 C20.6263733,20.4046326 21.489624,20.1902618 22.3570404,20.1902618 L24.6917267,20.1886597 C25.1448212,20.1883393 25.5117188,19.8208008 25.5113983,19.3677063 C25.5110779,18.9149322 25.1438599,18.5480347 24.6910858,18.5480347 C24.6910858,18.5480347 24.6907654,18.5480347 24.6904449,18.5480347 L22.3563995,18.5496368 C21.2230225,18.5496368 20.0944519,18.8300171 19.0927734,19.3600158 C15.0876617,21.4800109 11.558075,24.2963104 8.60174561,27.7310486 L6.94766231,29.6530151 C6.20649717,30.3845673 5.22628788,30.7876739 4.18359375,30.7876739 C3.13224795,30.7876739 2.14370723,30.3781586 1.40029903,29.6347504 C1.07986446,29.3146362 0.560760539,29.3146362 0.240325969,29.6347504 C-0.0801086016,29.955185 -0.0801086016,30.4746094 0.240325969,30.7950439 C2.23086544,32.7852631 5.36311338,32.9538116 7.546875,31.3003692 C9.5287628,32.8009644 12.2918701,32.8009644 14.2734375,31.3003692 C16.2553253,32.8009644 19.0184326,32.8009644 21,31.3003692 C22.9818878,32.8009644 25.7449951,32.8009644 27.7265625,31.3003692 Z M23.1770324,23.4715118 C24.809967,23.4715118 26.1388092,24.8000336 26.1388092,26.4329682 C26.1388092,28.0662231 24.8102875,29.3947449 23.1770324,29.3947449 C21.5440979,29.3947449 20.2155762,28.0662231 20.2155762,26.4329682 C20.2155762,24.8000336 21.5440979,23.4715118 23.1770324,23.4715118 L23.1770324,23.4715118 Z" id="Shape"></path>
                                <path d="M40.599701,34.7767639 C39.0651398,36.3116455 36.5679932,36.3116455 35.033432,34.7767639 C34.7129975,34.4566498 34.193573,34.4566498 33.8731385,34.7767639 C32.3385772,36.3116455 29.8414307,36.3116455 28.3068695,34.7767639 C27.986435,34.4566498 27.4670105,34.4566498 27.146576,34.7767639 C25.6120147,36.3116455 23.1148682,36.3116455 21.580307,34.7767639 C21.2598725,34.4566498 20.740448,34.4566498 20.4200135,34.7767639 C20.0995789,35.0971984 20.0995789,35.6166229 20.4200135,35.9370575 C22.4102325,37.9272766 25.5424805,38.0961456 27.7262421,36.4430236 C28.6894684,37.1745758 29.859375,37.5703125 31.0898438,37.5703125 C32.3203125,37.5703125 33.4902191,37.1745758 34.4537658,36.4430236 C36.6375274,38.0961456 39.7697754,37.9272766 41.759674,35.9370575 C42.0801086,35.6166229 42.0801086,35.0971984 41.759674,34.7767639 C41.4392395,34.4566498 40.9201355,34.4566498 40.599701,34.7767639 Z" id="Path"></path>
                                <path d="M13.693451,39.2064514 C12.1588898,40.741333 9.66174316,40.741333 8.12718203,39.2064514 C7.80674746,38.8863373 7.28732304,38.8863373 6.96688847,39.2064514 C5.43232725,40.741333 2.93518066,40.741333 1.40061953,39.2064514 C1.08018496,38.8863373 0.560760539,38.8863373 0.240325969,39.2064514 C-0.0801086016,39.5268859 -0.0801086016,40.0463104 0.240325969,40.366745 C2.23086544,42.3569641 5.36311338,42.5258331 7.546875,40.8723907 C8.53765869,41.6225281 9.72390743,41.9974365 10.9101562,41.9974365 C12.3383331,41.9974365 13.7661896,41.4539795 14.853424,40.366745 C15.1738586,40.0463104 15.1738586,39.5268859 14.853424,39.2064514 C14.5329895,38.8863373 14.0138855,38.8863373 13.693451,39.2064514 L13.693451,39.2064514 Z" id="Path"></path>
                                <path d="M7.83398438,11.6074219 C9.91456602,11.6074219 11.6074219,9.91488652 11.6074219,7.83398438 C11.6074219,5.75340273 9.91456602,4.06054688 7.83398438,4.06054688 C5.75340273,4.06054688 4.06054688,5.75340273 4.06054688,7.83398438 C4.06054688,9.91488652 5.75340273,11.6074219 7.83398438,11.6074219 Z M7.83398438,5.70117188 C9.00997929,5.70117188 9.96679688,6.65798946 9.96679688,7.83398438 C9.96679688,9.00997929 9.00997929,9.96679688 7.83398438,9.96679688 C6.65798946,9.96679688 5.70117188,9.00997929 5.70117188,7.83398438 C5.70117188,6.65798946 6.65798946,5.70117188 7.83398438,5.70117188 Z" id="Shape"></path>
                                <path d="M7.83398438,2.14370723 C8.2870789,2.14370723 8.65429688,1.77616884 8.65429688,1.32339473 L8.65429688,0.8203125 C8.65429688,0.367217977 8.2870789,0 7.83398438,0 C7.38121035,0 7.01367188,0.367217977 7.01367188,0.8203125 L7.01367188,1.32339473 C7.01367188,1.77616884 7.38121035,2.14370723 7.83398438,2.14370723 Z" id="Path"></path>
                                <path d="M7.01367188,14.3448944 L7.01367188,14.8476562 C7.01367188,15.3007508 7.38121035,15.6679688 7.83398438,15.6679688 C8.2870789,15.6679688 8.65429688,15.3007508 8.65429688,14.8476562 L8.65429688,14.3448944 C8.65429688,13.8917999 8.2870789,13.5245819 7.83398438,13.5245819 C7.38121035,13.5245819 7.01367188,13.8917999 7.01367188,14.3448944 Z" id="Path"></path>
                                <path d="M14.3448944,8.65429688 L14.8476562,8.65429688 C15.3007508,8.65429688 15.6679688,8.2870789 15.6679688,7.83398438 C15.6679688,7.38088985 15.3007508,7.01367188 14.8476562,7.01367188 L14.3448944,7.01367188 C13.8917999,7.01367188 13.5245819,7.38088985 13.5245819,7.83398438 C13.5245819,8.2870789 13.8917999,8.65429688 14.3448944,8.65429688 Z" id="Path"></path>
                                <path d="M0.8203125,8.65429688 L1.32339473,8.65429688 C1.77616884,8.65429688 2.14370723,8.2870789 2.14370723,7.83398438 C2.14370723,7.38088985 1.77616884,7.01367188 1.32339473,7.01367188 L0.8203125,7.01367188 C0.367538473,7.01367188 0,7.38088985 0,7.83398438 C0,8.2870789 0.367538473,8.65429688 0.8203125,8.65429688 Z" id="Path"></path>
                                <path d="M2.65031435,11.8576813 L2.29463194,12.2133637 C1.97419737,12.5337982 1.97419737,13.0529022 2.29463194,13.3733368 C2.45452881,13.5335541 2.66473389,13.6136627 2.87461855,13.6136627 C3.08450313,13.6136627 3.2943878,13.5335541 3.45460508,13.3736572 L3.8102875,13.0179748 C4.13072207,12.6975402 4.13072207,12.1784363 3.8102875,11.8580018 C3.49017334,11.5375672 2.97074892,11.5375672 2.65031435,11.8576813 Z" id="Path"></path>
                                <path d="M12.4376679,4.05061338 C12.6478729,4.05061338 12.8577576,3.97050478 13.0176544,3.8102875 L13.3733368,3.45492558 C13.6937714,3.13449101 13.6937714,2.61506651 13.3736572,2.29463194 C13.0532227,1.97419737 12.5337982,1.97419737 12.2133637,2.29463194 L11.8576813,2.65031435 C11.5375672,2.97042851 11.5372467,3.48985293 11.8576813,3.8102875 C12.0178985,3.97050478 12.2277832,4.05061338 12.4376679,4.05061338 Z" id="Path"></path>
                                <path d="M2.65031435,3.8102875 C2.81053164,3.97050478 3.02041622,4.05061338 3.23030088,4.05061338 C3.44018555,4.05061338 3.65007021,3.97050478 3.8102875,3.8102875 C4.13072207,3.48985293 4.13072207,2.97042851 3.8102875,2.64999394 L3.45460508,2.29463194 C3.13417051,1.97419737 2.61474609,1.97419737 2.29431152,2.29463194 C1.97419737,2.61506651 1.97419737,3.13449101 2.29463194,3.45460508 L2.65031435,3.8102875 Z" id="Path"></path>
                                <path d="M12.2136841,53.3736572 C12.373581,53.5335541 12.583786,53.6136627 12.7933502,53.6136627 C13.0035553,53.6136627 13.2134399,53.5335541 13.3736572,53.3733368 C13.6937714,53.0529022 13.6937714,52.5337982 13.3733368,52.2133637 L13.0176544,51.8576813 C12.6972198,51.5372467 12.1781158,51.5375672 11.8576813,51.8576813 C11.5372467,52.1781158 11.5375672,52.6975402 11.8576813,53.0179748 L12.2136841,53.3736572 Z" id="Path"></path>
                            </g>
                        </g>
                    </g>
                </g>
            </g>
        </g>
    </g>
</svg>