<?xml version="1.0" encoding="UTF-8"?>
<svg width="21px" height="15px" viewBox="0 0 21 15" version="1.1" xmlns="http://www.w3.org/2000/svg" xmlns:xlink="http://www.w3.org/1999/xlink">
    <!-- Generator: sketchtool 57.1 (101010) - https://sketch.com -->
    <title>A7C1B0A6-4385-442A-8AFE-5F863E3279BC-color</title>
    <desc>Created with sketchtool.</desc>
    <g id="desktop" stroke="none" stroke-width="1" fill="none" fill-rule="evenodd" opacity="0.3">
        <g id="home-page" transform="translate(-765.000000, -6888.000000)" fill="#FFFFFF">
            <g id="footer" transform="translate(0.000000, 6518.000000)">
                <g id="reseaux-sociaux-footer">
                    <g transform="translate(655.000000, 357.000000)">
                        <path d="M118.181805,22.99737 L118.18116,17.1621094 L123.752985,20.0897994 L118.181805,22.99737 Z M130.415846,16.1509498 C130.415846,16.1509498 130.214136,14.7198799 129.596119,14.08969 C128.811836,13.2622006 127.93282,13.2583065 127.530046,13.2102797 C124.644245,13 120.315544,13 120.315544,13 L120.306522,13 C120.306522,13 115.977822,13 113.092021,13.2102797 C112.688602,13.2583065 111.810231,13.2622006 111.025303,14.08969 C110.407286,14.7198799 110.206221,16.1509498 110.206221,16.1509498 C110.206221,16.1509498 110,17.8318891 110,19.5121793 L110,21.0879787 C110,22.768918 110.206221,24.4492082 110.206221,24.4492082 C110.206221,24.4492082 110.407286,25.8802781 111.025303,26.5104681 C111.810231,27.3379575 112.84069,27.3119971 113.299531,27.3983156 C114.949296,27.5579723 120.311033,27.6072972 120.311033,27.6072972 C120.311033,27.6072972 124.644245,27.6008071 127.530046,27.3905274 C127.93282,27.3418516 128.811836,27.3379575 129.596119,26.5104681 C130.214136,25.8802781 130.415846,24.4492082 130.415846,24.4492082 C130.415846,24.4492082 130.622067,22.768918 130.622067,21.0879787 L130.622067,19.5121793 C130.622067,17.8318891 130.415846,16.1509498 130.415846,16.1509498 L130.415846,16.1509498 Z" id="logo-youtube"></path>
                    </g>
                </g>
            </g>
        </g>
    </g>
</svg>