<?xml version="1.0" encoding="UTF-8"?>
<svg width="239px" height="56px" viewBox="0 0 239 56" version="1.1" xmlns="http://www.w3.org/2000/svg" xmlns:xlink="http://www.w3.org/1999/xlink">
    <!-- Generator: sketchtool 57.1 (101010) - https://sketch.com -->
    <title>444B4720-A65E-4318-B0AF-22386909E4DC</title>
    <desc>Created with sketchtool.</desc>
    <g id="desktop" stroke="none" stroke-width="1" fill="none" fill-rule="evenodd">
        <g id="home-page" transform="translate(-487.000000, -970.000000)" fill="#F6E09E" fill-rule="nonzero">
            <g id="acces-direct-projets" transform="translate(75.000000, 860.000000)">
                <g id="projet-2-hover" transform="translate(372.000000, 0.000000)">
                    <g id="logo-nexthouse-zenata" transform="translate(40.000000, 110.000000)">
                        <polygon id="Path" points="79.4654092 2.55315118 86.3229451 13.7439709 87.366014 13.7439709 87.366014 1.36888889 88.8797485 1.36888889 88.8797485 0.278469945 84.5646289 0.278469945 84.5646289 1.36888889 86.0948059 1.36888889 86.0948059 8.54178506 81.0212775 0.278469945 76.6629965 0.278469945 76.6629965 1.36888889 78.1921458 1.36888889 78.1921458 12.376102 76.6629965 12.376102 76.6629965 13.4614208 80.9770884 13.4614208 80.9770884 12.376102 79.4654092 12.376102"></polygon>
                        <path d="M104.694318,9.30273224 L103.528958,9.30273224 L103.478603,9.57304189 C103.008965,12.1170128 102.371819,12.376102 99.8540667,12.376102 L97.8234222,12.376102 L97.8234222,7.24327869 C99.4810283,7.28918033 99.9280578,7.59315118 100.021574,9.19868852 L100.039044,9.50673953 L101.137607,9.50673953 L101.137607,4.10462659 L100.064736,4.10462659 L100.025685,4.39125683 C99.7996011,6.00903461 99.4738347,6.10797814 97.8234222,6.11409836 L97.8234222,1.36888889 L100.031851,1.36888889 C101.743923,1.36888889 102.730471,1.74120219 103.025407,3.71089253 L103.068569,3.99446266 L104.137329,3.99446266 L104.137329,0.283570128 L93.5083026,0.283570128 L93.5083026,1.36888889 L95.2368168,1.36888889 L95.2368168,12.376102 L93.5083026,12.376102 L93.5083026,13.4614208 L104.39116,13.4614208 L104.694318,9.30273224 Z" id="Path"></path>
                        <polygon id="Path" points="116.320169 13.4614208 122.082225 13.4614208 122.082225 12.376102 120.628095 12.376102 116.729175 5.99271403 119.64463 1.36888889 121.36184 1.36888889 121.36184 0.283570128 116.792889 0.283570128 116.792889 1.36888889 118.137061 1.36888889 115.96049 4.81253188 113.79625 1.36888889 114.982163 1.36888889 114.982163 0.283570128 109.242715 0.283570128 109.242715 1.36888889 110.761587 1.36888889 114.285413 7.20349727 111.038026 12.376102 109.242715 12.376102 109.242715 13.4614208 113.965813 13.4614208 113.965813 12.376102 112.520931 12.376102 115.058209 8.29697632 117.626317 12.376102 116.320169 12.376102"></polygon>
                        <path d="M127.275989,4.10462659 C127.65211,2.20429872 127.88025,1.36888889 129.336435,1.36888889 L130.325039,1.36888889 L130.325039,12.376102 L128.695179,12.376102 L128.695179,13.4614208 L134.537393,13.4614208 L134.537393,12.376102 L132.913699,12.376102 L132.913699,1.36888889 L133.429582,1.36888889 C134.980312,1.36888889 135.748997,2.23387978 135.994606,4.26375228 L136.029547,4.5554827 L137.201072,4.5554827 L137.037675,0.278469945 L126.289441,0.278469945 L126.026362,4.5554827 L127.184528,4.5554827 L127.275989,4.10462659 Z" id="Path"></path>
                        <polygon id="Path" points="155.956787 12.376102 154.433804 12.376102 154.433804 7.26979964 159.395318 7.26979964 159.395318 12.376102 157.865141 12.376102 157.865141 13.4614208 163.506962 13.4614208 163.506962 12.376102 161.983979 12.376102 161.983979 1.36888889 163.506962 1.36888889 163.506962 0.278469945 157.865141 0.278469945 157.865141 1.36888889 159.395318 1.36888889 159.395318 6.07737705 154.433804 6.07737705 154.433804 1.36888889 155.956787 1.36888889 155.956787 0.278469945 150.310856 0.278469945 150.310856 1.36888889 151.841033 1.36888889 151.841033 12.376102 150.310856 12.376102 150.310856 13.4614208 155.956787 13.4614208"></polygon>
                        <path d="M174.44634,0 C170.75809,0 168.47567,3.55482696 168.47567,6.8515847 C168.47567,10.1616029 170.75809,13.7398907 174.44634,13.7398907 C178.134591,13.7398907 180.419066,10.1616029 180.419066,6.8515847 C180.419066,3.55482696 178.134591,0 174.44634,0 Z M174.44634,12.6545719 C172.252299,12.6545719 171.39729,11.032714 171.39729,6.86994536 C171.39729,2.65209472 172.223524,1.08327869 174.44634,1.08327869 C176.669156,1.08327869 177.498473,2.65209472 177.498473,6.86994536 C177.498473,11.032714 176.640382,12.6545719 174.44634,12.6545719 Z" id="Shape"></path>
                        <path d="M186.816213,9.9820765 C186.816213,12.2679781 188.58275,13.7439709 191.315282,13.7439709 C194.4486,13.7439709 195.973638,12.2108561 195.973638,9.06608379 L195.973638,1.36888889 L197.481207,1.36888889 L197.481207,0.278469945 L193.246244,0.278469945 L193.246244,1.36888889 L194.756896,1.36888889 L194.756896,8.48466302 C194.756896,11.0673953 194.281092,12.4668852 191.78492,12.4668852 C189.505583,12.4668852 189.402818,10.3625501 189.402818,10.3421494 L189.402818,1.36888889 L190.93094,1.36888889 L190.93094,0.278469945 L185.305561,0.278469945 L185.305561,1.36888889 L186.81724,1.36888889 L186.81724,9.9820765 L186.816213,9.9820765 Z" id="Path"></path>
                        <path d="M203.825943,12.8187978 C204.591546,13.4267395 205.615089,13.7439709 206.812306,13.7439709 C209.604443,13.7439709 211.406948,11.9803279 211.406948,9.25071038 C211.406948,6.14367942 208.829591,5.45515483 206.759896,4.90637523 C205.032409,4.44531876 203.973926,4.11074681 203.973926,3.04786885 C203.973926,1.83504554 205.243078,1.08531876 206.42077,1.08531876 C207.864624,1.08531876 208.986822,2.03191257 209.423575,3.61806922 L209.492428,3.86287796 L210.488225,3.86287796 L210.488225,0.283570128 L209.758591,0.283570128 L209.111169,0.753806922 C208.549042,0.436575592 207.41965,0 206.557448,0 C204.792966,0 203.782782,0.794608379 203.245319,1.45865209 C202.640031,2.21653916 202.370785,2.93770492 202.370785,3.79453552 C202.370785,5.13486339 203.009986,6.2803643 204.113687,6.93624772 C204.310996,7.06681239 205.144424,7.35038251 206.936652,7.93894353 C207.501862,8.12459016 207.998219,8.28983607 208.232524,8.37449909 C209.667129,8.92429872 209.803807,9.33027322 209.803807,10.2636066 C209.803807,11.76102 208.302405,12.6545719 206.851357,12.6545719 C205.2513,12.6545719 203.926654,11.5896539 203.394329,9.87395264 L203.321365,9.6403643 L202.350232,9.6403643 L202.350232,13.5175228 L203.111724,13.5175228 L203.825943,12.8187978 Z" id="Path"></path>
                        <path d="M227.08895,9.29967213 L225.922562,9.29967213 L225.873235,9.56896175 C225.401541,12.1139526 224.767479,12.3740619 222.249726,12.3740619 L220.211888,12.3740619 L220.211888,7.24327869 C221.87155,7.28612022 222.316524,7.59009107 222.414151,9.19868852 L222.433676,9.50367942 L223.528128,9.50367942 L223.528128,4.10462659 L222.45834,4.10462659 L222.417234,4.39125683 C222.192178,6.00495446 221.870522,6.10593807 220.211888,6.11103825 L220.211888,1.36888889 L222.422372,1.36888889 C224.137527,1.36888889 225.120992,1.73916211 225.419012,3.71089253 L225.461145,3.99446266 L226.529906,3.99446266 L226.529906,0.278469945 L215.902935,0.278469945 L215.902935,1.36888889 L217.627338,1.36888889 L217.627338,12.3740619 L215.902935,12.3740619 L215.902935,13.4614208 L226.780653,13.4614208 L227.08895,9.29967213 Z" id="Path"></path>
                        <path d="M0,0 L0,55.9581785 L20.4647039,53.2775228 L20.4647039,11.5100911 L7.07539854,6.76692168 L51.4566965,6.76692168 L38.1095249,11.284663 L38.1095249,53.2775228 L58.5331227,55.9581785 L58.5331227,0 L20.4647039,0 L0,0 Z M16.3150366,32.9624772 L18.0692422,32.9624772 L18.0692422,34.6414572 L16.3150366,34.6414572 L16.3150366,32.9624772 Z M42.2519987,34.6414572 L40.4977931,34.6414572 L40.4977931,32.9624772 L42.2519987,32.9624772 L42.2519987,34.6414572 Z" id="Shape"></path>
                        <polygon id="Path" points="238.308877 7.01071038 238.308877 6.84444444 228.870902 6.84444444 228.870902 7.17799636 238.141369 7.17799636 238.141369 24.0289982 221.496456 24.0289982 221.496456 24.3635701 238.308877 24.3635701 238.308877 24.2993078 238.477412 24.2993078 238.477412 7.01071038"></polygon>
                        <polygon id="Path" points="79.4746581 24.4665938 79.4746581 24.1330419 65.6105765 24.1330419 65.6105765 7.17799636 74.8810442 7.17799636 74.8810442 6.84444444 65.4420413 6.84444444 65.4420413 7.01071038 65.273506 7.01071038 65.273506 24.2993078 65.4420413 24.2993078 65.4420413 24.4665938"></polygon>
                        <path d="M95.3899373,28.8751913 C94.6603029,29.4596721 93.667589,29.7514026 92.413851,29.7514026 L90.1006016,29.7514026 L96.9180589,18.6717668 L96.9180589,18.3473953 L87.5129685,18.3473953 L87.1687044,22.064408 L87.6188169,22.064408 C87.9548598,20.9362477 88.4224424,20.1487796 89.0225924,19.7020036 C89.6227424,19.2552277 90.530161,19.0318397 91.7427929,19.0318397 L93.4117031,19.0318397 L86.5151164,30.2338798 L86.5151164,30.5235701 L96.9355291,30.5235701 L97.3856416,26.1404736 L96.9355291,26.1404736 C96.6354541,27.3787978 96.1195717,28.2907104 95.3899373,28.8751913 Z" id="Path"></path>
                        <path d="M105.492805,25.9476867 C105.492805,24.7205829 105.19273,23.7576685 104.591552,23.0589435 C103.991402,22.3602186 103.164141,22.0113661 102.109768,22.0113661 C101.037924,22.0113661 100.152086,22.4132605 99.4512263,23.2170492 C98.7503662,24.0208379 98.3999362,25.0561749 98.3999362,26.3240801 C98.3999362,27.6562477 98.7359791,28.7344262 99.4070372,29.5586157 C100.078095,30.3828051 100.949546,30.7948998 102.021389,30.7948998 C102.75719,30.7948998 103.417971,30.6123133 104.003734,30.2471403 C104.589497,29.8819672 105.103324,29.3280874 105.545215,28.5865209 L105.147513,28.2274681 C104.876212,28.6130419 104.582303,28.9037523 104.264758,29.0995993 C103.947213,29.2954463 103.608087,29.3933698 103.249436,29.3933698 C102.531106,29.3933698 101.983366,29.1128597 101.607245,28.5518397 C101.230096,27.9908197 101.038952,27.1696903 101.032786,26.0884517 L105.492805,26.0884517 L105.492805,25.9476867 Z M103.311095,25.0796357 C103.304929,25.2142805 103.301846,25.3162842 103.301846,25.3866667 L101.006067,25.3866667 L101.006067,25.0622951 C101.006067,24.2381056 101.107805,23.6199636 101.310253,23.2078689 C101.5127,22.7957741 101.817914,22.5897268 102.223837,22.5897268 C102.61229,22.5897268 102.891812,22.7559927 103.062403,23.0895446 C103.232993,23.4230965 103.318289,23.9861566 103.318289,24.7817851 C103.320344,24.8460474 103.317261,24.9449909 103.311095,25.0796357 Z" id="Shape"></path>
                        <path d="M115.082873,29.8442259 C114.953389,29.6891803 114.888646,29.4188707 114.888646,29.0332969 L114.888646,24.8695082 C114.888646,23.9055738 114.69442,23.1884882 114.305966,22.7172313 C113.917513,22.2469945 113.325584,22.0113661 112.531208,22.0113661 C112.024574,22.0113661 111.553909,22.1266302 111.118183,22.3571585 C110.682458,22.5876867 110.300171,22.9283789 109.970294,23.3782149 L109.970294,22.2296539 L106.490657,22.2296539 L106.490657,22.6590893 C106.8267,22.6825501 107.062033,22.7743534 107.196655,22.9355191 C107.332306,23.0966849 107.400131,23.3690346 107.400131,23.7546084 L107.400131,29.0312568 C107.400131,29.429071 107.332306,29.7014208 107.196655,29.8503461 C107.061005,29.9992714 106.822589,30.0798543 106.481408,30.0910747 L106.472159,30.52051 L110.834551,30.52051 L110.834551,30.0910747 C110.51084,30.0798543 110.285784,29.9962113 110.159382,29.8411658 C110.032981,29.6861202 109.969266,29.4158106 109.969266,29.0302368 L109.969266,24.2350455 C110.169659,23.9198543 110.394715,23.6801457 110.644435,23.5159199 C110.894155,23.352714 111.161345,23.2700911 111.44395,23.2700911 C111.767661,23.2700911 111.994772,23.3720947 112.124257,23.577122 C112.253741,23.7821494 112.318483,24.1616029 112.318483,24.7165027 L112.318483,29.0292168 C112.318483,29.4086703 112.252714,29.6779599 112.120146,29.8360656 C111.987579,29.9941712 111.75944,30.0788342 111.435729,30.0900546 L111.42648,30.51949 L115.771401,30.51949 L115.771401,30.0900546 C115.442552,30.0818944 115.212357,29.9982514 115.082873,29.8442259 Z" id="Path"></path>
                        <path d="M124.161169,30.5184699 C124.491046,30.3583242 124.805508,30.1135155 125.106611,29.7860838 L124.868195,29.4086703 C124.768513,29.485173 124.684245,29.540255 124.61642,29.5749362 C124.548595,29.6096175 124.487963,29.6279781 124.435553,29.6279781 C124.317373,29.6279781 124.237216,29.5830965 124.193027,29.4923133 C124.148838,29.4015301 124.127257,29.1903825 124.127257,28.8568306 L124.127257,24.9031694 C124.127257,23.8749727 123.853901,23.1354463 123.306161,22.6856102 C122.758421,22.2357741 121.858196,22.0103461 120.603431,22.0103461 C119.572694,22.0103461 118.735156,22.2163934 118.090817,22.6284882 C117.446477,23.0405829 117.123794,23.5648816 117.123794,24.2024044 C117.123794,24.5767577 117.23067,24.8725683 117.446477,25.0918761 C117.661257,25.311184 117.954139,25.4203279 118.325122,25.4203279 C118.683773,25.4203279 118.97871,25.3193443 119.207877,25.1183971 C119.437043,24.9164299 119.552141,24.6583607 119.552141,24.3421494 C119.552141,24.1259016 119.466845,23.9025137 119.296255,23.6719854 C119.125664,23.4414572 119.040369,23.2823315 119.040369,23.1946084 C119.040369,23.0140619 119.142107,22.8732969 119.344555,22.7743534 C119.54803,22.6754098 119.840911,22.6254281 120.223199,22.6254281 C120.693864,22.6254281 121.040184,22.7427322 121.261129,22.9763206 C121.482075,23.2099089 121.592034,23.5781421 121.592034,24.08102 L121.592034,25.4397086 C119.843994,25.9252459 118.603616,26.4271038 117.873982,26.9473224 C117.144347,27.467541 116.778502,28.0958834 116.778502,28.8323497 C116.778502,29.4107104 116.96348,29.876867 117.334463,30.2308197 C117.705446,30.5847723 118.196665,30.7612386 118.809147,30.7612386 C119.320919,30.7612386 119.816248,30.6622951 120.293079,30.463388 C120.769911,30.2644809 121.214885,29.9758106 121.626974,29.595337 C121.661915,29.9809107 121.803731,30.2716211 122.050368,30.4674681 C122.298032,30.6633151 122.64538,30.7612386 123.092409,30.7612386 C123.475724,30.7602186 123.83232,30.6796357 124.161169,30.5184699 Z M121.592034,28.8313297 C121.403973,29.0710383 121.190221,29.2638251 120.951806,29.4096903 C120.71339,29.5555556 120.499638,29.6289982 120.311577,29.6289982 C120.005336,29.6289982 119.78028,29.5198543 119.636408,29.3005464 C119.492537,29.0812386 119.419573,28.7415665 119.419573,28.27949 C119.419573,27.7011293 119.602496,27.2186521 119.967313,26.8330783 C120.33213,26.4475046 120.873704,26.1700546 121.592034,26.0007286 L121.592034,28.8313297 Z" id="Shape"></path>
                        <path d="M127.292431,30.2553005 C127.619225,30.603133 128.133052,30.7765392 128.833913,30.7765392 C129.434063,30.7765392 129.960221,30.605173 130.410334,30.2634608 C130.860446,29.9217486 131.221153,29.4209107 131.492454,28.7599271 L131.059811,28.532459 C130.912857,28.8364299 130.75357,29.063898 130.58298,29.2158834 C130.412389,29.3678689 130.226384,29.4433515 130.027019,29.4433515 C129.80299,29.4433515 129.641649,29.3576685 129.540939,29.1842623 C129.441256,29.0118761 129.390901,28.727286 129.390901,28.3294718 L129.390901,23.0701639 L131.095779,23.0701639 L131.095779,22.2286339 L129.390901,22.2286339 L129.390901,19.1960656 L128.975729,19.1960656 C128.722926,19.6224408 128.349888,20.1130783 127.858669,20.6689982 C127.36745,21.223898 126.762162,21.84102 126.043832,22.5183242 L126.043832,23.0701639 L126.803268,23.0701639 L126.803268,28.6191621 C126.80224,29.3627687 126.965637,29.9084882 127.292431,30.2553005 Z" id="Path"></path>
                        <path d="M140.026093,29.5759563 C139.958268,29.6106375 139.897637,29.6289982 139.845226,29.6289982 C139.727046,29.6289982 139.646889,29.5841166 139.6027,29.4933333 C139.558511,29.4025501 139.53693,29.1914026 139.53693,28.8578506 L139.53693,24.9041894 C139.53693,23.8759927 139.263574,23.1364663 138.715834,22.6866302 C138.168095,22.2367942 137.26787,22.0113661 136.013104,22.0113661 C134.982367,22.0113661 134.144829,22.2174135 133.50049,22.6295082 C132.856151,23.0416029 132.533467,23.5659016 132.533467,24.2034244 C132.533467,24.5777778 132.640343,24.8735883 132.856151,25.0928962 C133.07093,25.312204 133.363812,25.4213479 133.734795,25.4213479 C134.093446,25.4213479 134.388383,25.3203643 134.61755,25.1194171 C134.846717,24.9174499 134.961814,24.6593807 134.961814,24.3431694 C134.961814,24.1269217 134.876519,23.9035337 134.705928,23.6730055 C134.535338,23.4424772 134.450042,23.2833515 134.450042,23.1956284 C134.450042,23.015082 134.55178,22.8743169 134.754228,22.7753734 C134.957703,22.6764299 135.250585,22.6264481 135.632872,22.6264481 C136.103538,22.6264481 136.449857,22.7437523 136.670803,22.9773406 C136.891748,23.210929 137.001707,23.5791621 137.001707,24.0820401 L137.001707,25.4407286 C135.253668,25.9262659 134.013289,26.4281239 133.283655,26.9483424 C132.55402,27.468561 132.188176,28.0969035 132.188176,28.8333698 C132.188176,29.4117304 132.373153,29.8778871 132.744136,30.2318397 C133.11512,30.5857923 133.606338,30.7622587 134.21882,30.7622587 C134.730592,30.7622587 135.225921,30.6633151 135.702753,30.464408 C136.179584,30.2655009 136.624558,29.9768306 137.036648,29.596357 C137.071588,29.9819308 137.213404,30.2726412 137.460041,30.4684882 C137.706678,30.6643352 138.055053,30.7622587 138.502082,30.7622587 C138.88437,30.7622587 139.240966,30.6816758 139.570843,30.5215301 C139.90072,30.3613843 140.215182,30.1165756 140.515257,29.7891439 L140.276841,29.4117304 C140.178186,29.4861931 140.093919,29.541275 140.026093,29.5759563 Z M137.001707,28.8313297 C136.813647,29.0710383 136.599895,29.2638251 136.361479,29.4096903 C136.123063,29.5555556 135.909311,29.6289982 135.72125,29.6289982 C135.415009,29.6289982 135.189953,29.5198543 135.046082,29.3005464 C134.90221,29.0812386 134.829247,28.7415665 134.829247,28.27949 C134.829247,27.7011293 135.011141,27.2186521 135.376986,26.8330783 C135.741804,26.4475046 136.283377,26.1700546 137.001707,26.0007286 L137.001707,28.8313297 Z" id="Shape"></path>
                        <path d="M154.719492,29.0720583 C153.972387,29.5484153 152.943706,29.7860838 151.633447,29.7860838 C151.092901,29.7860838 150.744526,29.7146812 150.588322,29.5708561 C150.432119,29.428051 150.355045,29.0934791 150.355045,28.5671403 L150.355045,24.5787978 L150.478363,24.5787978 C151.381671,24.5787978 152.036287,24.7858652 152.441183,25.20102 C152.846078,25.6161749 153.095798,26.3373406 153.189315,27.3665574 L153.621957,27.3665574 L153.621957,21.2922404 L153.189315,21.2922404 C153.048526,22.2561749 152.784419,22.9436794 152.396994,23.351694 C152.009568,23.7607286 151.437165,23.9657559 150.680811,23.9657559 C150.645871,23.9657559 150.591405,23.9626958 150.517414,23.9565756 C150.444451,23.9504554 150.389985,23.9473953 150.355045,23.9473953 L150.355045,20.1426594 C150.355045,19.6581421 150.425953,19.348051 150.566742,19.2134062 C150.70753,19.0787614 151.078513,19.011439 151.677636,19.011439 C153.023863,19.011439 154.009383,19.2389071 154.635224,19.6948634 C155.261066,20.1508197 155.633076,20.9107468 155.750229,21.9736248 L156.173622,21.9736248 L156.173622,18.3443352 L145.868307,18.3443352 L145.868307,18.8002914 C146.486955,18.8002914 146.906238,18.9226958 147.127183,19.1685246 C147.348129,19.4143534 147.458088,19.9131512 147.458088,20.6669581 L147.458088,28.4335155 C147.458088,29.0710383 147.341963,29.5025137 147.109713,29.7310018 C146.877463,29.9584699 146.445849,30.072714 145.815897,30.072714 L145.815897,30.51949 L156.263028,30.51949 L157.004995,26.6974135 L156.493223,26.6974135 C156.057498,27.8061931 155.466596,28.5957013 154.719492,29.0720583 Z" id="Path"></path>
                        <path d="M165.005282,28.9098725 L164.643548,28.6028415 C164.343473,28.9180328 164.051619,29.1465209 163.769014,29.2862659 C163.486409,29.4260109 163.177085,29.4963934 162.84207,29.4963934 C162.058998,29.4963934 161.449599,29.147541 161.013873,28.448816 C160.578148,27.7500911 160.360285,26.7728962 160.360285,25.5172313 C160.360285,24.5706375 160.492853,23.8464117 160.757987,23.3435337 C161.023122,22.8406557 161.402327,22.5897268 161.897656,22.5897268 C162.145321,22.5897268 162.333381,22.6478689 162.462866,22.765173 C162.59235,22.8824772 162.657092,23.0518033 162.657092,23.2731512 C162.657092,23.3200729 162.650926,23.4057559 162.639622,23.5322404 C162.62729,23.6577049 162.622152,23.7556284 162.622152,23.8260109 C162.622152,24.2411658 162.711558,24.5502368 162.891397,24.7552641 C163.071237,24.9602914 163.343565,25.0622951 163.708382,25.0622951 C164.038259,25.0622951 164.304422,24.9613115 164.507897,24.7603643 C164.711373,24.5583971 164.812083,24.2942077 164.812083,23.966776 C164.812083,23.3822951 164.557225,22.9079781 164.048536,22.5428051 C163.538819,22.1776321 162.869817,21.9950455 162.039472,21.9950455 C160.84431,21.9950455 159.849541,22.4234608 159.054137,23.2792714 C158.25976,24.135082 157.862058,25.2153005 157.862058,26.5178871 C157.862058,27.7388707 158.215571,28.7578871 158.92157,29.5728962 C159.627568,30.3879053 160.499019,30.7959199 161.535922,30.7959199 C162.236782,30.7959199 162.880093,30.6367942 163.465856,30.3185428 C164.049564,29.9982514 164.563391,29.5300546 165.005282,28.9098725 Z" id="Path"></path>
                        <path d="M169.782846,30.7602186 C170.960537,30.7602186 171.921394,30.3542441 172.666443,29.5422951 C173.411492,28.7303461 173.783503,27.6756284 173.783503,26.3781421 C173.783503,25.0806557 173.411492,24.0289982 172.666443,23.2221494 C171.921394,22.4153005 170.954372,22.0123862 169.765376,22.0123862 C168.57638,22.0123862 167.609357,22.4153005 166.864308,23.2221494 C166.119259,24.0289982 165.747248,25.0806557 165.747248,26.3781421 C165.747248,27.663388 166.125425,28.7160656 166.881778,29.5341348 C167.638132,30.351184 168.605154,30.7602186 169.782846,30.7602186 Z M168.696615,23.3221129 C168.902146,22.7988342 169.264908,22.5377049 169.782846,22.5377049 C170.294618,22.5377049 170.652241,22.7978142 170.855717,23.3180328 C171.059192,23.8382514 171.159902,24.8582878 171.159902,26.377122 C171.159902,27.8908561 171.06022,28.9027322 170.859827,29.4147905 C170.659435,29.9258288 170.300784,30.1818579 169.782846,30.1818579 C169.264908,30.1818579 168.902146,29.9207286 168.696615,29.3974499 C168.490057,28.8741712 168.387292,27.8622951 168.387292,26.3597814 C168.387292,24.8572678 168.490057,23.8453916 168.696615,23.3221129 Z" id="Shape"></path>
                        <rect id="Rectangle" x="175.08143" y="25.2989435" width="4.36239169" height="2.15635701"></rect>
                        <path d="M192.26689,28.1560656 L191.76334,27.6827687 C191.2156,28.3957741 190.591814,28.9425137 189.890954,29.3219672 C189.190094,29.7014208 188.463542,29.8921676 187.709244,29.8921676 C186.514082,29.8921676 185.611802,29.4362113 185.002403,28.5242987 C184.393004,27.6123862 184.088819,26.262878 184.088819,24.4747541 C184.088819,22.540765 184.361147,21.0902732 184.905804,20.1222587 C185.45046,19.1552641 186.270528,18.6717668 187.36498,18.6717668 C188.253901,18.6717668 189.060609,18.9859381 189.785105,19.6142805 C190.509602,20.242623 191.089198,21.1320947 191.524924,22.2837158 L191.975036,22.2837158 L191.975036,18.0852459 L191.507454,18.0852459 C191.442711,18.3484153 191.337891,18.5483424 191.194019,18.6860474 C191.050148,18.8237523 190.871336,18.8920947 190.659639,18.8920947 C190.559957,18.8920947 190.132452,18.7574499 189.379182,18.4891803 C188.625912,18.2209107 187.901415,18.0862659 187.206721,18.0862659 C186.30033,18.0862659 185.471013,18.2341712 184.720826,18.5289617 C183.970638,18.8237523 183.303691,19.2664481 182.721011,19.8570492 C182.143469,20.4415301 181.700551,21.1269945 181.392254,21.9124226 C181.08293,22.6988707 180.928782,23.5353005 180.928782,24.4237523 C180.928782,25.3825865 181.071626,26.237377 181.357314,26.9881239 C181.643002,27.7388707 182.085921,28.4151548 182.686071,29.0169763 C183.268751,29.6075774 183.935698,30.0543534 184.685886,30.3583242 C185.436073,30.6622951 186.249975,30.8142805 187.127592,30.8142805 C188.180937,30.8142805 189.145905,30.5878324 190.019411,30.1349362 C190.892917,29.68 191.642076,29.0210565 192.26689,28.1560656 Z" id="Path"></path>
                        <path d="M197.671323,30.0931148 C197.353778,30.0757741 197.132832,29.9941712 197.008486,29.847286 C196.885168,29.7014208 196.823508,29.429071 196.823508,29.0322769 L196.823508,22.230674 L193.377784,22.230674 L193.369563,22.6774499 C193.711772,22.6947905 193.940939,22.7682332 194.059119,22.8967577 C194.177299,23.0252823 194.235875,23.323133 194.235875,23.7913297 L194.235875,29.0332969 C194.235875,29.4249909 194.16805,29.6953005 194.0324,29.8442259 C193.896749,29.9931512 193.658334,30.0767942 193.317153,30.0941348 L193.307904,30.5235701 L197.670295,30.5235701 L197.670295,30.0931148 L197.671323,30.0931148 Z" id="Path"></path>
                        <path d="M194.556503,18.5320219 C194.295479,18.7951913 194.164967,19.1195628 194.164967,19.5051366 C194.164967,19.87949 194.296507,20.1967213 194.560614,20.4558106 C194.824721,20.7159199 195.145349,20.8454645 195.525581,20.8454645 C195.910952,20.8454645 196.234663,20.7159199 196.49877,20.4558106 C196.762877,20.1957013 196.894417,19.8784699 196.894417,19.5051366 C196.894417,19.1256831 196.760821,18.8023315 196.494659,18.536102 C196.227469,18.2698725 195.904786,18.1372678 195.525581,18.1372678 C195.140211,18.1372678 194.817528,18.2688525 194.556503,18.5320219 Z" id="Path"></path>
                        <path d="M203.062396,30.2644809 C203.512509,29.9227687 203.873216,29.4219308 204.144516,28.7609472 L203.711874,28.5334791 C203.564919,28.8374499 203.405633,29.064918 203.235042,29.2169035 C203.064452,29.3688889 202.878446,29.4443716 202.679081,29.4443716 C202.455053,29.4443716 202.293711,29.3586885 202.193001,29.1852823 C202.092291,29.0128962 202.042964,28.728306 202.042964,28.3304918 L202.042964,23.071184 L203.747842,23.071184 L203.747842,22.2296539 L202.042964,22.2296539 L202.042964,19.1970856 L201.627791,19.1970856 C201.374988,19.6234608 201.00195,20.1140984 200.510731,20.6700182 C200.019513,21.224918 199.414224,21.8420401 198.695894,22.5193443 L198.695894,23.071184 L199.455331,23.071184 L199.455331,28.6201821 C199.455331,29.3627687 199.618728,29.9074681 199.945522,30.2553005 C200.272316,30.603133 200.786143,30.7765437 201.487003,30.7765437 C202.087153,30.7775592 202.612284,30.6061931 203.062396,30.2644809 Z" id="Path"></path>
                        <path d="M208.666194,31.1712933 L211.288768,24.0453188 C211.494298,23.4904189 211.67311,23.1232058 211.823148,22.9457195 C211.973185,22.7672131 212.154052,22.6784699 212.365749,22.6784699 L212.365749,22.231694 L209.760646,22.231694 L209.760646,22.6784699 C210.107993,22.6784699 210.352575,22.7182514 210.493363,22.7967942 C210.63518,22.875337 210.70506,23.0089617 210.70506,23.1956284 C210.70506,23.3006922 210.688618,23.4261566 210.65676,23.5730419 C210.623875,23.7189071 210.575576,23.8861931 210.510833,24.0728597 L209.292036,27.3512568 L207.88826,23.6699454 C207.840988,23.5526412 207.807075,23.4577778 207.786522,23.3853552 C207.765969,23.3119126 207.755693,23.2435701 207.755693,23.1793078 C207.755693,22.9987614 207.817352,22.8722769 207.940671,22.8018944 C208.063989,22.7315118 208.302405,22.6907104 208.655918,22.67949 L208.665167,22.232714 L204.179456,22.232714 L204.179456,22.67949 L204.214397,22.67949 C204.591546,22.67949 204.940948,23.0538434 205.265687,23.8015301 C205.271853,23.8137705 205.276991,23.8219308 205.283157,23.828051 L208.082487,30.6480146 C207.929366,31.3783607 207.710476,31.9801821 207.424788,32.4534791 C207.1391,32.926776 206.869855,33.1634244 206.617052,33.1634244 C206.522508,33.1634244 206.444406,33.1338434 206.382747,33.0757013 C206.321088,33.0175592 206.290258,32.9441166 206.290258,32.8563934 C206.290258,32.8329326 206.293341,32.788051 206.299507,32.7207286 C206.305673,32.6534062 206.308756,32.5962842 206.308756,32.5493625 C206.308756,32.256612 206.214212,32.0230237 206.026151,31.8485974 C205.83809,31.6731512 205.58426,31.5854281 205.266715,31.5854281 C204.936838,31.5854281 204.664509,31.6996721 204.44973,31.9271403 C204.23495,32.1546084 204.127046,32.4351184 204.127046,32.7686703 C204.127046,33.2246266 204.272973,33.5897996 204.563799,33.8641894 C204.855653,34.1385792 205.238968,34.2762842 205.715799,34.2762842 C206.386858,34.2762842 206.931514,34.0692168 207.349769,33.6540619 C207.768025,33.2378871 208.206833,32.4106375 208.666194,31.1712933 Z" id="Path"></path>
                        <path d="M69.9832448,44.7112568 L66.5128568,52.8205464 L67.7522077,52.8205464 L68.5065058,50.9916211 L71.3623566,50.9916211 L72.0847974,52.8205464 L73.5286514,52.8205464 L70.0582635,44.7112568 L69.9832448,44.7112568 L69.9832448,44.7112568 Z M68.9483971,49.9216029 L69.961664,47.461275 L70.9420461,49.9216029 L68.9483971,49.9216029 Z" id="Shape"></path>
                        <path d="M78.7666044,48.3915483 C78.4213127,48.1916211 78.03697,48.0916576 77.6135765,48.0916576 C77.246704,48.0916576 76.9075782,48.1630601 76.5951713,48.3058652 C76.2827645,48.4486703 76.0073532,48.6414572 75.7709927,48.8832058 L75.663089,48.2089617 L74.6179648,48.2089617 L74.6179648,54.991184 L75.8254584,54.991184 L75.8254584,52.2636066 C76.0052978,52.470674 76.2354924,52.6348998 76.5150143,52.7552641 C76.7955639,52.8766485 77.08639,52.9368306 77.3874926,52.9368306 C77.8612412,52.9368306 78.2877176,52.8409472 78.6648667,52.6481603 C79.0420157,52.4553734 79.3369525,52.1779235 79.5486492,51.8137705 C79.760346,51.4496175 79.8661943,51.0263024 79.8661943,50.540765 C79.8661943,50.0491075 79.7695948,49.6176321 79.5753682,49.2463388 C79.3811416,48.8770856 79.1118962,48.5914754 78.7666044,48.3915483 Z M78.4326168,51.2904918 C78.2959389,51.5046995 78.1150717,51.6740255 77.8879602,51.7984699 C77.6618763,51.9229144 77.4152393,51.9861566 77.1501045,51.9861566 C76.8191999,51.9861566 76.5335121,51.8933333 76.293041,51.7076867 C76.0525699,51.5220401 75.8963665,51.2833515 75.8244307,50.9906011 L75.8244307,50.0817486 C75.9323344,49.7747177 76.1060079,49.5360291 76.3475067,49.364663 C76.5879777,49.1932969 76.8849698,49.1076138 77.2364275,49.1076138 C77.6310466,49.1076138 77.9640066,49.2453188 78.233252,49.5197086 C78.5024973,49.7940984 78.63712,50.1419308 78.63712,50.5632058 C78.63712,50.8345355 78.5692948,51.0762842 78.4326168,51.2904918 Z" id="Shape"></path>
                        <path d="M85.2870697,48.3915483 C84.941778,48.1916211 84.5574353,48.0916576 84.1340418,48.0916576 C83.7671693,48.0916576 83.4280435,48.1630601 83.1156366,48.3058652 C82.8032298,48.4486703 82.5278185,48.6414572 82.291458,48.8832058 L82.1835543,48.2089617 L81.1384301,48.2089617 L81.1384301,54.991184 L82.3459237,54.991184 L82.3459237,52.2636066 C82.5257632,52.470674 82.7559577,52.6348998 83.0354796,52.7552641 C83.3160292,52.8766485 83.6068553,52.9368306 83.9079579,52.9368306 C84.3817065,52.9368306 84.8081829,52.8409472 85.185332,52.6481603 C85.5624811,52.4553734 85.8574178,52.1779235 86.0691145,51.8137705 C86.2808113,51.4496175 86.3866596,51.0263024 86.3866596,50.540765 C86.3866596,50.0491075 86.2900602,49.6176321 86.0958335,49.2463388 C85.9016069,48.8770856 85.6323615,48.5914754 85.2870697,48.3915483 Z M84.9530822,51.2904918 C84.8164042,51.5046995 84.635537,51.6740255 84.4084255,51.7984699 C84.1823416,51.9229144 83.9357046,51.9861566 83.6705698,51.9861566 C83.3396652,51.9861566 83.0539774,51.8933333 82.8135063,51.7076867 C82.5730352,51.5220401 82.4168318,51.2833515 82.344896,50.9906011 L82.344896,50.0817486 C82.4527997,49.7747177 82.6264733,49.5360291 82.867972,49.364663 C83.108443,49.1932969 83.4054351,49.1076138 83.7568928,49.1076138 C84.151512,49.1076138 84.4844719,49.2453188 84.7537173,49.5197086 C85.0229626,49.7940984 85.1575853,50.1419308 85.1575853,50.5632058 C85.1575853,50.8345355 85.0897602,51.0762842 84.9530822,51.2904918 Z" id="Shape"></path>
                        <path d="M91.237187,48.9046266 C90.8703145,48.3629872 90.3174366,48.0916576 89.5775257,48.0916576 C89.1602981,48.0916576 88.7780108,48.1936612 88.429636,48.3966485 C88.0812613,48.5996357 87.802767,48.888306 87.5941532,49.2626594 C87.3855394,49.6370128 87.2817464,50.0705282 87.2817464,50.5621858 C87.2817464,51.0691439 87.3824565,51.4995993 87.5838767,51.856612 C87.7852969,52.2136248 88.0576252,52.4829144 88.402917,52.6644809 C88.7482088,52.8460474 89.139745,52.9368306 89.5775257,52.9368306 C89.9505641,52.9368306 90.2783858,52.8562477 90.5579077,52.696102 C90.8384572,52.5359563 91.0604305,52.35949 91.2258828,52.1667031 L91.2258828,52.8195264 L92.4333764,52.8195264 L92.4333764,48.2946448 L91.32351,48.2946448 L91.237187,48.9046266 Z M91.2258828,50.9916211 C91.1323663,51.2986521 90.9730799,51.5353005 90.7459684,51.7025865 C90.5198845,51.8698725 90.2413902,51.9535155 89.9104856,51.9535155 C89.6587103,51.9535155 89.4254328,51.8892532 89.2096255,51.7607286 C88.9938181,51.632204 88.8211722,51.4577778 88.6927155,51.2364299 C88.563231,51.015082 88.4984888,50.7692532 88.4984888,50.4979235 C88.4984888,50.0848087 88.6310562,49.7441166 88.8972186,49.475847 C89.163381,49.2085974 89.4860644,49.0749727 89.8673241,49.0749727 C90.1910352,49.0749727 90.476723,49.1606557 90.7243876,49.3320219 C90.9720523,49.503388 91.1395599,49.727796 91.2258828,50.0062659 L91.2258828,50.9916211 L91.2258828,50.9916211 Z" id="Shape"></path>
                        <path d="M95.7958607,48.691439 C95.5728597,48.8842259 95.4002138,49.1014936 95.2789506,49.3442623 L95.1926277,48.2956648 L94.104342,48.2956648 L94.104342,52.8205464 L95.3118356,52.8205464 L95.3118356,50.8732969 C95.3118356,50.5876867 95.3837714,50.3183971 95.5276429,50.0654281 C95.6715145,49.812459 95.8729347,49.6125319 96.1308759,49.4666667 C96.3898447,49.3208015 96.6837538,49.2616393 97.0146584,49.2902004 L97.0680964,48.0916576 C96.9098377,48.0916576 96.7145834,48.1436794 96.4802783,48.2467031 C96.2459732,48.3507468 96.0178339,48.4986521 95.7958607,48.691439 Z" id="Path"></path>
                        <polygon id="Path" points="99.9558045 46.3055738 98.7483109 46.3055738 98.7483109 48.2956648 97.9621555 48.2956648 97.9621555 49.2371585 98.7483109 49.2371585 98.7483109 52.8205464 99.9558045 52.8205464 99.9558045 49.2371585 101.141717 49.2371585 101.141717 48.2956648 99.9558045 48.2956648"></polygon>
                        <path d="M106.066236,48.6322769 C105.656202,48.272204 105.143402,48.0916576 104.524755,48.0916576 C104.057172,48.0916576 103.626585,48.2008015 103.230938,48.4180692 C102.835291,48.635337 102.522884,48.9301275 102.293718,49.3004007 C102.063523,49.671694 101.948426,50.0776685 101.948426,50.5203643 C101.948426,50.9906011 102.051191,51.407796 102.255694,51.771949 C102.460198,52.136102 102.755134,52.4206922 103.139477,52.6277596 C103.52382,52.834827 103.978043,52.9378506 104.503174,52.9378506 C104.762143,52.9378506 105.031388,52.892969 105.311938,52.8042259 C105.592487,52.7154827 105.854539,52.5951184 106.099121,52.4461931 L105.549326,51.5587614 C105.204034,51.7943898 104.862853,51.911694 104.525782,51.911694 C104.281201,51.911694 104.0582,51.8617122 103.857807,51.7617486 C103.656387,51.6617851 103.495045,51.51898 103.372754,51.3333333 L106.886304,50.1562113 C106.749626,49.5003279 106.47627,48.9923497 106.066236,48.6322769 Z M103.145643,50.6376685 C103.138449,50.594827 103.135366,50.5346448 103.135366,50.456102 C103.135366,50.035847 103.255602,49.6931148 103.496073,49.4289253 C103.736544,49.1647359 104.047923,49.0331512 104.428155,49.0331512 C104.715898,49.0331512 104.949176,49.1045537 105.129015,49.2473588 C105.308855,49.3901639 105.445533,49.5717304 105.539049,49.7930783 L103.145643,50.6376685 Z" id="Shape"></path>
                        <path d="M113.988421,48.0916576 C113.679097,48.0916576 113.381078,48.1732605 113.094362,48.3374863 C112.806619,48.5017122 112.570259,48.7302004 112.383226,49.0219308 C112.304096,48.7220401 112.140699,48.4925319 111.893035,48.3323862 C111.64537,48.1722404 111.338101,48.0916576 110.971229,48.0916576 C110.589969,48.0916576 110.252899,48.1773406 109.957962,48.3487067 C109.663025,48.5200729 109.429748,48.7659016 109.257102,49.0872131 L109.160502,48.2956648 L108.072217,48.2956648 L108.072217,52.8205464 L109.27971,52.8205464 L109.27971,50.7876138 C109.27971,50.5091439 109.332121,50.2418944 109.435914,49.9848452 C109.539707,49.727796 109.685634,49.5217486 109.872667,49.364663 C110.0597,49.2075774 110.275507,49.1290346 110.519061,49.1290346 C110.742062,49.1433151 110.901348,49.2187978 110.998976,49.3534426 C111.095575,49.4891075 111.151068,49.6747541 111.166483,49.9093625 L111.166483,52.8195264 L112.384253,52.8195264 L112.384253,50.7876138 C112.391447,50.3459381 112.509627,49.9583242 112.739822,49.6268124 C112.970016,49.2953005 113.271119,49.1290346 113.645185,49.1290346 C113.860992,49.1433151 114.01514,49.2167577 114.108657,49.3483424 C114.202173,49.4799271 114.255611,49.6676138 114.269999,49.9103825 L114.269999,52.8205464 L115.466188,52.8205464 L115.466188,49.4503461 C115.451801,49.0433515 115.313067,48.7159199 115.051016,48.4660109 C114.787936,48.217122 114.433396,48.0916576 113.988421,48.0916576 Z" id="Path"></path>
                        <path d="M120.864455,48.6322769 C120.454421,48.272204 119.940594,48.0916576 119.322974,48.0916576 C118.855391,48.0916576 118.424804,48.2008015 118.029157,48.4180692 C117.63351,48.635337 117.321104,48.9301275 117.091937,49.3004007 C116.861742,49.671694 116.746645,50.0776685 116.746645,50.5203643 C116.746645,50.9906011 116.84941,51.407796 117.053914,51.771949 C117.258417,52.136102 117.553353,52.4206922 117.937696,52.6277596 C118.322039,52.834827 118.776262,52.9378506 119.301393,52.9378506 C119.560362,52.9378506 119.829607,52.892969 120.110157,52.8042259 C120.390706,52.7154827 120.652758,52.5951184 120.89734,52.4461931 L120.347545,51.5587614 C120.002253,51.7943898 119.661072,51.911694 119.324001,51.911694 C119.07942,51.911694 118.856419,51.8617122 118.656026,51.7617486 C118.454606,51.6617851 118.293264,51.51898 118.170974,51.3333333 L121.684523,50.1562113 C121.546817,49.5003279 121.273461,48.9923497 120.864455,48.6322769 Z M117.943862,50.6376685 C117.936668,50.594827 117.933585,50.5346448 117.933585,50.456102 C117.933585,50.035847 118.053821,49.6931148 118.294292,49.4289253 C118.534763,49.1647359 118.846142,49.0331512 119.226374,49.0331512 C119.514117,49.0331512 119.747395,49.1045537 119.927234,49.2473588 C120.107074,49.3901639 120.243752,49.5717304 120.337268,49.7930783 L117.943862,50.6376685 Z" id="Shape"></path>
                        <path d="M126.905006,48.4823315 C126.621373,48.2293625 126.266833,48.102878 125.843439,48.102878 C125.433405,48.102878 125.072699,48.1906011 124.760292,48.3650273 C124.447885,48.5394536 124.208441,48.7842623 124.044017,49.0974135 L123.957694,48.2946448 L122.869408,48.2946448 L122.869408,52.8195264 L124.076902,52.8195264 L124.076902,50.8080146 C124.076902,50.316357 124.197137,49.9114026 124.437608,49.5941712 C124.678079,49.2769399 124.985348,49.1178142 125.359414,49.1178142 C125.611189,49.1249545 125.79925,49.196357 125.925651,49.3320219 C126.051025,49.4676867 126.120906,49.6533333 126.136321,49.8879417 L126.136321,52.8195264 L127.343814,52.8195264 L127.343814,49.4615665 C127.334565,49.0617122 127.188638,48.7353005 126.905006,48.4823315 Z" id="Path"></path>
                        <polygon id="Path" points="130.649777 46.3055738 129.443311 46.3055738 129.443311 48.2956648 128.656128 48.2956648 128.656128 49.2371585 129.443311 49.2371585 129.443311 52.8205464 130.649777 52.8205464 130.649777 49.2371585 131.83569 49.2371585 131.83569 48.2956648 130.649777 48.2956648"></polygon>
                        <rect id="Rectangle" x="136.221718" y="49.9318033" width="2.01522971" height="1.04859745"></rect>
                        <path d="M148.126063,45.6099089 C147.482752,45.2243352 146.66885,45.0325683 145.685385,45.0325683 L143.454348,45.0325683 L143.454348,52.8205464 L146.062534,52.8205464 C146.766477,52.8205464 147.416982,52.6655009 148.013021,52.3554098 C148.609061,52.0453188 149.085892,51.602623 149.44146,51.0293625 C149.797029,50.455082 149.974813,49.7900182 149.974813,49.0341712 C149.974813,48.3497268 149.827858,47.7040437 149.532922,47.0981421 C149.237985,46.4912204 148.769375,45.9954827 148.126063,45.6099089 Z M148.32029,50.3969399 C148.079819,50.7998543 147.745831,51.1048452 147.318327,51.3119126 C146.890823,51.51898 146.396521,51.6220036 145.83645,51.6220036 L144.715279,51.6220036 L144.715279,46.2198907 L146.030676,46.2198907 C146.462291,46.2198907 146.880546,46.3157741 147.28647,46.508561 C147.692393,46.7013479 148.026381,47.0022587 148.288433,47.4123133 C148.550484,47.8223679 148.682024,48.3344262 148.682024,48.9474681 C148.680996,49.5115483 148.560761,49.9950455 148.32029,50.3969399 Z" id="Shape"></path>
                        <path d="M154.586925,50.2959563 C154.586925,50.7814936 154.469772,51.183388 154.236494,51.5046995 C154.003217,51.8260109 153.710336,51.9861566 153.35785,51.9861566 C152.884102,51.9790164 152.635409,51.7260474 152.613829,51.2262295 L152.613829,48.2946448 L151.406335,48.2946448 L151.406335,51.6536248 C151.413529,52.0534791 151.555345,52.3798907 151.831784,52.6328597 C152.108223,52.8858288 152.454542,53.0123133 152.87177,53.0123133 C153.266389,53.0123133 153.618874,52.9215301 153.928198,52.7399636 C154.237522,52.5583971 154.4708,52.3135883 154.629058,52.0075774 L154.704077,52.8205464 L155.792363,52.8205464 L155.792363,48.2956648 L154.584869,48.2956648 L154.584869,50.2959563 L154.586925,50.2959563 Z" id="Path"></path>
                        <path d="M161.614023,48.3915483 C161.268732,48.1916211 160.884389,48.0916576 160.460995,48.0916576 C160.094123,48.0916576 159.754997,48.1630601 159.44259,48.3058652 C159.130183,48.4486703 158.854772,48.6414572 158.618412,48.8832058 L158.510508,48.2089617 L157.465384,48.2089617 L157.465384,54.991184 L158.672877,54.991184 L158.672877,52.2636066 C158.852717,52.470674 159.082911,52.6348998 159.362433,52.7552641 C159.642983,52.8766485 159.933809,52.9368306 160.234912,52.9368306 C160.70866,52.9368306 161.135137,52.8409472 161.512286,52.6481603 C161.889435,52.4553734 162.184371,52.1779235 162.396068,51.8137705 C162.607765,51.4496175 162.713613,51.0263024 162.713613,50.540765 C162.713613,50.0491075 162.617014,49.6176321 162.422787,49.2463388 C162.22856,48.8770856 161.959315,48.5914754 161.614023,48.3915483 Z M161.280036,51.2904918 C161.143358,51.5046995 160.962491,51.6740255 160.735379,51.7984699 C160.509295,51.9229144 160.262658,51.9861566 159.997523,51.9861566 C159.666619,51.9861566 159.380931,51.8933333 159.14046,51.7076867 C158.899989,51.5220401 158.743785,51.2833515 158.67185,50.9906011 L158.67185,50.0817486 C158.779753,49.7747177 158.953427,49.5360291 159.194926,49.364663 C159.435397,49.1932969 159.732389,49.1076138 160.083846,49.1076138 C160.478466,49.1076138 160.811425,49.2453188 161.080671,49.5197086 C161.349916,49.7940984 161.484539,50.1419308 161.484539,50.5632058 C161.484539,50.8345355 161.416714,51.0762842 161.280036,51.2904918 Z" id="Shape"></path>
                        <rect id="Rectangle" x="163.984821" y="44.4766485" width="1.20749358" height="8.343898"></rect>
                        <path d="M170.59161,48.6322769 C170.181576,48.272204 169.667749,48.0916576 169.050128,48.0916576 C168.582546,48.0916576 168.151959,48.2008015 167.756312,48.4180692 C167.360665,48.635337 167.048258,48.9301275 166.819091,49.3004007 C166.588897,49.671694 166.4738,50.0776685 166.4738,50.5203643 C166.4738,50.9906011 166.576565,51.407796 166.781068,51.771949 C166.985571,52.136102 167.280508,52.4206922 167.664851,52.6277596 C168.049193,52.834827 168.503416,52.9378506 169.028548,52.9378506 C169.287517,52.9378506 169.556762,52.892969 169.837312,52.8042259 C170.117861,52.7154827 170.379913,52.5951184 170.624495,52.4461931 L170.0747,51.5587614 C169.729408,51.7943898 169.388227,51.911694 169.051156,51.911694 C168.806574,51.911694 168.583573,51.8617122 168.383181,51.7617486 C168.181761,51.6617851 168.020419,51.51898 167.898128,51.3333333 L171.411678,50.1562113 C171.273972,49.5003279 171.001644,48.9923497 170.59161,48.6322769 Z M167.671017,50.6376685 C167.663823,50.594827 167.66074,50.5346448 167.66074,50.456102 C167.66074,50.035847 167.780976,49.6931148 168.021447,49.4289253 C168.261918,49.1647359 168.573297,49.0331512 168.953529,49.0331512 C169.241272,49.0331512 169.47455,49.1045537 169.654389,49.2473588 C169.834229,49.3901639 169.970907,49.5717304 170.064423,49.7930783 L167.671017,50.6376685 Z" id="Shape"></path>
                        <polygon id="Path" points="176.530423 48.2956648 175.322929 48.2956648 174.395985 49.7502368 173.286119 48.2956648 171.787799 48.2956648 173.523507 50.5530055 171.842265 52.8205464 173.060035 52.8205464 174.12674 51.323133 175.280795 52.8205464 176.734926 52.8205464 174.957084 50.4775228"></polygon>
                        <rect id="Rectangle" x="180.938031" y="49.9318033" width="2.01522971" height="1.04859745"></rect>
                        <path d="M192.48167,45.695592 C191.979147,45.2539162 191.28137,45.0325683 190.390394,45.0325683 L188.170661,45.0325683 L188.170661,52.8205464 L189.431592,52.8205464 L189.431592,50.1143898 L190.56304,50.1143898 C191.187853,50.1143898 191.699625,49.9909654 192.098355,49.7451366 C192.497085,49.4993078 192.785855,49.1820765 192.965695,48.7934426 C193.145534,48.4048087 193.234943,47.9855738 193.234943,47.5367577 C193.235968,46.7513297 192.984193,46.1382878 192.48167,45.695592 Z M191.85069,48.1620401 C191.760257,48.3721676 191.610219,48.550674 191.397495,48.6965392 C191.185798,48.8424044 190.907304,48.915847 190.562012,48.915847 L189.430565,48.915847 L189.430565,46.2311111 L190.594897,46.2311111 C191.09742,46.2311111 191.455043,46.3698361 191.667768,46.648306 C191.879464,46.926776 191.985313,47.2297268 191.985313,47.5571585 C191.985313,47.7499454 191.940096,47.9508925 191.85069,48.1620401 Z" id="Shape"></path>
                        <path d="M198.246809,48.6322769 C197.836775,48.272204 197.322948,48.0916576 196.705328,48.0916576 C196.237746,48.0916576 195.807158,48.2008015 195.411512,48.4180692 C195.015865,48.635337 194.703458,48.9301275 194.474291,49.3004007 C194.244097,49.671694 194.128999,50.0776685 194.128999,50.5203643 C194.128999,50.9906011 194.231765,51.407796 194.436268,51.771949 C194.640771,52.136102 194.935708,52.4206922 195.32005,52.6277596 C195.704393,52.834827 196.158616,52.9378506 196.683747,52.9378506 C196.942716,52.9378506 197.211962,52.892969 197.492511,52.8042259 C197.773061,52.7154827 198.035113,52.5951184 198.279694,52.4461931 L197.729899,51.5587614 C197.384608,51.7943898 197.043426,51.911694 196.706356,51.911694 C196.461774,51.911694 196.238773,51.8617122 196.038381,51.7617486 C195.83696,51.6617851 195.675619,51.51898 195.553328,51.3333333 L199.066877,50.1562113 C198.930199,49.5003279 198.656843,48.9923497 198.246809,48.6322769 Z M195.326216,50.6376685 C195.319023,50.594827 195.31594,50.5346448 195.31594,50.456102 C195.31594,50.035847 195.436175,49.6931148 195.676646,49.4289253 C195.917117,49.1647359 196.227469,49.0331512 196.608729,49.0331512 C196.896472,49.0331512 197.129749,49.1045537 197.309589,49.2473588 C197.489428,49.3901639 197.626106,49.5717304 197.719623,49.7930783 L195.326216,50.6376685 Z" id="Shape"></path>
                        <path d="M204.288388,48.4823315 C204.004755,48.2293625 203.650215,48.102878 203.226821,48.102878 C202.816787,48.102878 202.456081,48.1906011 202.143674,48.3650273 C201.831267,48.5394536 201.591823,48.7842623 201.427399,49.0974135 L201.341076,48.2946448 L200.25279,48.2946448 L200.25279,52.8195264 L201.460284,52.8195264 L201.460284,50.8080146 C201.460284,50.316357 201.580519,49.9114026 201.82099,49.5941712 C202.061461,49.2769399 202.36873,49.1178142 202.742796,49.1178142 C202.994571,49.1249545 203.182632,49.196357 203.309033,49.3320219 C203.434407,49.4676867 203.504288,49.6533333 203.519703,49.8879417 L203.519703,52.8195264 L204.727196,52.8195264 L204.727196,49.4615665 C204.71692,49.0617122 204.57202,48.7353005 204.288388,48.4823315 Z" id="Path"></path>
                        <polygon id="Path" points="208.033159 46.3055738 206.825666 46.3055738 206.825666 48.2956648 206.03951 48.2956648 206.03951 49.2371585 206.825666 49.2371585 206.825666 52.8205464 208.033159 52.8205464 208.033159 49.2371585 209.219072 49.2371585 209.219072 48.2956648 208.033159 48.2956648"></polygon>
                        <path d="M214.440583,48.4823315 C214.15695,48.2293625 213.80241,48.102878 213.379016,48.102878 C212.968982,48.102878 212.612386,48.1906011 212.306145,48.3650273 C212.000932,48.5394536 211.761489,48.7730419 211.58987,49.0657923 L211.58987,44.4766485 L210.403957,44.4766485 L210.403957,52.8205464 L211.611451,52.8205464 L211.611451,50.8090346 C211.611451,50.3245173 211.731687,49.9216029 211.972158,49.6002914 C212.212629,49.27898 212.519897,49.1188342 212.893963,49.1188342 C213.145739,49.1259745 213.333799,49.197377 213.460201,49.3330419 C213.585575,49.4687067 213.655455,49.6543534 213.669842,49.8889617 L213.669842,52.8205464 L214.877336,52.8205464 L214.877336,49.4615665 C214.870142,49.0617122 214.724215,48.7353005 214.440583,48.4823315 Z" id="Path"></path>
                        <path d="M220.044381,48.4078689 C219.660038,48.1977413 219.220202,48.0926776 218.723845,48.0926776 C218.228516,48.0926776 217.786625,48.1977413 217.398171,48.4078689 C217.009718,48.6179964 216.70656,48.9087067 216.48767,49.28 C216.268779,49.6512933 216.15882,50.0613479 216.15882,50.5101639 C216.15882,51.0018215 216.268779,51.4322769 216.48767,51.79949 C216.70656,52.1667031 217.010746,52.4482332 217.398171,52.6451002 C217.786625,52.8409472 218.224405,52.9388707 218.712541,52.9388707 C219.215064,52.9388707 219.65901,52.8317668 220.043353,52.6175592 C220.427696,52.4033515 220.72366,52.1126412 220.932274,51.7454281 C221.140888,51.3782149 221.244681,50.9661202 221.244681,50.5101639 C221.244681,50.0542077 221.140888,49.6421129 220.932274,49.2748998 C220.725715,48.9066667 220.428723,48.6179964 220.044381,48.4078689 Z M219.645651,51.547541 C219.397986,51.8188707 219.079413,51.9545355 218.691988,51.9545355 C218.317922,51.9545355 218.005515,51.8168306 217.754767,51.5424408 C217.502992,51.268051 217.377618,50.9273588 217.377618,50.5203643 C217.377618,50.1215301 217.502992,49.7808379 217.754767,49.4982878 C218.006543,49.2167577 218.318949,49.0759927 218.691988,49.0759927 C219.080441,49.0759927 219.397986,49.2136976 219.645651,49.4880874 C219.893315,49.7624772 220.017662,50.1072495 220.017662,50.5203643 C220.017662,50.9344991 219.893315,51.2762113 219.645651,51.547541 Z" id="Shape"></path>
                        <path d="M225.697506,50.2959563 C225.697506,50.7814936 225.580353,51.183388 225.347076,51.5046995 C225.113798,51.8260109 224.820917,51.9861566 224.468432,51.9861566 C223.994683,51.9790164 223.745991,51.7260474 223.72441,51.2262295 L223.72441,48.2946448 L222.516916,48.2946448 L222.516916,51.6536248 C222.52411,52.0534791 222.665926,52.3798907 222.942365,52.6328597 C223.218804,52.8858288 223.565124,53.0123133 223.982351,53.0123133 C224.37697,53.0123133 224.729456,52.9215301 225.03878,52.7399636 C225.348103,52.5583971 225.581381,52.3135883 225.73964,52.0075774 L225.814658,52.8205464 L226.902944,52.8205464 L226.902944,48.2956648 L225.695451,48.2956648 L225.695451,50.2959563 L225.697506,50.2959563 Z" id="Path"></path>
                        <path d="M230.654909,50.092969 C230.618941,50.0786885 230.539812,50.0542077 230.417521,50.0185064 C230.129778,49.9256831 229.922192,49.83898 229.792707,49.756357 C229.663223,49.6747541 229.602591,49.5513297 229.609785,49.3871038 C229.609785,49.251439 229.670417,49.141275 229.792707,49.055592 C229.914998,48.9699089 230.069146,48.9270674 230.256179,48.9270674 C230.407245,48.9270674 230.573725,48.9627687 230.757675,49.0341712 C230.940597,49.1055738 231.096801,49.2014572 231.226285,49.3228415 L231.689757,48.6057559 C231.466756,48.4343898 231.22834,48.3099454 230.973482,48.2314026 C230.718624,48.1528597 230.418549,48.1140984 230.073257,48.1140984 C229.706385,48.1140984 229.396033,48.1824408 229.141175,48.3170856 C228.886317,48.4527505 228.695173,48.6292168 228.569799,48.8464845 C228.444425,49.0637523 228.380711,49.2973406 228.380711,49.5472495 C228.380711,49.8614208 228.47731,50.1337705 228.671537,50.3653188 C228.865763,50.596867 229.159673,50.7733333 229.555319,50.8947177 C229.605674,50.9089982 229.718716,50.9426594 229.894445,50.9967213 C230.070174,51.0497632 230.230488,51.1201457 230.37436,51.2058288 C230.518231,51.2915118 230.590167,51.4200364 230.590167,51.5914026 C230.590167,51.7556284 230.520287,51.8790528 230.379498,51.9606557 C230.239737,52.0422587 230.061953,52.0840801 229.846145,52.0840801 C229.450499,52.0840801 229.063073,51.8984335 228.681813,51.5281603 L228.17518,52.2024044 C228.3766,52.4308925 228.633514,52.6073588 228.945921,52.7318033 C229.258327,52.8562477 229.59026,52.91949 229.942745,52.91949 C230.538784,52.91949 230.997118,52.7715847 231.316719,52.4757741 C231.636319,52.1799636 231.796633,51.8107104 231.796633,51.3690346 C231.796633,51.0405829 231.695923,50.7753734 231.494503,50.5723862 C231.295138,50.3653188 231.014588,50.2072131 230.654909,50.092969 Z" id="Path"></path>
                        <path d="M236.874272,48.6322769 C236.464238,48.272204 235.950411,48.0916576 235.332791,48.0916576 C234.865208,48.0916576 234.434621,48.2008015 234.038974,48.4180692 C233.643327,48.635337 233.330921,48.9301275 233.101754,49.3004007 C232.871559,49.671694 232.756462,50.0776685 232.756462,50.5203643 C232.756462,50.9906011 232.859227,51.407796 233.063731,51.771949 C233.268234,52.136102 233.56317,52.4206922 233.947513,52.6277596 C234.331856,52.834827 234.786079,52.9378506 235.31121,52.9378506 C235.570179,52.9378506 235.839424,52.892969 236.119974,52.8042259 C236.400523,52.7154827 236.662575,52.5951184 236.907157,52.4461931 L236.357362,51.5587614 C236.01207,51.7943898 235.670889,51.911694 235.333818,51.911694 C235.089237,51.911694 234.866236,51.8617122 234.665843,51.7617486 C234.464423,51.6617851 234.303081,51.51898 234.180791,51.3333333 L237.69434,50.1562113 C237.556634,49.5003279 237.283278,48.9923497 236.874272,48.6322769 Z M233.952651,50.6376685 C233.945458,50.594827 233.942375,50.5346448 233.942375,50.456102 C233.942375,50.035847 234.06261,49.6931148 234.303081,49.4289253 C234.543552,49.1647359 234.853904,49.0331512 235.235164,49.0331512 C235.522907,49.0331512 235.756184,49.1045537 235.936024,49.2473588 C236.115863,49.3901639 236.252541,49.5717304 236.346058,49.7930783 L233.952651,50.6376685 Z" id="Shape"></path>
                    </g>
                </g>
            </g>
        </g>
    </g>
</svg>