<?xml version="1.0" encoding="UTF-8"?>
<svg width="17px" height="17px" viewBox="0 0 17 17" version="1.1" xmlns="http://www.w3.org/2000/svg" xmlns:xlink="http://www.w3.org/1999/xlink">
    <!-- Generator: sketchtool 57.1 (101010) - https://sketch.com -->
    <title>063234D7-9D53-49B5-B3C8-C488E326330A-color</title>
    <desc>Created with sketchtool.</desc>
    <g id="desktop" stroke="none" stroke-width="1" fill="none" fill-rule="evenodd">
        <g id="home-page" transform="translate(-706.000000, -6887.000000)" fill="#E6D399">
            <g id="footer" transform="translate(0.000000, 6518.000000)">
                <g id="reseaux-sociaux-footer">
                    <g transform="translate(655.000000, 357.000000)">
                        <g id="logo-hover" transform="translate(39.000000, 0.000000)">
                            <path d="M20.9614828,12.0008645 C22.30492,12.003905 22.6133803,12.0157367 23.3262016,12.0482607 C24.1798043,12.0871939 24.7627844,12.2227759 25.2728959,12.4210394 C25.8002616,12.6259563 26.2475006,12.9001762 26.6933707,13.3460145 C27.1392089,13.7918846 27.4134289,14.2391235 27.6183776,14.7664892 C27.8166093,15.2766007 27.9521912,15.8595808 27.9911245,16.7131836 C28.0269008,17.4972869 28.0376396,17.7921136 28.0391809,19.5134467 L28.0391809,20.525963 C28.0376396,22.2472716 28.0269008,22.5420982 27.9911245,23.3262016 C27.9521912,24.1798043 27.8166093,24.7627844 27.6183776,25.2728959 C27.4134289,25.8002616 27.1392089,26.2475006 26.6933707,26.6933707 C26.2475006,27.1392089 25.8002616,27.4134289 25.2728959,27.6183776 C24.7627844,27.8166093 24.1798043,27.9521912 23.3262016,27.9911245 C22.5420982,28.0269008 22.2472716,28.0376396 20.525963,28.0391809 L19.5134467,28.0391809 C17.7921136,28.0376396 17.4972869,28.0269008 16.7131836,27.9911245 C15.8595808,27.9521912 15.2766007,27.8166093 14.7664892,27.6183776 C14.2391235,27.4134289 13.7918846,27.1392089 13.3460145,26.6933707 C12.9001762,26.2475006 12.6259563,25.8002616 12.4210394,25.2728959 C12.2227759,24.7627844 12.0871939,24.1798043 12.0482607,23.3262016 C12.0157367,22.6133803 12.003905,22.30492 12.0008645,20.9614828 L12.0008645,19.0779208 C12.003905,17.7344651 12.0157367,17.4260048 12.0482607,16.7131836 C12.0871939,15.8595808 12.2227759,15.2766007 12.4210394,14.7664892 C12.6259563,14.2391235 12.9001762,13.7918846 13.3460145,13.3460145 C13.7918846,12.9001762 14.2391235,12.6259563 14.7664892,12.4210394 C15.2766007,12.2227759 15.8595808,12.0871939 16.7131836,12.0482607 C17.3814535,12.0177695 17.6943281,12.0054648 18.8378003,12.0015405 L19.0779208,12.0008645 L20.9614828,12.0008645 Z M20.0197085,13.4449871 C17.8783479,13.4449871 17.6246928,13.4531685 16.7790486,13.4917515 C15.9971365,13.5274059 15.5724998,13.6580535 15.2899074,13.7678816 C14.9155689,13.9133639 14.6484161,14.087147 14.3677974,14.3677974 C14.087147,14.6484161 13.9133639,14.9155689 13.7678816,15.2899074 C13.6580535,15.5724998 13.5274059,15.9971365 13.4917515,16.7790486 C13.4531685,17.6246928 13.4449871,17.8783479 13.4449871,20.0197085 C13.4449871,22.1610373 13.4531685,22.4146924 13.4917515,23.2603366 C13.5274059,24.0422487 13.6580535,24.4668853 13.7678816,24.7494777 C13.9133639,25.1238163 14.0871788,25.3909691 14.3677974,25.6715877 C14.6484161,25.9522382 14.9155689,26.1260212 15.2899074,26.2715036 C15.5724998,26.3813316 15.9971365,26.5119793 16.7790486,26.5476336 C17.5541349,26.5830014 17.8318126,26.5928234 19.5222253,26.5942148 L20.517185,26.5942148 C22.2075774,26.5928234 22.4852794,26.5830014 23.2603366,26.5476336 C24.0422487,26.5119793 24.4668853,26.3813316 24.7494777,26.2715036 C25.1238163,26.1260212 25.3909691,25.9522382 25.6715877,25.6715877 C25.9522382,25.3909691 26.1260212,25.1238163 26.2715036,24.7494777 C26.3813316,24.4668853 26.5119793,24.0422487 26.5476336,23.2603366 C26.5830014,22.4851627 26.5928234,22.2074242 26.5942148,20.5171491 L26.5942148,19.5222605 C26.5928234,17.831961 26.5830014,17.5542224 26.5476336,16.7790486 C26.5119793,15.9971365 26.3813316,15.5724998 26.2715036,15.2899074 C26.1260212,14.9155689 25.9522382,14.6484161 25.6715877,14.3677974 C25.3909691,14.087147 25.1238163,13.9133639 24.7494777,13.7678816 C24.4668853,13.6580535 24.0422487,13.5274059 23.2603366,13.4917515 C22.4146924,13.4531685 22.1610373,13.4449871 20.0197085,13.4449871 Z M20.0197085,15.9014746 C22.2941362,15.9014746 24.1379105,17.745249 24.1379105,20.0197085 C24.1379105,22.2941362 22.2941362,24.1379105 20.0197085,24.1379105 C17.745249,24.1379105 15.9014746,22.2941362 15.9014746,20.0197085 C15.9014746,17.745249 17.745249,15.9014746 20.0197085,15.9014746 Z M20.0197085,17.3464617 C18.543301,17.3464617 17.3464617,18.543301 17.3464617,20.0197085 C17.3464617,21.4960841 18.543301,22.6929234 20.0197085,22.6929234 C21.4960841,22.6929234 22.6929234,21.4960841 22.6929234,20.0197085 C22.6929234,18.543301 21.4960841,17.3464617 20.0197085,17.3464617 Z M24.3006152,14.7763896 C24.8321193,14.7763896 25.2629955,15.2072658 25.2629955,15.7387699 C25.2629955,16.2702741 24.8321193,16.7011184 24.3006152,16.7011184 C23.7691429,16.7011184 23.3382667,16.2702741 23.3382667,15.7387699 C23.3382667,15.2072658 23.7691429,14.7763896 24.3006152,14.7763896 Z" id="logo-instagram"></path>
                        </g>
                    </g>
                </g>
            </g>
        </g>
    </g>
</svg>