<?xml version="1.0" encoding="UTF-8"?>
<svg width="12px" height="13px" viewBox="0 0 12 13" version="1.1" xmlns="http://www.w3.org/2000/svg" xmlns:xlink="http://www.w3.org/1999/xlink">
    <!-- Generator: sketchtool 57.1 (101010) - https://sketch.com -->
    <title>CE368142-EEE6-448E-A93A-5B942F09C9FF</title>
    <desc>Created with sketchtool.</desc>
    <g id="desktop" stroke="none" stroke-width="1" fill="none" fill-rule="evenodd">
        <g id="page-projet" transform="translate(-875.000000, -3629.000000)" fill="#356460">
            <g id="prestations" transform="translate(153.000000, 3045.000000)">
                <g id="liste-01" transform="translate(722.000000, 581.174825)">
                    <g id="tiret-liste" transform="translate(0.000000, 3.000000)">
                        <path d="M2.94636,5.95104545 C2.51436,5.39440909 0.49596,2.58640909 0.02676,1.98368182 L0.00036,2.04040909 L2.83716,6.24413636 L2.94636,5.95104545 Z M3.14556,5.43104545 L0.09876,1.83122727 L0.06636,1.89977273 L3.03876,5.7135 L3.14556,5.43104545 Z M3.33396,4.93113636 L0.18756,1.64095455 L0.15156,1.71777273 L3.23556,5.1935 L3.33396,4.93113636 Z" id="Fill-1"></path>
                        <polygon id="Fill-3" points="1.3854 2.49564545 0.9918 2.08437273 2.817 0.951009091 3.345 1.27955455"></polygon>
                        <polygon id="Fill-5" points="0.72444 1.80889091 0.33684 1.40352727 1.93644 0.403709091 2.45724 0.725163636"></polygon>
                        <polygon id="Fill-7" points="2.03928 3.17660909 1.64928 2.77006364 3.70488 1.49488182 4.22448 1.81988182"></polygon>
                        <polygon id="Fill-9" points="2.73192 3.89905455 5.15112 2.39696364 4.58232 2.04478182 2.30712 3.45587273"></polygon>
                        <polygon id="Fill-11" points="3.408 4.60424545 6.0516 2.9627 5.4588 2.59515455 2.9652 4.14097273"></polygon>
                        <path d="M6.54636,3.03928182 C7.08636,2.59373636 9.80916,0.511372727 10.39356,0.0280090909 L10.33716,0.000827272727 L6.26316,2.92700909 L6.54636,3.03928182 Z M7.05156,3.24491818 L10.54116,0.102463636 L10.47276,0.0681909091 L6.77676,3.13500909 L7.05156,3.24491818 Z M7.53516,3.43991818 L10.72476,0.194645455 L10.65036,0.156827273 L7.27956,3.33946364 L7.53516,3.43991818 Z" id="Fill-13"></path>
                        <polygon id="Fill-15" points="9.89676 1.42929091 10.29396 1.02274545 11.39316 2.90656364 11.07516 3.4502"></polygon>
                        <polygon id="Fill-17" points="10.56228 0.748327273 10.95348 0.347690909 11.92428 1.99869091 11.61228 2.53523636"></polygon>
                        <polygon id="Fill-19" points="9.2358 2.10328182 9.6294 1.70146364 10.8654 3.82164545 10.5522 4.35819091"></polygon>
                        <polygon id="Fill-21" points="8.5362 2.81769091 9.9918 5.31369091 10.3338 4.72750909 8.9646 2.38041818"></polygon>
                        <polygon id="Fill-23" points="7.85292 3.51709091 9.44292 6.24354545 9.80052 5.63136364 8.30052 3.05854545"></polygon>
                        <path d="M2.83728,6.04452727 L0.00048,10.2482545 L0.02688,10.3049818 C0.49608,9.70343636 2.51328,6.89425455 2.94648,6.33761818 L2.83728,6.04452727 Z M3.03888,6.57516364 L0.06528,10.3888909 L0.09888,10.4574364 L3.14568,6.85761818 L3.03888,6.57516364 Z M3.23568,7.09516364 L0.15168,10.5708909 L0.18768,10.6488909 L3.33408,7.35752727 L3.23568,7.09516364 Z" id="Fill-25"></path>
                        <polygon id="Fill-27" points="1.3854 9.79313636 0.9918 10.2044091 2.817 11.3377727 3.345 11.0092273"></polygon>
                        <polygon id="Fill-29" points="0.72444 10.4798909 0.33684 10.8852545 1.93644 11.8850727 2.45724 11.5636182"></polygon>
                        <polygon id="Fill-31" points="2.03928 9.11217273 1.64928 9.51871818 3.70488 10.7939 4.22448 10.4689"></polygon>
                        <polygon id="Fill-33" points="2.73192 8.38972727 5.15112 9.89181818 4.58232 10.2451818 2.30712 8.83290909"></polygon>
                        <polygon id="Fill-35" points="3.408 7.68453636 6.0516 9.32608182 5.4588 9.69480909 2.9652 8.14780909"></polygon>
                        <path d="M6.26268,9.36153636 L10.33788,12.2889 L10.39308,12.2605364 C9.80868,11.7783545 7.08708,9.69480909 6.54588,9.24926364 L6.26268,9.36153636 Z M6.77748,9.15353636 L10.47348,12.2203545 L10.54068,12.1872636 L7.05108,9.04362727 L6.77748,9.15353636 Z M7.28028,8.95026364 L10.64988,12.1329 L10.72548,12.0950818 L7.53588,8.84862727 L7.28028,8.95026364 Z" id="Fill-37"></path>
                        <polygon id="Fill-39" points="9.89676 10.8594909 10.29396 11.2660364 11.39316 9.38221818 11.07516 8.83858182"></polygon>
                        <polygon id="Fill-41" points="10.56228 11.5404545 10.95348 11.9410909 11.92428 10.2912727 11.61228 9.75354545"></polygon>
                        <polygon id="Fill-43" points="9.2358 10.1855 9.6294 10.5873182 10.8654 8.46713636 10.5522 7.93059091"></polygon>
                        <polygon id="Fill-45" points="8.5362 9.47109091 9.9918 6.97509091 10.3338 7.56127273 8.9646 9.90836364"></polygon>
                        <polygon id="Fill-47" points="7.85292 8.77287273 9.44292 6.04523636 9.80052 6.65741818 8.30052 9.23023636"></polygon>
                    </g>
                </g>
            </g>
        </g>
    </g>
</svg>