<?xml version="1.0" encoding="UTF-8"?>
<svg width="17px" height="15px" viewBox="0 0 17 15" version="1.1" xmlns="http://www.w3.org/2000/svg" xmlns:xlink="http://www.w3.org/1999/xlink">
    <!-- Generator: sketchtool 57.1 (101010) - https://sketch.com -->
    <title>EB24F299-4F43-40C3-A896-ADE6D44F7BE9</title>
    <desc>Created with sketchtool.</desc>
    <g id="desktop" stroke="none" stroke-width="1" fill="none" fill-rule="evenodd">
        <g id="home-page" transform="translate(-653.000000, -4242.000000)" fill="#C9982E">
            <g id="appart-villa" transform="translate(-210.000000, 3380.000000)">
                <g id="appartement" transform="translate(0.000000, 310.000000)">
                    <g id="fleche-droite" transform="translate(872.000000, 559.500000) scale(-1, 1) translate(-872.000000, -559.500000) translate(831.000000, 518.000000)">
                        <path d="M49.2439744,40.2331728 L35.590153,40.2331728 L40.6383876,35.2921992 C40.9362617,35.0001641 40.9407978,34.5231565 40.6484679,34.2255923 C40.35513,33.9285307 39.8768179,33.9245096 39.5789438,34.2155395 L33.2263131,40.4332245 C33.0821642,40.5744669 33.0005135,40.7669789 33,40.9680358 C32.9990014,41.1690928 33.0786361,41.36261 33.2212729,41.5048578 L39.584488,47.8507166 C39.732165,47.9979908 39.9257075,48.0713765 40.1192501,48.0713765 C40.3122886,48.0713765 40.5058311,47.9979908 40.6535081,47.8507166 C40.9488621,47.5561682 40.9488621,47.078658 40.6535081,46.7846123 L35.5962012,41.7410997 L49.2439744,41.7410997 C49.6613006,41.7410997 50,41.4033241 50,40.9871363 C50,40.5704458 49.6613006,40.2331728 49.2439744,40.2331728" id="fleche"></path>
                    </g>
                </g>
            </g>
        </g>
    </g>
</svg>