<?xml version="1.0" encoding="UTF-8"?>
<svg width="44px" height="46px" viewBox="0 0 44 46" version="1.1" xmlns="http://www.w3.org/2000/svg" xmlns:xlink="http://www.w3.org/1999/xlink">
    <!-- Generator: sketchtool 57.1 (101010) - https://sketch.com -->
    <title>3C437775-8227-4162-A9BE-E89681429C6A</title>
    <desc>Created with sketchtool.</desc>
    <g id="desktop" stroke="none" stroke-width="1" fill="none" fill-rule="evenodd">
        <g id="page-projet" transform="translate(-406.000000, -5009.000000)" fill="#47706D" fill-rule="nonzero">
            <g id="call-to-action" transform="translate(0.000000, 4757.000000)">
                <g id="cta" transform="translate(299.000000, 211.818182)">
                    <g id="call">
                        <g id="icone-phone" transform="translate(107.000000, 41.000000)">
                            <path d="M34.7596287,27.5613834 C33.8592068,26.6129531 32.7731308,26.1058716 31.6220759,26.1058716 C30.4803038,26.1058716 29.3849451,26.6035627 28.4473924,27.551993 L25.5140591,30.5099686 C25.2727089,30.378503 25.0313586,30.2564278 24.7992911,30.1343526 C24.4651139,29.9653255 24.1495021,29.8056887 23.8803038,29.6366615 C21.1326245,27.8712666 18.6355781,25.5706189 16.2406414,22.5938625 C15.0803038,21.1101795 14.300557,19.8612565 13.7343122,18.5935527 C14.4954937,17.8892728 15.2009789,17.1568217 15.8878987,16.4525418 C16.1478143,16.1896107 16.40773,15.9172891 16.6676456,15.6543579 C18.6170127,13.6823742 18.6170127,11.1281858 16.6676456,9.15620209 L14.1334684,6.59262326 C13.8457046,6.30152091 13.5486582,6.00102815 13.2701772,5.70053539 C12.7132152,5.11833068 12.1284051,4.51734517 11.5250295,3.95392125 C10.6246076,3.05244298 9.54781435,2.57353265 8.41532489,2.57353265 C7.28283544,2.57353265 6.18747679,3.05244298 5.25920675,3.95392125 C5.24992405,3.96331165 5.24992405,3.96331165 5.24064135,3.97270204 L2.08452321,7.19360878 C0.896337553,8.3955798 0.218700422,9.86048199 0.0701772152,11.5601441 C-0.152607595,14.3021405 0.645704641,16.856329 1.25836287,18.5278199 C2.76216034,22.6314241 5.00857384,26.4345356 8.35962869,30.5099686 C12.4254515,35.4211471 17.3174346,39.2993817 22.9056203,42.0319877 C25.0406414,43.0555411 27.8904304,44.2669026 31.0743966,44.4734913 C31.2693333,44.4828817 31.4735527,44.4922721 31.6592068,44.4922721 C33.8035105,44.4922721 35.6043544,43.7128691 37.0153249,42.1634533 C37.0246076,42.1446725 37.043173,42.1352821 37.0524557,42.1165013 C37.5351561,41.5249062 38.0921181,40.9896534 38.6769283,40.4168391 C39.0760844,40.0318328 39.4845232,39.6280456 39.8836793,39.2054777 C40.8026667,38.2382666 41.2853671,37.1114188 41.2853671,35.9563998 C41.2853671,34.7919904 40.793384,33.6745329 39.8558312,32.7354931 L34.7596287,27.5613834 Z M38.0828354,37.4494732 C38.0735527,37.4494732 38.0735527,37.4588636 38.0828354,37.4494732 C37.7208101,37.8438699 37.3495021,38.2007051 36.950346,38.5951018 C36.3469705,39.1773065 35.7343122,39.7876824 35.1587848,40.4731815 C34.2212321,41.4873446 33.1165907,41.9662549 31.6684895,41.9662549 C31.5292489,41.9662549 31.3807257,41.9662549 31.2414852,41.9568645 C28.4845232,41.7784469 25.9224979,40.6891607 24.0009789,39.7595112 C18.7469705,37.186542 14.1334684,33.5336769 10.2997131,28.9042104 C7.13431224,25.0447566 5.01785654,21.4764051 3.61616878,17.6451225 C2.75287764,15.3069132 2.43726582,13.4851759 2.57650633,11.7667329 C2.66933333,10.6680563 3.08705485,9.7571876 3.85751899,8.97778452 L7.02291983,5.77565858 C7.47777215,5.34370024 7.96047257,5.10894028 8.4338903,5.10894028 C9.01870042,5.10894028 9.49211814,5.46577543 9.78916456,5.76626818 C9.79844726,5.77565858 9.80772996,5.78504898 9.81701266,5.79443938 C10.3832574,6.3296921 10.921654,6.88372562 11.4878987,7.47532073 C11.7756624,7.77581349 12.0727089,8.07630625 12.3697553,8.3861894 L14.9039325,10.9497682 C15.8878987,11.9451505 15.8878987,12.8654095 14.9039325,13.8607918 C14.6347342,14.1331134 14.3748186,14.4054349 14.1056203,14.6683661 C13.3258734,15.4759404 12.5832574,16.2271723 11.7756624,16.9596234 C11.757097,16.9784041 11.7385316,16.9877945 11.7292489,17.0065753 C10.9309367,17.8141496 11.0794599,18.6029431 11.2465485,19.1381958 C11.2558312,19.166367 11.2651139,19.1945382 11.2743966,19.2227094 C11.9334684,20.837858 12.8617384,22.3591026 14.2727089,24.1714495 L14.2819916,24.1808399 C16.8440169,27.3735754 19.5452827,29.8620311 22.5250295,31.768282 C22.9056203,32.0124324 23.2954937,32.2096307 23.6668017,32.3974387 C24.0009789,32.5664659 24.3165907,32.7261027 24.585789,32.8951298 C24.6229198,32.9139106 24.6600506,32.9420818 24.6971814,32.9608626 C25.0127932,33.1204994 25.3098397,33.1956226 25.6161688,33.1956226 C26.3866329,33.1956226 26.8693333,32.7073219 27.0271392,32.5476851 L30.2018228,29.3361687 C30.5174346,29.0168952 31.0187004,28.6318888 31.6035105,28.6318888 C32.179038,28.6318888 32.6524557,28.9981144 32.9402194,29.3173879 C32.9495021,29.3267783 32.9495021,29.3267783 32.9587848,29.3361687 L38.0735527,34.5102784 C39.0296709,35.4680991 39.0296709,36.4540909 38.0828354,37.4494732 Z" id="Shape"></path>
                            <path d="M23.7689114,10.5835427 C26.2009789,10.9967202 28.4102616,12.1611297 30.1739747,13.9453054 C31.9376878,15.7294811 33.0794599,17.964396 33.4971814,20.4246804 C33.5992911,21.0444468 34.1284051,21.4764051 34.7317806,21.4764051 C34.8060422,21.4764051 34.8710211,21.4670147 34.9452827,21.4576243 C35.6322025,21.3449395 36.0870549,20.6876116 35.9756624,19.9927221 C35.4743966,17.0159657 34.0819916,14.3021405 31.9562532,12.1517393 C29.8305148,10.001338 27.1478143,8.59277817 24.2051983,8.08569665 C23.5182785,7.97301186 22.8777722,8.43314139 22.757097,9.11864049 C22.6364219,9.80413959 23.0819916,10.4708579 23.7689114,10.5835427 Z" id="Path"></path>
                            <path d="M43.9309367,19.6264966 C43.1047764,14.7247085 40.8212321,10.2642691 37.3123713,6.71469845 C33.8035105,3.16512776 29.3942278,0.855089699 24.5486582,0.0193442212 C23.8710211,-0.102730961 23.2305148,0.366788971 23.1098397,1.05228807 C22.9984473,1.74717757 23.4532996,2.39511507 24.1402194,2.51719026 C28.4659578,3.25903175 32.4111055,5.33430985 35.5486582,8.49887418 C38.686211,11.6728289 40.7284051,15.6637483 41.4617384,20.0396741 C41.5638481,20.6594404 42.092962,21.0913987 42.6963376,21.0913987 C42.7705992,21.0913987 42.8355781,21.0820084 42.9098397,21.072618 C43.5874768,20.9693236 44.0516118,20.3119957 43.9309367,19.6264966 Z" id="Path"></path>
                        </g>
                    </g>
                </g>
            </g>
        </g>
    </g>
</svg>