<?xml version="1.0" encoding="UTF-8"?>
<svg width="39px" height="42px" viewBox="0 0 39 42" version="1.1" xmlns="http://www.w3.org/2000/svg" xmlns:xlink="http://www.w3.org/1999/xlink">
    <!-- Generator: sketchtool 57.1 (101010) - https://sketch.com -->
    <title>EA399DE8-87C9-4B71-97BF-53CCF4081463</title>
    <desc>Created with sketchtool.</desc>
    <g id="desktop" stroke="none" stroke-width="1" fill="none" fill-rule="evenodd">
        <g id="home-page" transform="translate(-744.000000, -2992.000000)" fill="#243842" fill-rule="nonzero">
            <g id="carrousel-projets" transform="translate(0.000000, 1860.000000)">
                <g id="points-forts" transform="translate(250.000000, 1083.000000)">
                    <g id="avantages" transform="translate(155.000000, 43.000000)">
                        <g id="avantage-3" transform="translate(339.000000, 6.000000)">
                            <g id="icone-kids-club">
                                <path d="M36.1728516,27.586853 C37.7307943,27.586853 38.9977213,26.3394013 38.9977213,24.8061219 C38.9977213,23.2728424 37.7304688,22.0253906 36.1728516,22.0253906 C35.9833984,22.0253906 35.7978516,22.0439758 35.6188151,22.0792236 L30.0097657,12.4774018 L31.9029948,12.4774018 C34.7796224,12.4774018 37.2356771,10.4541778 37.7428385,7.66703798 L37.9882813,6.31896973 C37.9882813,6.3183289 37.9882813,6.31768799 37.9886068,6.31736757 L37.9902343,6.30871582 C38.1197917,5.59542851 37.9641927,4.86932373 37.5615234,4.27331543 C37.5039063,4.18840029 37.4414063,4.10572813 37.3736979,4.02658085 C36.8339843,3.39115908 36.0416667,3.02682499 35.2001953,3.02682499 L28.9222005,3.02682499 C28.0804037,2.22093203 25.3509115,0 20.8326823,0 L18.1650391,0 C13.6468099,0 10.9173177,2.22093203 10.0755208,3.02682499 L3.99609375,3.02682499 C3.15494792,3.02682499 2.36263017,3.39115908 1.82259117,4.02658085 C1.28287758,4.66168213 1.05794267,5.49353027 1.20638017,6.30871582 L1.4534505,7.66703798 C1.960612,10.4541778 4.41666667,12.4774018 7.29329425,12.4774018 L8.98795575,12.4774018 L3.37923175,22.0792236 C3.19986983,22.0439758 3.01464842,22.0253906 2.82486983,22.0253906 C1.26725258,22.0253906 8.52651283e-14,23.2728424 8.52651283e-14,24.8061219 C8.52651283e-14,26.3394013 1.26725258,27.586853 2.82486983,27.586853 C4.382487,27.586853 5.64973958,26.3394013 5.64973958,24.8061219 C5.64973958,24.0505371 5.34179683,23.3651275 4.8434245,22.8636475 L10.6282552,12.9606171 C11.2659505,13.475235 12.2679037,14.1500702 13.625,14.6759033 L11.530599,24.722168 C11.3541667,24.7401123 11.1780599,24.7740783 11.0045573,24.8253479 C10.281901,25.0384369 9.68652342,25.5158844 9.3284505,26.1698914 C8.97037758,26.8235779 8.89257817,27.5756378 9.1090495,28.287323 C9.32584633,28.9986877 9.81087242,29.5844422 10.4749349,29.9369201 C10.8929037,30.1586609 11.3499349,30.2711334 11.8115234,30.2711334 C12.0839843,30.2711334 12.3577474,30.2320404 12.6259766,30.1528931 C14.1181641,29.7129364 14.9684245,28.15979 14.5211588,26.6912384 C14.3056641,25.9827576 13.8238933,25.3992462 13.164388,25.0464478 L15.2236328,15.1693726 C15.5403646,15.2437134 15.8694662,15.3084412 16.2135417,15.3600311 L17.3313802,20.1876983 L17.3313802,31.3987427 L15.4358724,31.3987427 C14.9759115,31.3987427 14.6025391,31.7659607 14.6025391,32.2190552 L14.6025391,35.1250763 L12.4332683,35.1250763 C12.1119792,33.0188599 10.2613933,31.3984223 8.03352867,31.3984223 L4.30696617,31.3984223 C3.84667967,31.3984223 3.47363283,31.7656402 3.47363283,32.2187348 L3.47363283,41.1796875 C3.47363283,41.632782 3.84667967,42 4.30696617,42 L7.66829425,42 C8.12825517,42 8.50162758,41.632782 8.50162758,41.1796875 C8.50162758,40.726593 8.12825517,40.359375 7.66829425,40.359375 L5.1402995,40.359375 L5.1402995,36.7657013 L34.6520183,36.7657013 L34.6520183,40.359375 L14.3330078,40.359375 C13.8730468,40.359375 13.4996745,40.726593 13.4996745,41.1796875 C13.4996745,41.632782 13.8730468,42 14.3330078,42 L35.4853516,42 C35.945638,42 36.3186849,41.632782 36.3186849,41.1796875 L36.3186849,32.2187348 C36.3186849,31.7656402 35.945638,31.3984223 35.4853516,31.3984223 L31.9287109,31.3984223 C31.9029948,31.3984223 31.8776042,31.399704 31.8522135,31.4000244 C31.8395183,31.399704 31.8268229,31.3984223 31.8138021,31.3984223 C31.7832032,31.3984223 31.7526042,31.4000244 31.7226563,31.4035492 C29.5524088,31.4977569 27.7675782,33.0726929 27.3860677,35.1250763 L24.3951823,35.1250763 L24.3951823,32.2190552 C24.3951823,31.7659607 24.0221354,31.3987427 23.561849,31.3987427 L21.6663412,31.3987427 L21.6663412,20.1876983 L22.7845052,15.3600311 C23.124349,15.309082 23.4498698,15.2449951 23.7633463,15.1716156 L25.8229167,25.0490112 C25.1634115,25.4021301 24.6816407,25.9856415 24.4661458,26.6938019 C24.249349,27.4054871 24.3271484,28.1572266 24.6852213,28.8112335 C25.0432943,29.46492 25.6383463,29.942688 26.3613282,30.155777 C26.6295573,30.2349243 26.9033203,30.2740174 27.1757813,30.2740174 C27.6373698,30.2740174 28.094401,30.1612244 28.5120443,29.9398041 C29.1764323,29.5873261 29.6614583,29.0015717 29.8779297,28.2898865 C30.0947266,27.5785217 30.0166016,26.8264618 29.6588542,26.1727753 C29.3007813,25.5187684 28.7057292,25.0413208 27.9827474,24.8282318 C27.8092448,24.7769623 27.633138,24.7429962 27.4567058,24.7247314 L25.3623047,14.6800689 C26.7249349,14.1532745 27.7301433,13.4768371 28.3694662,12.9606171 L34.1542968,22.8636475 C33.6559245,23.3651275 33.3479818,24.0508575 33.3479818,24.8061219 C33.3483073,26.3394013 34.6152343,27.586853 36.1728516,27.586853 Z M12.1474609,28.5811615 C11.851237,28.6683197 11.5380859,28.6372375 11.265625,28.4927216 C10.9934896,28.3482056 10.7942708,28.1078797 10.7057292,27.8162842 C10.616862,27.5243683 10.648763,27.2161103 10.7955729,26.9482269 C10.9423828,26.6800232 11.1865234,26.4842377 11.4827474,26.396759 C11.5927734,26.3643951 11.7050782,26.3483734 11.8167318,26.3483734 C12.0058593,26.3483734 12.1933593,26.394516 12.3645833,26.485199 C12.6370443,26.6297149 12.8359375,26.8700409 12.9248047,27.1616363 C13.1080729,27.7640533 12.7594401,28.4007568 12.1474609,28.5811615 Z M10.7356771,35.1250763 L8.81152342,35.1250763 L8.81152342,33.1486358 C9.75911458,33.4206848 10.4990234,34.1765899 10.7356771,35.1250763 Z M7.14485675,33.0390473 L7.14485675,35.1250763 L5.1402995,35.1250763 L5.1402995,33.0390473 L7.14485675,33.0390473 Z M34.6520183,35.1250763 L32.6471354,35.1250763 L32.6471354,33.0390473 L34.6520183,33.0390473 L34.6520183,35.1250763 Z M30.9807943,33.1934967 L30.9807943,35.1250763 L29.0963542,35.1250763 C29.3678385,34.2192078 30.0761718,33.4963074 30.9807943,33.1934967 Z M22.7285157,35.1250763 L16.2692058,35.1250763 L16.2692058,33.0393677 L22.7285157,33.0393677 L22.7285157,35.1250763 Z M28.1917318,26.9511108 C28.3382162,27.2189941 28.3704427,27.5272522 28.2815755,27.8191681 C28.1927083,28.111084 27.9938151,28.3510895 27.7213542,28.4956055 C27.4492188,28.6401215 27.1360677,28.671524 26.8395183,28.5840454 C26.5432943,28.4968872 26.2991537,28.3011017 26.1523438,28.0328979 C26.0055338,27.7646942 25.9736328,27.4564361 26.0625,27.1648407 C26.1513672,26.8729248 26.3502604,26.6325988 26.6223958,26.4884033 C26.7936198,26.3973999 26.9811198,26.3512573 27.1705729,26.3512573 C27.2822266,26.3512573 27.3945313,26.3672791 27.5042318,26.399643 C27.8007813,26.4871216 28.0445963,26.6829071 28.1917318,26.9511108 L28.1917318,26.9511108 Z M37.3313802,24.8061219 C37.3313802,25.4348145 36.8115234,25.946228 36.1731771,25.946228 C35.5345052,25.946228 35.014974,25.434494 35.014974,24.8061219 C35.014974,24.1774292 35.5345052,23.6660156 36.1731771,23.6660156 C36.8115234,23.6660156 37.3313802,24.1774292 37.3313802,24.8061219 Z M35.2001953,4.66744999 C35.8164063,4.66744999 36.3404948,5.16027832 36.366862,5.76686094 C36.367513,5.78480528 36.3662109,5.80307011 36.3662109,5.82133486 C36.3662109,5.84504698 36.366862,5.86875918 36.3652343,5.89247129 C36.3639323,5.91169737 36.3603516,5.93092344 36.3580729,5.95014952 C36.3554688,5.97290039 36.3538412,5.99565127 36.3496093,6.01808164 C36.1809896,6.79866026 35.1988933,7.48118593 34.2412109,7.48118593 C33.7884115,7.48118593 33.3932292,7.32737734 33.1572266,7.05885313 C32.9726563,6.84832764 32.898112,6.58044434 32.9423828,6.28115841 C32.9423828,6.28083799 32.9423828,6.28083799 32.9423828,6.28083799 L32.9453125,6.2612915 L33.0322266,5.65599062 C33.1132813,5.09234619 33.610026,4.66777041 34.188151,4.66777041 L35.2001953,4.66777041 L35.2001953,4.66744999 Z M31.0279948,5.06318663 C31.2532552,5.31857304 31.3505859,5.64317324 31.3024088,5.97802734 L31.2926433,6.04788204 C31.1774088,6.82461544 30.2926433,7.48118593 29.360026,7.48118593 C28.8948568,7.48118593 28.476888,7.319046 28.2135417,7.03578184 C28.069987,6.88165283 27.9059245,6.61793516 27.9397787,6.23565674 C27.9547526,6.06358339 27.969401,5.89150997 27.984375,5.71975704 C28.0361328,5.11990352 28.5361328,4.66744999 29.1474609,4.66744999 L30.1464843,4.66744999 C30.4899088,4.66744999 30.8030599,4.80812071 31.0279948,5.06318663 Z M12.9173177,6.09690859 L12.9013672,5.91362002 C12.8736979,5.58934023 12.9814453,5.27883907 13.2050782,5.03915409 C13.4287109,4.79946895 13.7340495,4.66744999 14.0647787,4.66744999 L15.0826823,4.66744999 C15.7190755,4.66744999 16.2317708,5.15803526 16.2496745,5.78448486 L16.2613933,6.19015507 C16.2727865,6.57948301 16.0849609,6.8540955 15.9251302,7.01591494 C15.6334635,7.31167598 15.1930338,7.48118593 14.7171224,7.48118593 C13.7926433,7.48118593 12.9853516,6.85954287 12.9173177,6.09690859 Z M17.9274088,6.14305117 L17.9267578,6.12286377 L17.9189453,5.84921269 C17.9101563,5.53646855 18.0270183,5.24038692 18.2486979,5.01576231 C18.4707032,4.7911377 18.7679037,4.66744999 19.0859375,4.66744999 L20.1103516,4.66744999 C20.4283854,4.66744999 20.7259115,4.7911377 20.9472657,5.01576231 C21.1689453,5.24038692 21.2861328,5.53614805 21.2773438,5.84889219 L21.2688802,6.14241026 C21.2470703,6.88069151 20.4973958,7.48118593 19.5979818,7.48118593 C18.6985677,7.48118593 17.9492188,6.88069151 17.9274088,6.14305117 Z M22.9433593,5.89567568 C22.9433593,5.89535527 22.9433593,5.89503477 22.9433593,5.89471436 L22.9466146,5.78448486 C22.9645183,5.15803526 23.4772135,4.66744999 24.1136068,4.66744999 L25.1315104,4.66744999 C25.4622396,4.66744999 25.7675782,4.79946895 25.9912109,5.03915409 C26.2148438,5.27883907 26.3225912,5.58934023 26.2949218,5.9132996 L26.2792968,6.09466553 C26.211263,6.85922245 25.4036458,7.48118593 24.4791667,7.48118593 C24.0032552,7.48118593 23.5628255,7.31167598 23.2708333,7.01591494 C23.1113282,6.8540955 22.9231771,6.5791626 22.9348958,6.18951416 L22.9433593,5.89567568 Z M12.875651,3.00471495 C14.4550782,2.0994873 16.2347005,1.640625 18.1650391,1.640625 L20.8326823,1.640625 C22.7630208,1.640625 24.5426433,2.0994873 26.1223958,3.00471495 C26.1350912,3.01208496 26.1477865,3.01945498 26.1604818,3.02682499 L12.8372396,3.02682499 C12.8499349,3.01945498 12.8629558,3.01208496 12.875651,3.00471495 Z M10.0488282,4.66744999 C10.6601563,4.66744999 11.1604818,5.11990352 11.2119141,5.71975704 L11.2405599,6.05236816 L11.2405599,6.05300899 L11.2565104,6.2375793 C11.2903646,6.61793516 11.1263021,6.88165283 10.9827474,7.03578184 C10.719401,7.319046 10.3011068,7.48118593 9.8359375,7.48118593 C8.90397133,7.48118593 8.01920575,6.82493593 7.90429683,6.05140684 L7.89388017,5.97738652 C7.84570317,5.64285274 7.94335933,5.31825254 8.16829425,5.06318663 C8.39355467,4.80812071 8.70638017,4.66744999 9.04980467,4.66744999 L10.0488282,4.66744999 Z M5.0084635,4.66744999 C5.586263,4.66744999 6.08333333,5.09234619 6.164388,5.65599062 L6.25455733,6.28468321 C6.29850258,6.58076475 6.22395833,6.84832764 6.0390625,7.05885313 C5.80338542,7.32737734 5.40820317,7.48118593 4.95540367,7.48118593 C3.99902342,7.48118593 3.01757817,6.79545595 2.84830733,6.01135254 C2.79003908,5.678421 2.8828125,5.33940127 3.10319008,5.07984922 C3.32552083,4.81773379 3.65201825,4.66744999 3.99869792,4.66744999 L5.0084635,4.66744999 Z M3.710612,8.9196167 C4.10677083,9.04971309 4.52701825,9.12181093 4.95507817,9.12181093 C5.88574217,9.12181093 6.734375,8.76580811 7.28743492,8.14512636 C7.95214842,8.74626162 8.86393233,9.12181093 9.836263,9.12181093 C10.7666016,9.12181093 11.6315104,8.76612852 12.2099609,8.14576719 C12.8463542,8.74722286 13.7405599,9.12181093 14.7171224,9.12181093 C15.6409505,9.12181093 16.5169271,8.77093506 17.1207683,8.15890507 C17.1246745,8.15505977 17.1279297,8.15121464 17.1315104,8.14768984 C17.7402343,8.74850468 18.617513,9.12181093 19.5983073,9.12181093 C20.5791016,9.12181093 21.4560547,8.74850468 22.0647787,8.14768984 C22.0686849,8.15121464 22.0719401,8.15505977 22.0755208,8.15890507 C22.679362,8.77093506 23.5556641,9.12181093 24.4791667,9.12181093 C25.4557292,9.12181093 26.3496093,8.74722286 26.9863282,8.14576719 C27.5644532,8.76612852 28.4296875,9.12181093 29.3603516,9.12181093 C30.3323568,9.12181093 31.2441407,8.74626162 31.9085287,8.14480587 C32.4615885,8.76580811 33.3105468,9.12181093 34.2412109,9.12181093 C34.6689453,9.12181093 35.0888672,9.05003359 35.485026,8.92057802 C34.7184245,10.0859985 33.3886718,10.8367768 31.9029948,10.8367768 L7.29329425,10.8367768 C5.80696617,10.8367768 4.4772135,10.0856781 3.710612,8.9196167 Z M2.82486983,25.946228 C2.18619792,25.946228 1.66666667,25.434494 1.66666667,24.8061219 C1.66666667,24.1774292 2.18619792,23.6660156 2.82486983,23.6660156 C3.46354167,23.6660156 3.98307292,24.1774292 3.98307292,24.8061219 C3.98307292,25.434494 3.46354167,25.946228 2.82486983,25.946228 Z M18.9980468,20.9154053 L19.9996745,20.9154053 L19.9996745,31.3984223 L18.9980468,31.3984223 L18.9980468,20.9154053 Z M21.0419922,15.5023041 L20.1682943,19.2747803 L18.8294271,19.2747803 L17.9557292,15.5023041 C18.0126953,15.5032654 18.069987,15.5032654 18.1269532,15.5035858 C18.139974,15.5035858 18.1523438,15.5042267 18.1650391,15.5042267 L20.8326823,15.5042267 C20.8457032,15.5042267 20.8580729,15.5035858 20.8707683,15.5035858 C20.9280599,15.5032654 20.985026,15.5032654 21.0419922,15.5023041 Z M26.1220703,12.4995117 C25.5022787,12.8548736 24.8509115,13.1403809 24.172526,13.357315 C24.1565755,13.3618012 24.140625,13.3666076 24.1253255,13.3720551 C23.4498698,13.5845031 22.7470703,13.7283783 22.0198568,13.8027191 C21.3704427,13.8655243 20.7226563,13.8632912 20.0712891,13.8632912 C19.4749349,13.8632912 18.8785808,13.8632912 18.2822266,13.8632912 C17.8463542,13.8632912 17.4117838,13.8446961 16.9778646,13.8027191 C16.2441407,13.7277374 15.5351563,13.5819397 14.8538412,13.3662872 C14.8434245,13.3627625 14.8326823,13.3592377 14.8219401,13.3563537 C14.1445313,13.1394195 13.4944662,12.8542328 12.875651,12.4995117 C12.8629558,12.4921417 12.8499349,12.4847717 12.8372396,12.4774018 L26.1604818,12.4774018 C26.1477865,12.4847717 26.1350912,12.4921417 26.1220703,12.4995117 Z" id="Shape"></path>
                                <path d="M11.8024088,40.8656616 C11.6660157,40.5436249 11.327474,40.3366241 10.9733073,40.3619385 C10.6279297,40.3866119 10.3271484,40.6269379 10.2317708,40.9547424 C10.1363932,41.2835083 10.2643229,41.6478424 10.5478516,41.8461914 C10.828776,42.0426178 11.2083333,42.0483856 11.4954427,41.8612519 C11.8242188,41.647522 11.9508463,41.2219849 11.8024088,40.8656616 Z" id="Path"></path>
                            </g>
                        </g>
                    </g>
                </g>
            </g>
        </g>
    </g>
</svg>