<?xml version="1.0" encoding="UTF-8"?>
<svg width="260px" height="62px" viewBox="0 0 260 62" version="1.1" xmlns="http://www.w3.org/2000/svg" xmlns:xlink="http://www.w3.org/1999/xlink">
    <!-- Generator: sketchtool 57.1 (101010) - https://sketch.com -->
    <title>4854535E-7652-492D-8BA9-781B95D77BF3</title>
    <desc>Created with sketchtool.</desc>
    <g id="desktop" stroke="none" stroke-width="1" fill="none" fill-rule="evenodd">
        <g id="home-page" transform="translate(-590.000000, -20.000000)" fill="#F6E09E" fill-rule="nonzero">
            <g id="top-menu">
                <g id="logo-nexthouse">
                    <g transform="translate(590.000000, 20.000000)">
                        <path d="M0,0 L0,61.4545455 L22.3033175,58.5084016 L22.3033175,12.6359328 L7.70702283,7.42697113 L56.0887548,7.42697113 L41.5372684,12.3894873 L41.5372684,58.5084016 L63.7957777,61.4545455 L63.7957777,0 L22.3033175,0 L0,0 Z M17.7888841,36.1938819 L19.7044377,36.1938819 L19.7044377,38.0422232 L17.7888841,38.0422232 L17.7888841,36.1938819 L17.7888841,36.1938819 Z M46.0517019,38.0422232 L44.1361482,38.0422232 L44.1361482,36.1938819 L46.0517019,36.1938819 L46.0517019,38.0422232 Z" id="Shape"></path>
                        <g id="Group" transform="translate(71.133132, 17.251185)">
                            <polygon id="Path" points="15.4924601 2.84532529 22.9642396 15.133994 24.1068505 15.133994 24.1068505 1.54588539 25.7535545 1.54588539 25.7535545 0.34726411 21.0486859 0.34726411 21.0486859 1.54588539 22.7177941 1.54588539 22.7177941 9.42093925 17.1839724 0.34726411 12.4342956 0.34726411 12.4342956 1.54588539 14.1034037 1.54588539 14.1034037 13.6329168 12.4342956 13.6329168 12.4342956 14.8203361 17.1391642 14.8203361 17.1391642 13.6329168 15.4924601 13.6329168"></polygon>
                            <path d="M42.9935373,10.2610944 L41.7277036,10.2610944 L41.6716932,10.5635502 C41.1563981,13.3528651 40.4618699,13.6441189 37.7173632,13.6441189 L35.4993537,13.6441189 L35.4993537,8.00947867 C37.3028867,8.05428695 37.7957777,8.39034899 37.8965963,10.1602757 L37.9190004,10.4963378 L39.1176217,10.4963378 L39.1176217,4.55924171 L37.9526066,4.55924171 L37.9077984,4.87289961 C37.6613529,6.65402844 37.3028867,6.75484705 35.5105558,6.76604912 L35.5105558,1.55708746 L37.9190004,1.55708746 C39.7897458,1.55708746 40.8651443,1.96036191 41.1788022,4.13356312 L41.2236105,4.44722103 L42.3886256,4.44722103 L42.3886256,0.369668246 L30.7944851,0.369668246 L30.7944851,1.55708746 L32.6764326,1.55708746 L32.6764326,13.6441189 L30.7944851,13.6441189 L30.7944851,14.8315381 L42.6574752,14.8315381 L42.9935373,10.2610944 Z" id="Path"></path>
                            <polygon id="Path" points="55.6630763 14.8203361 61.9474364 14.8203361 61.9474364 13.6329168 60.3567428 13.6329168 56.111159 6.62042223 59.2813442 1.54588539 61.1632917 1.54588539 61.1632917 0.34726411 56.1783714 0.34726411 56.1783714 1.54588539 57.6458423 1.54588539 55.2710039 5.32098234 52.9073675 1.54588539 54.2068074 1.54588539 54.2068074 0.34726411 47.9448514 0.34726411 47.9448514 1.54588539 49.6027574 1.54588539 53.4450668 7.95346833 49.9052133 13.6329168 47.9448514 13.6329168 47.9448514 14.8203361 53.0978027 14.8203361 53.0978027 13.6329168 51.5183111 13.6329168 54.2852219 9.15208962 57.0857389 13.6329168 55.6630763 13.6329168"></polygon>
                            <path d="M67.6044808,4.54803964 C68.0189573,2.46445498 68.2654028,1.54588539 69.8560965,1.54588539 L70.931495,1.54588539 L70.931495,13.6329168 L69.1503662,13.6329168 L69.1503662,14.8203361 L75.5131409,14.8203361 L75.5131409,13.6329168 L73.7432141,13.6329168 L73.7432141,1.54588539 L74.3033175,1.54588539 C75.9948298,1.54588539 76.8349849,2.49806118 77.1038346,4.72727273 L77.1374408,5.0521327 L78.4144765,5.0521327 L78.2352434,0.358466178 L66.5178802,0.358466178 L66.2266265,5.0521327 L67.4924601,5.0521327 L67.6044808,4.54803964 Z" id="Path"></path>
                            <polygon id="Path" points="98.8694528 13.6329168 97.2115467 13.6329168 97.2115467 8.02068074 102.622146 8.02068074 102.622146 13.6329168 100.953037 13.6329168 100.953037 14.8203361 107.102973 14.8203361 107.102973 13.6329168 105.433865 13.6329168 105.433865 1.54588539 107.102973 1.54588539 107.102973 0.34726411 100.953037 0.34726411 100.953037 1.54588539 102.622146 1.54588539 102.622146 6.71003878 97.2115467 6.71003878 97.2115467 1.54588539 98.8694528 1.54588539 98.8694528 0.34726411 92.7195174 0.34726411 92.7195174 1.54588539 94.3886256 1.54588539 94.3886256 13.6329168 92.7195174 13.6329168 92.7195174 14.8203361 98.8694528 14.8203361"></polygon>
                            <path d="M119.021973,0.0448082723 C115.000431,0.0448082723 112.513572,3.94312796 112.513572,7.57259802 C112.513572,11.2132701 115.000431,15.133994 119.021973,15.133994 C123.043516,15.133994 125.530375,11.2020681 125.530375,7.57259802 C125.530375,3.94312796 123.043516,0.0448082723 119.021973,0.0448082723 Z M119.021973,13.9353727 C116.635933,13.9353727 115.694959,12.1542439 115.694959,7.58380009 C115.694959,2.95734597 116.591125,1.23222749 119.021973,1.23222749 C121.452822,1.23222749 122.348988,2.95734597 122.348988,7.58380009 C122.348988,12.1542439 121.419216,13.9353727 119.021973,13.9353727 Z" id="Shape"></path>
                            <path d="M132.509263,11.0004308 C132.509263,13.5096941 134.436019,15.133994 137.415769,15.133994 C140.8324,15.133994 142.490306,13.4536838 142.490306,9.99224472 L142.490306,1.53468333 L144.13701,1.53468333 L144.13701,0.336062042 L139.521758,0.336062042 L139.521758,1.53468333 L141.168462,1.53468333 L141.168462,9.35372684 C141.168462,12.1878501 140.653167,13.7225334 137.931064,13.7225334 C135.444205,13.7225334 135.332184,11.4149074 135.332184,11.3925032 L135.332184,1.53468333 L137.001293,1.53468333 L137.001293,0.336062042 L130.873761,0.336062042 L130.873761,1.53468333 L132.520465,1.53468333 L132.509263,11.0004308 L132.509263,11.0004308 Z" id="Path"></path>
                            <path d="M151.048686,14.1146058 C151.877639,14.7867299 152.997846,15.133994 154.308488,15.133994 C157.35545,15.133994 159.315812,13.1960362 159.315812,10.1938819 C159.315812,6.77725118 156.504093,6.02671262 154.252477,5.42180095 C152.37053,4.91770788 151.216717,4.54803964 151.216717,3.38302456 C151.216717,2.04997846 152.594571,1.23222749 153.882809,1.23222749 C155.462301,1.23222749 156.683326,2.27401982 157.153813,4.01034037 L157.232227,4.27919 L158.318828,4.27919 L158.318828,0.34726411 L157.523481,0.34726411 L156.817751,0.862559242 C156.201637,0.515295131 154.96941,0.0336062042 154.039638,0.0336062042 C152.112882,0.0336062042 151.01508,0.907367514 150.432572,1.63550194 C149.77165,2.46445498 149.480396,3.25980181 149.480396,4.20077553 C149.480396,5.66824645 150.174925,6.93408014 151.384748,7.65101249 C151.597587,7.79663938 152.504955,8.11029729 154.465317,8.74881517 C155.08143,8.95045239 155.61913,9.12968548 155.876777,9.23050409 C157.445067,9.83541577 157.590694,10.2834985 157.590694,11.3028867 C157.590694,12.9495907 155.955192,13.9241706 154.3757,13.9241706 C152.628178,13.9241706 151.183111,12.7591555 150.611805,10.866006 L150.533391,10.6083585 L149.480396,10.6083585 L149.480396,14.8651443 L150.309349,14.8651443 L151.048686,14.1146058 Z" id="Path"></path>
                            <path d="M176.410168,10.2498923 L175.133132,10.2498923 L175.077122,10.5411461 C174.561827,13.330461 173.867299,13.6217148 171.122792,13.6217148 L168.904782,13.6217148 L168.904782,7.98707454 C170.708315,8.03188281 171.201206,8.36794485 171.302025,10.1378716 L171.324429,10.4739336 L172.511848,10.4739336 L172.511848,4.54803964 L171.346833,4.54803964 L171.302025,4.86169754 C171.055579,6.6316243 170.708315,6.74364498 168.89358,6.75484705 L168.89358,1.54588539 L171.302025,1.54588539 C173.17277,1.54588539 174.248169,1.94915984 174.573029,4.12236105 L174.617837,4.43601896 L175.782852,4.43601896 L175.782852,0.358466178 L164.199914,0.358466178 L164.199914,1.55708746 L166.081861,1.55708746 L166.081861,13.6441189 L164.199914,13.6441189 L164.199914,14.8427402 L176.062904,14.8427402 L176.410168,10.2498923 Z" id="Path"></path>
                            <polygon id="Path" points="188.642826 7.85264972 188.642826 7.67341663 178.348126 7.67341663 178.348126 8.03188281 188.452391 8.03188281 188.452391 26.5376993 170.316243 26.5376993 170.316243 26.9073675 188.642826 26.9073675 188.642826 26.8401551 188.822059 26.8401551 188.822059 7.85264972"></polygon>
                            <polygon id="Path" points="171.212408 26.9073675 171.212408 26.5489013 0.392072383 26.5489013 0.392072383 7.91986213 10.4963378 7.91986213 10.4963378 7.56139595 0.201637225 7.56139595 0.201637225 7.74062904 0.0224041361 7.74062904 0.0224041361 26.7281344 0.201637225 26.7281344 0.201637225 26.9073675"></polygon>
                        </g>
                    </g>
                </g>
            </g>
        </g>
    </g>
</svg>