<?xml version="1.0" encoding="UTF-8"?>
<svg width="225px" height="56px" viewBox="0 0 225 56" version="1.1" xmlns="http://www.w3.org/2000/svg" xmlns:xlink="http://www.w3.org/1999/xlink">
    <!-- Generator: sketchtool 57.1 (101010) - https://sketch.com -->
    <title>623BEB1A-8AA1-49F0-BA3D-070F86CCF99D</title>
    <desc>Created with sketchtool.</desc>
    <g id="desktop" stroke="none" stroke-width="1" fill="none" fill-rule="evenodd">
        <g id="home-page" transform="translate(-819.000000, -970.000000)" fill="#F1DB9C" fill-rule="nonzero">
            <g id="acces-direct-projets" transform="translate(75.000000, 860.000000)">
                <g id="projet-3" transform="translate(696.000000, 0.000000)">
                    <g id="logo-nexthouse-darbouazza" transform="translate(48.000000, 110.000000)">
                        <path d="M57.199274,0 C55.2773866,0 53.3544828,0.00101633394 51.4325953,0.00101633394 C34.3327768,0.00203266788 17.2349909,0.00203266788 0.136188748,0.00304900181 C0.127041742,0.163629764 0.110780399,0.32522686 0.110780399,0.485807623 C0.109764065,18.4576407 0.109764065,36.43049 0.111796733,54.4033394 C0.111796733,54.5801815 0.0599637024,54.7671869 0.189038113,54.9552087 C2.32232305,54.6757169 4.46577132,54.396225 6.60820327,54.1136842 C8.91324864,53.8098004 11.2172777,53.5028675 13.5213067,53.1979673 C15.5255172,52.9327042 17.5297278,52.6725227 19.532922,52.4011615 C20.0766606,52.3279855 20.077677,52.3137568 20.077677,51.7923775 C20.077677,38.4550272 20.0786933,25.117677 20.0756443,11.7803267 C20.0756443,11.126824 20.1549183,11.2619964 19.5319056,11.0394192 C15.6942287,9.66533575 11.8555354,8.29430127 8.01785844,6.91920145 C7.80442831,6.84196007 7.55949183,6.81147005 7.36130672,6.6092196 C9.16936479,6.48014519 49.4842831,6.53807623 49.9406171,6.67324864 C49.812559,6.723049 49.7027949,6.77183303 49.5889655,6.81045372 C45.7136842,8.13575318 41.8373866,9.46105263 37.9610889,10.7863521 C37.2923412,11.0150272 37.2923412,11.0150272 37.2923412,11.741706 L37.2923412,51.4508893 C37.2923412,52.3493285 37.2933575,52.3422142 38.1613067,52.4540109 C41.0690381,52.8300544 43.9747368,53.2081307 46.8804356,53.5923049 C49.7861343,53.9764791 52.688784,54.377931 55.5965154,54.7529583 C56.1250091,54.8210526 56.6524864,54.9663884 57.2297641,54.9054083 C57.2297641,54.6584392 57.2297641,54.4378947 57.2297641,54.2173503 C57.2297641,36.366461 57.2297641,18.5155717 57.2287477,0.664682396 C57.2297641,0.442105263 57.2104537,0.221560799 57.199274,0 Z M16.8904537,32.3356806 C17.7370599,32.3356806 17.7370599,32.3356806 17.7370599,33.1416334 C17.7370599,33.9943376 17.7370599,33.9943376 16.8802904,33.9943376 C16.0336842,33.9943376 16.0336842,33.9943376 16.0336842,33.1914338 C16.0336842,32.3356806 16.0336842,32.3356806 16.8904537,32.3356806 Z M40.4978584,33.9943376 C39.6492196,33.9943376 39.6492196,33.9943376 39.6492196,33.1294374 C39.6492196,32.3356806 39.6492196,32.3356806 40.4511071,32.3356806 C41.3271869,32.3356806 41.3271869,32.3356806 41.3271869,33.1741561 C41.3271869,33.9943376 41.3271869,33.9943376 40.4978584,33.9943376 Z" id="Shape"></path>
                        <path d="M202.377495,16.0021779 C202.618367,13.926824 201.822577,12.5059891 199.942359,11.6614156 C199.721815,11.5618149 199.499238,11.4601815 199.26853,11.3900544 C198.534737,11.1684936 197.795862,10.9621779 197.060036,10.7487477 C196.574229,10.6084936 196.09147,10.4611252 195.654446,10.1989111 C195.181851,9.9153539 194.926751,9.513902 194.980617,8.94272232 C195.048711,8.2262069 195.469474,7.76580762 196.070127,7.44362976 C197.43608,6.71085299 199.078475,7.18039927 199.925082,8.53923775 C200.140544,8.88479129 200.298076,9.25676951 200.400726,9.64907441 C200.450526,9.84014519 200.547078,9.91941924 200.740181,9.89909256 C200.819456,9.88994555 200.901779,9.89807623 200.983085,9.89807623 C201.479056,9.89604356 201.484138,9.89604356 201.486171,9.41633394 C201.48922,8.54635209 201.48922,7.67637024 201.486171,6.80638838 C201.484138,6.2799274 201.347949,6.16914701 200.834701,6.28907441 C200.721887,6.31549909 200.596878,6.37241379 200.519637,6.45575318 C200.228966,6.76980036 199.953539,6.68137931 199.609002,6.52079855 C198.577423,6.0400726 197.501125,5.85408348 196.364864,6.12646098 C194.703158,6.52486388 193.433757,7.98838475 193.353466,9.65618875 C193.269111,11.4225771 194.30882,12.886098 195.901416,13.3464973 C196.947223,13.6493648 197.968639,14.0355717 199.000218,14.3862069 C199.363049,14.5101996 199.714701,14.6606171 200.049074,14.8527042 C200.463739,15.0905263 200.698512,15.4340472 200.770672,15.9096915 C200.923122,16.9097641 200.470853,17.8021053 199.524646,18.3305989 C197.950345,19.2097278 196.027441,18.7320508 194.977568,17.2024682 C194.724501,16.8325227 194.526316,16.4331034 194.404356,16.0052269 C194.342359,15.7887477 194.241742,15.6993103 194.025263,15.7186207 C193.924646,15.7277677 193.821996,15.7298004 193.722396,15.7176044 C193.419528,15.6810163 193.284356,15.7755354 193.30265,16.1129583 C193.331107,16.6373866 193.309764,17.1648639 193.309764,17.6913249 C193.309764,18.2381125 193.318911,18.7849002 193.305699,19.3306715 C193.299601,19.5735753 193.40225,19.6203267 193.623811,19.648784 C194.019165,19.6975681 194.274265,19.517677 194.510054,19.2442831 C194.65539,19.076588 194.782432,18.9363339 195.058875,19.1182577 C196.280508,19.9181125 197.6302,20.0217786 199.022577,19.7402541 C200.914991,19.3570962 202.14882,17.9667514 202.377495,16.0021779 Z" id="Path"></path>
                        <path d="M224.277459,29.7328494 C224.279722,24.8961162 224.278475,17.1455535 224.278475,12.3098367 C224.278475,11.5526679 224.341488,11.5709619 223.565009,11.5729946 C221.663448,11.5790926 219.761887,11.5851906 217.861343,11.5902722 C217.854229,11.8524864 217.862359,12.1167332 217.837967,12.377931 C217.807477,12.6960436 217.928421,12.7925953 218.248566,12.7875136 C219.542359,12.7702359 220.837169,12.7803993 222.131978,12.7803993 C222.353539,12.7803993 222.577132,12.7834483 222.798693,12.7824319 C222.946062,12.7824319 223.020254,12.852559 223.019238,13.0009437 C223.019238,13.0822505 223.02127,13.1625408 223.02127,13.2438475 C223.020254,17.5957895 223.020254,21.8196733 223.019238,26.1716152 C223.019238,26.2315789 223.008058,29.2063884 223.000944,29.2734664 C222.76922,29.3791652 222.523267,29.3263158 222.285445,29.3263158 C209.60363,29.3293648 214.101924,29.3293648 201.420109,29.3293648 C200.667005,29.3293648 200.665989,29.3293648 200.673103,30.1078766 C200.67412,30.249147 200.691397,30.3894011 200.700544,30.5296552 C214.01147,30.5296552 210.142287,30.5306715 223.453212,30.5286388 C224.364864,30.5286388 224.277459,30.6394192 224.277459,29.7328494 Z" id="Path"></path>
                        <path d="M84.8638838,29.3293648 C72.182069,29.3293648 76.680363,29.3293648 63.9985481,29.3263158 C63.760726,29.3263158 63.5157895,29.3791652 63.2840653,29.2734664 C63.276951,29.2053721 63.2657713,26.2315789 63.2657713,26.1716152 C63.264755,21.8623593 63.2637387,17.5531034 63.2637387,13.2438475 C63.2637387,13.1625408 63.2667877,13.0822505 63.2657713,13.0009437 C63.264755,12.852559 63.337931,12.7824319 63.4852995,12.7824319 C63.7078766,12.7824319 63.9304537,12.7803993 64.1530309,12.7803993 C65.4478403,12.7803993 66.7426497,12.7702359 68.0364428,12.7875136 C68.356588,12.7915789 68.4775318,12.6960436 68.4470417,12.377931 C68.4226497,12.1167332 68.4297641,11.8535027 68.4236661,11.5902722 C66.5231216,11.5851906 64.6215608,11.5790926 62.72,11.5729946 C61.9435209,11.5699456 62.0065336,11.5526679 62.0065336,12.3098367 C62.0052872,17.1465699 62.0052872,24.8971325 62.0075499,29.7328494 C62.0075499,30.6394192 61.9201452,30.5276225 62.8317967,30.5276225 C76.1427223,30.5296552 72.273539,30.5286388 85.5844646,30.5286388 C85.5936116,30.3883848 85.6108893,30.2481307 85.6119056,30.1068603 C85.6180036,29.3293648 85.6169873,29.3293648 84.8638838,29.3293648 Z" id="Path"></path>
                        <path d="M67.827078,7.39586207 C68.1106352,7.3846824 68.3952087,7.41110708 68.6767332,7.38874773 C69.0090744,7.36232305 69.1107078,7.5107078 69.0731034,7.81560799 C69.0588748,7.93451906 69.0700544,8.05749546 69.0700544,8.17945554 L69.0700544,17.6486388 C69.0700544,18.486098 69.0700544,18.48 68.2447913,18.4881307 C67.4408711,18.4972777 67.5364065,18.3356806 67.5191289,19.2412341 C67.5140472,19.4953176 67.5892559,19.612196 67.8606171,19.596951 C68.1838113,19.5796733 68.5080218,19.5928857 68.8322323,19.5928857 C69.7225408,19.5928857 70.611833,19.5949183 71.5021416,19.5898367 C71.631216,19.5888203 71.8283848,19.6508167 71.8517604,19.4556806 C71.8873321,19.1599274 71.9666062,18.8255535 71.8172051,18.5694374 C71.7023593,18.3732849 71.4055898,18.5145554 71.1911434,18.4881307 C71.0915426,18.4759347 70.9888929,18.4871143 70.8882759,18.486098 C70.3638475,18.48 70.3587659,18.48 70.3587659,17.953539 C70.3567332,15.0397096 70.3577495,12.1258802 70.3597822,9.21205082 C70.3607985,9.08602541 70.3140472,8.93865699 70.4756443,8.80856624 C70.593539,9.00065336 70.6961887,9.16834846 70.7978221,9.33502722 C72.8569147,12.7194192 74.9149909,16.1027949 76.9771325,19.4851543 C77.0665699,19.6325227 77.1102722,19.8510345 77.334882,19.8571325 C77.6164065,19.8642468 77.8989474,19.8550998 78.1804719,19.8317241 C78.2627949,19.8246098 78.2739746,19.7148457 78.2739746,19.633539 C78.2749909,19.4922686 78.2760073,19.3499819 78.2760073,19.2087114 C78.2760073,15.5468603 78.2760073,11.8839927 78.2760073,8.22214156 C78.2760073,7.3938294 78.2760073,7.39891107 79.1124501,7.39179673 C79.8716515,7.3846824 79.7720508,7.50257713 79.7771325,6.70983666 C79.7801815,6.26976407 79.7700181,6.26569873 79.2974229,6.2646824 C78.2048639,6.26163339 77.1123049,6.26264973 76.0197459,6.26366606 C75.4007985,6.2646824 75.4353539,6.19658802 75.4343376,6.85517241 C75.4343376,6.93647913 75.4394192,7.01778584 75.4343376,7.09807623 C75.4211252,7.30134301 75.5125953,7.39484574 75.7168784,7.39281307 C75.9994192,7.38976407 76.2839927,7.40805808 76.5655172,7.38874773 C76.8744828,7.36740472 76.9862795,7.46903811 76.9832305,7.79629764 C76.9700181,9.98141561 76.9761162,12.1665336 76.9761162,14.3506352 C76.9425771,14.3618149 76.9100544,14.3740109 76.8775318,14.3862069 C76.7708167,14.2215608 76.6610526,14.0589474 76.5584029,13.8912523 C75.0958984,11.4927042 73.6293285,9.09720508 72.1800363,6.69052632 C71.9920145,6.37749546 71.7907804,6.24435572 71.4177858,6.25350272 C70.3668966,6.2799274 69.3139746,6.26264973 68.262069,6.26264973 C67.4723775,6.26264973 67.4815245,6.26264973 67.5201452,7.06555354 C67.5282759,7.29219601 67.5862069,7.40500907 67.827078,7.39586207 Z" id="Path"></path>
                        <path d="M112.073176,29.4249002 C112.421779,28.4095826 112.549837,27.3658076 112.33539,26.2996733 C112.048784,24.8768058 111.009074,24.1125227 109.805735,23.5698004 C107.890962,22.7069328 105.853212,22.2770236 103.757532,22.2688929 C101.930163,22.2617786 100.101779,22.381706 98.2744102,22.4589474 C97.8018149,22.4782577 97.5619601,22.3125953 97.4501633,21.8257713 C97.3780036,21.5127405 97.1188385,21.2423956 96.944029,20.9527405 C96.800726,20.9527405 96.6564065,20.9527405 96.5131034,20.9527405 C96.3667514,21.0381125 96.2295463,21.1488929 96.0720145,21.203775 C95.6400726,21.3552087 95.3931034,21.6357169 95.3239927,22.0940835 C95.2406534,22.6500181 94.8717241,22.9559347 94.3737205,23.1581851 C92.9894737,23.7212341 91.803412,24.5800363 90.8033394,25.6797096 C90.5167332,25.9957895 90.2565517,26.4145191 90.1793103,26.8230853 C90.0532849,27.4806534 90.6153176,27.8373866 91.2017423,27.5121597 C91.5096915,27.3414156 91.7688566,27.0812341 92.0463158,26.8566243 C92.6540835,26.3677677 93.2588022,25.8748457 93.9204356,25.3392377 C94.2365154,25.9927405 94.5251543,26.4358621 94.2792015,27.1208711 C93.3634846,29.676951 92.4863884,32.2492922 91.6794192,34.8419601 C91.1834483,36.4355717 90.0969873,37.477314 88.8062432,38.3889655 C88.6456624,38.5027949 88.4810163,38.6105263 88.3285662,38.7345191 C87.8732486,39.1064973 87.6588022,39.5394555 87.880363,40.1492559 C87.965735,40.384029 87.947441,40.6848639 87.8884936,40.9358984 C87.7787296,41.400363 87.6039201,41.8495826 87.4565517,42.3049002 C87.4565517,42.4126316 87.4565517,42.520363 87.4565517,42.6280944 C87.7207985,43.7267514 88.403775,44.4900181 89.3804719,45.0103811 C89.8134301,45.2410889 89.9313249,45.1618149 90.0400726,44.7044646 C90.1041016,44.4331034 90.2372414,44.1769873 90.3581851,43.9229038 C90.4953902,43.6352813 90.6945917,43.3700181 90.796225,43.071216 C91.3460617,41.446098 91.8532123,39.8047187 92.424392,38.1877314 C92.5585481,37.8086388 92.8207623,37.4132849 93.1358258,37.1703811 C94.1145554,36.418294 95.1532486,35.7454809 96.1543376,35.0228675 C96.5944102,34.704755 96.9999274,34.3378584 97.4837024,33.9425045 C96.9958621,33.639637 96.6289655,33.5623956 96.2153176,33.7727768 C95.8006534,33.9841742 95.3819238,34.1915064 94.9499819,34.3652995 C94.6013793,34.5055535 94.2314338,34.5939746 93.7141198,34.7545554 C93.8238838,34.2524864 93.8706352,33.9221779 93.9692196,33.606098 C94.8432668,30.7867877 95.7640653,27.9806897 96.5842468,25.1441016 C96.8241016,24.3137568 97.2733212,23.9499093 98.057931,23.8564065 C100.298947,23.5891107 102.534882,23.2384755 104.805372,23.4325953 C106.271942,23.5576044 107.731397,23.6978584 109.110563,24.2761525 C109.918548,24.6145917 110.414519,25.160363 110.553757,26.0557532 C110.749909,27.3149909 110.470417,28.477677 109.92363,29.5895463 C109.457132,30.5377858 108.947949,31.4656987 108.446897,32.3966606 C108.118621,33.0084936 107.809655,33.636588 107.420399,34.208784 C107.15412,34.6000726 106.749619,34.8948094 106.432523,35.255608 C105.311506,36.5311071 104.286025,37.9041742 103.064392,39.0739746 C101.673031,40.4074047 100.107877,41.5589111 98.6260617,42.7988385 C98.3323412,43.043775 98.1148457,43.4137205 97.7875862,43.5763339 C97.3048276,43.8172051 96.7539746,43.9218875 96.2336116,44.0895826 C95.7559347,44.243049 95.3321234,44.4625771 95.187804,45.0418875 C95.4947368,45.0266425 95.7823593,44.9717604 96.0344102,44.8437024 C96.9216697,44.3944828 97.8353539,43.9808348 98.6656987,43.4421779 C100.168857,42.4675136 101.673031,41.482686 103.08167,40.377931 C105.722105,38.3076588 108.011906,35.8806534 109.995789,33.1700907 C110.845445,32.0074047 111.601597,30.7928857 112.073176,29.4249002 Z M89.8205445,41.5091107 C89.7331397,42.0914701 89.636588,42.6758621 89.4871869,43.2439927 C89.4312886,43.4553902 89.2158258,43.625118 89.073539,43.8131397 C88.8824682,43.652559 88.5826497,43.5234846 88.522686,43.3232668 C88.4149546,42.9624682 88.3407623,42.5244283 88.44951,42.1809074 C88.6517604,41.5426497 88.975971,40.937931 89.2910345,40.341343 C89.3835209,40.1675499 89.6172777,40.0689655 89.7870054,39.9358258 C89.8490018,39.9642831 89.9120145,39.9927405 89.9740109,40.0211978 C89.9242105,40.5171688 89.8937205,41.0161887 89.8205445,41.5091107 Z" id="Shape"></path>
                        <path d="M94.040363,45.0266425 C93.2689655,45.0916878 92.4985844,45.1607985 91.7302359,45.2482033 C91.5981125,45.2634483 91.4771688,45.3772777 91.3521597,45.4453721 C91.4629401,45.5429401 91.5727042,45.7218149 91.6855172,45.7238475 C92.2333212,45.7329946 92.7862069,45.7319782 93.3279129,45.6618512 C93.7222505,45.6100181 94.1033757,45.4453721 94.4895826,45.3315426 C94.4702722,45.2461706 94.4509619,45.1607985 94.4326679,45.0744102 C94.3005445,45.0571325 94.1684211,45.0154628 94.040363,45.0266425 Z" id="Path"></path>
                        <rect id="Rectangle" x="171.532777" y="50.467078" width="1" height="4.0338294"></rect>
                        <path d="M111.966461,48.9933938 L109.390054,54.4460254 L109.999855,54.4460254 L110.848494,52.6481307 L113.201307,52.6481307 L114.05706,54.4460254 L114.637387,54.4460254 L112.097568,48.9933938 L111.966461,48.9933938 L111.966461,48.9933938 Z M111.091397,52.1267514 L112.032523,50.1489655 L112.959419,52.1267514 L111.091397,52.1267514 Z" id="Shape"></path>
                        <path d="M197.820254,35.4172051 C197.342577,35.6123412 196.884211,35.861343 196.432958,36.1144102 C195.793684,36.473176 195.174737,36.8685299 194.528348,37.2150998 C194.36167,37.3045372 194.127913,37.2679492 193.924646,37.2892922 C193.940907,37.1022868 193.925662,36.9061343 193.979528,36.7313249 C194.080145,36.4071143 194.227514,36.0981488 194.341343,35.7780036 C194.593394,35.0736842 194.86069,34.3734301 195.064973,33.654882 C195.11274,33.4882033 194.967405,33.1111434 194.845445,33.0786207 C194.154338,32.8966969 193.461198,32.5653721 192.721307,32.9241379 C190.699819,33.9038838 189.07775,35.267804 188.294156,37.4580036 C188.028893,38.1989111 188.332777,38.6938657 189.135681,38.7843194 C189.887768,38.8686751 190.488421,38.5454809 191.042323,38.0850817 C191.50069,37.7039564 191.966171,37.3329946 192.477387,36.917314 C192.467223,37.1094011 192.475354,37.2344102 192.450962,37.3543376 C192.305626,38.0627223 192.51804,38.3920145 193.213212,38.5475136 C193.839274,38.6877677 194.46127,38.636951 194.968421,38.2649728 C196.131107,37.4132849 197.25314,36.5046824 198.391434,35.6184392 C198.391434,35.5828675 198.391434,35.5462795 198.391434,35.5107078 C198.199347,35.4731034 197.972704,35.3541924 197.820254,35.4172051 Z M193.419528,34.1579673 C192.394047,35.1072232 191.355354,36.0422505 190.313612,36.9742287 C190.220109,37.0575681 190.078838,37.0870417 189.913176,37.1622505 C190.346134,35.7241379 192.513975,33.6802904 193.675644,33.6508167 C193.580109,33.8479855 193.540472,34.0461706 193.419528,34.1579673 Z" id="Shape"></path>
                        <path d="M185.580544,30.0936479 C185.353902,30.0804356 185.236007,30.182069 185.241089,30.4137931 C185.354918,30.307078 185.467731,30.200363 185.580544,30.0936479 Z" id="Path"></path>
                        <path d="M176.892922,7.39179673 C177.034192,7.40297641 177.176479,7.39179673 177.31775,7.39484574 C177.761887,7.40297641 177.766969,7.40399274 177.769002,7.87455535 C177.772051,9.24965517 177.770018,10.6257713 177.770018,12.0008711 C177.770018,13.3353176 177.761887,14.6707804 177.772051,16.0052269 C177.785263,17.8031216 178.738584,19.0898004 180.454156,19.6081307 C181.682904,19.9801089 182.92588,19.9689292 184.161742,19.6325227 C185.53176,19.2595281 186.373285,18.3590563 186.739165,16.9992015 C186.907877,16.3700907 186.968857,15.728784 186.96784,15.0783303 C186.964791,12.7316152 186.964791,10.3859165 186.96784,8.03920145 C186.96784,7.33793103 186.880436,7.39789474 187.61931,7.3938294 C187.639637,7.3938294 187.659964,7.3938294 187.68029,7.3938294 C188.507586,7.3938294 188.491325,7.3938294 188.461851,6.57974592 C188.450672,6.28805808 188.320581,6.25655172 188.086824,6.26163339 C187.561379,6.27179673 187.034918,6.2646824 186.509474,6.2646824 C185.882396,6.2646824 185.255318,6.27484574 184.629256,6.26061706 C184.340617,6.25350272 184.185118,6.30330309 184.197314,6.65088929 C184.230853,7.51477314 184.107877,7.38163339 184.942287,7.3938294 C185.04392,7.39484574 185.144537,7.39281307 185.245154,7.39484574 C185.735027,7.40297641 185.741125,7.40297641 185.741125,7.89488203 C185.743158,10.1399637 185.747223,12.3850454 185.739093,14.630127 C185.736044,15.3374955 185.693358,16.0458802 185.514483,16.735971 C185.345771,17.387441 185.027659,17.9494737 184.398548,18.2442105 C183.582432,18.6253358 182.718548,18.6903811 181.85873,18.41902 C180.938947,18.1293648 180.404356,17.3223956 180.401307,16.273539 C180.396225,13.5629764 180.397241,10.8524138 180.401307,8.14286751 C180.402323,7.28101633 180.290526,7.40297641 181.130018,7.39586207 C181.955281,7.38976407 181.947151,7.39484574 181.902432,6.57466425 C181.890236,6.34192377 181.821125,6.25350272 181.584319,6.26163339 C181.180835,6.27586207 180.775318,6.26569873 180.370817,6.26569873 C179.136987,6.26569873 177.903158,6.26366606 176.670345,6.26874773 C176.540254,6.26976407 176.333938,6.20065336 176.302432,6.37241379 C176.244501,6.68544465 176.187586,7.03404719 176.329873,7.32065336 C176.418294,7.49444646 176.699819,7.37553539 176.892922,7.39179673 Z" id="Path"></path>
                        <path d="M207.196951,7.3968784 C207.581125,7.38569873 207.965299,7.39789474 208.349474,7.39281307 C208.524283,7.3907804 208.613721,7.45887477 208.608639,7.64079855 C208.604574,7.76174229 208.609655,7.88370236 208.609655,8.0046461 C208.609655,11.282323 208.609655,14.5589837 208.609655,17.8366606 C208.609655,17.9576044 208.604574,18.0795644 208.609655,18.2005082 C208.618802,18.3997096 208.540544,18.495245 208.328131,18.489147 C207.98461,18.4789837 207.639056,18.5023593 207.297568,18.4820327 C206.992668,18.464755 206.835136,18.5521597 206.886969,18.8834846 C206.902214,18.982069 206.900181,19.0867514 206.886969,19.1863521 C206.847332,19.4993829 206.969292,19.6081307 207.29147,19.6 C208.119782,19.5796733 208.950127,19.5928857 209.778439,19.5928857 C212.286751,19.5928857 214.794047,19.593902 217.301343,19.5918693 C217.791216,19.5918693 217.788167,19.5857713 217.823739,19.1050454 C217.896915,18.1171688 217.989401,17.1303085 218.044283,16.1414156 C218.094083,15.2460254 218.224174,15.3974592 217.320653,15.3659528 C217.026933,15.3557895 216.877532,15.4320145 216.84196,15.7491107 C216.793176,16.169873 216.668167,16.5764065 216.531978,16.9798911 C216.234192,17.8661343 215.615245,18.3092559 214.694446,18.4088566 C213.684211,18.516588 212.673975,18.4759347 211.664755,18.4840653 C211.235862,18.4871143 211.225699,18.4759347 211.224682,18.0531397 C211.219601,16.7583303 211.21147,15.4635209 211.226715,14.1687114 C211.237895,13.2214882 210.993975,13.2286025 212.131252,13.403412 C212.850817,13.5141924 213.192305,13.8587296 213.321379,14.578294 C213.378294,14.8953902 213.4098,15.2175681 213.460617,15.5956443 C213.689292,15.5956443 213.8702,15.597677 214.050091,15.5956443 C214.531833,15.5905626 214.535898,15.5905626 214.536915,15.0976407 C214.539964,13.7022142 214.537931,12.3057713 214.537931,10.9093285 C214.537931,10.0749183 214.474918,10.0210526 213.6649,10.128784 C213.527695,10.147078 213.441307,10.1806171 213.430127,10.3361162 C213.42098,10.4560436 213.388457,10.5749546 213.365082,10.6938657 C213.133358,11.9094011 212.868094,12.1340109 211.628167,12.1614519 C211.587514,12.1624682 211.547877,12.1634846 211.507223,12.1685662 C211.287695,12.1990563 211.223666,12.0821779 211.223666,11.8870417 C211.224682,10.4916152 211.227731,9.09517241 211.220617,7.69974592 C211.219601,7.45684211 211.324283,7.3846824 211.550926,7.39179673 C212.419891,7.41618875 213.289873,7.34911071 214.157822,7.43448276 C215.456697,7.5615245 216.090889,8.12863884 216.352087,9.38889292 C216.489292,10.04951 216.489292,10.04951 217.141779,10.0301996 C217.182432,10.0291833 217.223085,10.0271506 217.263739,10.0301996 C217.458875,10.0444283 217.558475,9.97633394 217.556443,9.75782214 C217.549328,8.68660617 217.550345,7.61335753 217.555426,6.54214156 C217.556443,6.3276951 217.460907,6.25451906 217.261706,6.2646824 C217.120436,6.27179673 216.979165,6.26569873 216.836878,6.26569873 C213.782795,6.26569873 210.728711,6.26569873 207.675644,6.26569873 C206.835136,6.26569873 206.845299,6.26569873 206.88392,7.07774955 C206.894083,7.30744102 206.960145,7.40297641 207.196951,7.3968784 Z" id="Path"></path>
                        <path d="M171.789909,48.8084211 C171.672015,48.8084211 171.571397,48.8500907 171.488058,48.9334301 C171.404719,49.0167695 171.363049,49.1173866 171.363049,49.2352813 C171.363049,49.353176 171.404719,49.4537931 171.488058,49.5381488 C171.571397,49.6225045 171.672015,49.6651906 171.789909,49.6651906 C171.907804,49.6651906 172.008421,49.6225045 172.092777,49.5381488 C172.177132,49.4537931 172.219819,49.353176 172.219819,49.2352813 C172.219819,49.1173866 172.178149,49.0167695 172.092777,48.9334301 C172.008421,48.8500907 171.907804,48.8084211 171.789909,48.8084211 Z" id="Path"></path>
                        <path d="M117.791071,10.6074773 C117.811397,10.6074773 117.831724,10.6054446 117.852051,10.6074773 C118.054301,10.6288203 118.141706,10.5302359 118.165082,10.3350998 C118.183376,10.1755354 118.226062,10.0180036 118.26265,9.86047187 C118.378512,9.3492559 118.470998,8.83092559 118.681379,8.34511797 C118.917169,7.79934664 119.311506,7.46090744 119.921307,7.42228675 C120.243485,7.40196007 120.567695,7.41517241 120.889873,7.3907804 C121.195789,7.36842105 121.286243,7.5107078 121.255753,7.7891833 C121.244574,7.88878403 121.253721,7.99143376 121.253721,8.09205082 C121.253721,11.3280581 121.253721,14.5650817 121.253721,17.8021053 C121.253721,17.9240653 121.247623,18.0450091 121.254737,18.1659528 C121.269982,18.3936116 121.177495,18.4972777 120.939673,18.4901633 C120.596152,18.4789837 120.251615,18.4962613 119.908094,18.4850817 C119.671289,18.476951 119.575753,18.5724864 119.599129,18.8052269 C119.609292,18.9058439 119.600145,19.0074773 119.601162,19.1080944 C119.60726,19.5867877 119.60726,19.5918693 120.108312,19.5928857 C121.726316,19.5949183 123.344319,19.593902 124.962323,19.593902 C125.437967,19.593902 125.484719,19.6894374 125.480653,19.0562613 C125.476588,18.4393466 125.51216,18.486098 124.932849,18.4871143 C124.750926,18.4871143 124.569002,18.4881307 124.387078,18.4871143 C123.856552,18.4820327 123.852486,18.4820327 123.85147,17.9667514 C123.849437,16.2877677 123.850454,14.608784 123.850454,12.9298004 C123.850454,11.3920871 123.850454,9.85437387 123.850454,8.31666062 C123.850454,8.09408348 123.854519,7.87150635 123.850454,7.64892922 C123.848421,7.50969147 123.899238,7.43041742 124.04559,7.3968784 C124.855608,7.21088929 125.904465,7.66315789 126.358766,8.40406534 C126.638258,8.86039927 126.793757,9.36754991 126.855753,9.88791289 C126.959419,10.7578947 126.932995,10.5922323 127.693212,10.603412 C128.119056,10.60951 128.127187,10.5962976 128.112958,10.1704537 C128.075354,9.01793103 128.032668,7.86642468 127.986933,6.71491833 C127.971688,6.32261343 128.073321,6.26061706 127.503158,6.26162124 C124.226497,6.26569873 120.950853,6.26264973 117.674192,6.2646824 C117.200581,6.2646824 117.200581,6.27179673 117.172123,6.7738657 C117.115209,7.78410163 117.065408,8.79332123 116.996298,9.80254083 C116.932269,10.7111434 116.747296,10.597314 117.791071,10.6074773 Z" id="Path"></path>
                        <path d="M84.9411252,18.4820327 C84.3049002,18.498294 84.3933212,18.483049 84.3902722,19.046098 C84.3872232,19.590853 84.3902722,19.5928857 84.9553539,19.593902 C87.402686,19.5949183 89.8490018,19.593902 92.2963339,19.593902 C93.1663158,19.593902 94.0352813,19.5806897 94.9052632,19.6010163 C95.2223593,19.6081307 95.3148457,19.5003993 95.3311071,19.1914338 C95.3870054,18.1822142 95.4825408,17.1750272 95.5465699,16.1658076 C95.6004356,15.3141198 95.5912886,15.3232668 94.7284211,15.3649365 C94.5007623,15.3761162 94.3940472,15.4574229 94.3655898,15.667804 C94.3046098,16.1099093 94.1907804,16.5388022 94.0505263,16.9615971 C93.7578221,17.8386933 93.1500544,18.3051906 92.2251906,18.4088566 C91.215971,18.522686 90.205735,18.473902 89.1954991,18.4840653 C88.7493285,18.489147 88.7422142,18.476951 88.7411978,18.0094374 C88.7371325,16.5733575 88.7391652,15.1372777 88.7411978,13.7011978 C88.7411978,13.5822868 88.7137568,13.4572777 88.8143739,13.3312523 C89.1019964,13.2814519 89.3967332,13.3627586 89.6884211,13.4115426 C90.3531034,13.5263884 90.6793466,13.8455172 90.8145191,14.5061343 C90.8704174,14.7825771 90.9039564,15.0661343 90.9222505,15.3466425 C90.9334301,15.5285662 91.0035572,15.6017423 91.1793829,15.5956443 C91.3206534,15.5915789 91.4629401,15.597677 91.6042105,15.5946279 C92.0290381,15.5864973 92.0371688,15.5864973 92.0381851,15.168784 C92.0422505,13.7327042 92.0402178,12.2966243 92.0402178,10.8595281 C92.0402178,10.0688203 92.0402178,10.0810163 91.2413793,10.122686 C90.9954265,10.134882 90.9446098,10.2354991 90.9181851,10.4468966 C90.8785481,10.7660254 90.8175681,11.0841379 90.707804,11.3910708 C90.5827949,11.7427223 90.3520871,11.9866425 89.9882396,12.0598185 C89.673176,12.1238475 89.3469328,12.1350272 89.0257713,12.1695826 C88.8174229,12.1919419 88.7381488,12.0974229 88.7391652,11.8900907 C88.7432305,10.4946642 88.7442468,9.09822142 88.7381488,7.70279492 C88.7371325,7.46802178 88.8245372,7.38163339 89.0593103,7.38874773 C89.9282759,7.41415608 90.7982577,7.34707804 91.6662069,7.43143376 C92.9671143,7.55745917 93.593176,8.12050817 93.8543739,9.38686025 C93.9905626,10.046461 93.9905626,10.046461 94.6471143,10.0261343 C94.6877677,10.025118 94.7274047,10.0230853 94.7680581,10.0261343 C94.9662432,10.0413793 95.0587296,9.96820327 95.0577132,9.75274047 C95.0505989,8.6815245 95.0526316,7.60827586 95.0546642,6.53705989 C95.0546642,6.36123412 94.9814882,6.27484574 94.8046461,6.2768784 C94.6837024,6.27891107 94.5617423,6.2768784 94.4407985,6.2768784 C91.286098,6.27586207 88.1313975,6.2768784 84.9766969,6.27586207 C84.3384392,6.27586207 84.3943376,6.23724138 84.3912886,6.86838475 C84.3912886,6.94969147 84.3973866,7.03099819 84.3912886,7.11128857 C84.3740109,7.32573503 84.483775,7.3938294 84.6799274,7.39179673 C85.0641016,7.3877314 85.4482759,7.3968784 85.8324501,7.38976407 C86.0397822,7.38569873 86.1271869,7.47513612 86.1180399,7.67941924 C86.1109256,7.82068966 86.1170236,7.96297641 86.1170236,8.10424682 C86.1170236,11.1796733 86.1190563,14.2540835 86.1139746,17.3284936 C86.1139746,17.6903085 86.2654083,18.1537568 86.0468966,18.3875136 C85.7978947,18.6568421 85.3181851,18.4728857 84.9411252,18.4820327 Z" id="Path"></path>
                        <path d="M100.428022,7.39484574 C100.670926,7.3846824 100.915862,7.41415608 101.155717,7.38874773 C101.521597,7.34911071 101.736044,7.49038113 101.925082,7.81255898 C102.916007,9.50373866 103.925227,11.1857713 104.947659,12.8576407 C105.130599,13.1564428 105.144828,13.3647913 104.948675,13.6676588 C104.147804,14.9075862 103.384537,16.169873 102.596878,17.417931 C102.372269,17.7736479 102.243194,18.2696189 101.875281,18.434265 C101.535826,18.5867151 101.081525,18.4789837 100.677024,18.4871143 C100.656697,18.4871143 100.63637,18.4871143 100.616044,18.4871143 C100.146497,18.483049 100.143448,18.455608 100.151579,18.9464973 C100.153612,19.027804 100.160726,19.110127 100.150563,19.1894011 C100.109909,19.5034483 100.234918,19.6050817 100.55608,19.6011329 C101.769583,19.5837387 102.984102,19.5989837 104.197604,19.5918693 C104.953757,19.587804 104.879564,19.7311071 104.886679,18.8651906 C104.886679,18.8448639 104.884646,18.8245372 104.886679,18.8042105 C104.915136,18.5714701 104.816552,18.4749183 104.579746,18.4840653 C104.244356,18.4962613 103.908966,18.4881307 103.445517,18.4881307 C104.314483,17.0794918 105.119419,15.7755354 105.971107,14.3963702 C106.834991,15.7796007 107.645009,17.0754265 108.528203,18.4881307 C108.088131,18.4881307 107.789328,18.4942287 107.491543,18.486098 C107.282178,18.4810163 107.196806,18.5714701 107.216116,18.7767695 C107.22323,18.8570599 107.217132,18.9383666 107.217132,19.0196733 C107.220181,19.6203267 107.158185,19.5949183 107.756806,19.593902 C109.335172,19.593902 110.913539,19.5918693 112.491906,19.5949183 C113.068167,19.5959347 113.01633,19.5949183 113.014301,19.0623593 C113.011252,18.4576407 113.092559,18.486098 112.416697,18.4871143 C112.275426,18.4871143 112.131107,18.4688203 111.992886,18.4901633 C111.660544,18.54098 111.486751,18.3803993 111.323122,18.1059891 C110.182795,16.1983303 109.030272,14.2957532 107.86657,12.4013067 C107.707005,12.1421416 107.704973,11.9541198 107.869619,11.69902 C108.547514,10.6450817 109.203049,9.5769147 109.87078,8.51586207 C110.096407,8.15709619 110.265118,7.71295826 110.584247,7.47920145 C110.913539,7.23629764 111.406461,7.41415608 111.826207,7.39484574 C112.289655,7.37451906 112.290672,7.38264973 112.297786,6.93139746 C112.298802,6.85009074 112.289655,6.7677677 112.299819,6.68849365 C112.340472,6.37546279 112.217495,6.26671506 111.895318,6.27067105 C110.741779,6.28704174 109.58824,6.27067105 108.435717,6.2799274 C107.626715,6.28500907 107.71412,6.13052632 107.705989,7.02998185 C107.705989,7.05030853 107.708022,7.07063521 107.705989,7.09096189 C107.675499,7.3430127 107.815753,7.39484574 108.032232,7.3968784 C108.326969,7.3999274 108.627804,7.35622505 108.999782,7.44871143 C108.286316,8.58802178 107.606388,9.67549909 106.878693,10.8361525 C106.15608,9.67753176 105.471071,8.57887477 104.73118,7.3938294 C105.071652,7.3938294 105.29118,7.37350272 105.505626,7.39789474 C105.843049,7.43651543 105.934519,7.27796733 105.893866,6.97916515 C105.885735,6.92021779 105.893866,6.85822142 105.892849,6.79724138 C105.887768,6.28196007 105.887768,6.27891107 105.359274,6.27891107 C103.882541,6.2768784 102.404791,6.27891107 100.928058,6.27891107 C100.08755,6.27891107 100.094664,6.27891107 100.151579,7.10823956 C100.162759,7.31049002 100.217641,7.40399274 100.428022,7.39484574 Z" id="Path"></path>
                        <path d="M169.339528,18.1649365 C171.993176,15.4025408 172.069401,10.7253721 169.50824,7.87557169 C167.23775,5.34998185 163.542359,5.35404719 161.29118,7.89793103 C160.032958,9.32079855 159.472958,11.0170599 159.411978,12.8881307 C159.462795,14.8242468 160.041089,16.5530309 161.331833,18.0063884 C163.492559,20.4364428 167.094446,20.5035209 169.339528,18.1649365 Z M162.677459,9.49255898 C162.706933,9.37568058 162.739456,9.25880218 162.771978,9.14294011 C163.279129,7.3430127 164.665408,6.85517241 166.24784,7.20784029 C166.995862,7.37553539 167.48167,7.85524501 167.807913,8.52500907 C168.168711,9.26388385 168.307949,10.0637387 168.367913,10.8666425 C168.488857,12.4795644 168.514265,14.0955354 168.270345,15.701343 C168.188022,16.2410163 168.051833,16.7654446 167.822142,17.2654809 C167.346497,18.3021416 166.526316,18.7554265 165.407332,18.7584821 C164.286316,18.7605082 163.467151,18.2960436 162.991506,17.2654809 C162.682541,16.5977495 162.543303,15.8822505 162.47216,15.1586207 C162.395935,14.3953539 162.373575,13.6270054 162.334955,12.9897641 C162.396951,11.732559 162.398984,10.5993466 162.677459,9.49255898 Z" id="Shape"></path>
                        <path d="M141.97677,7.3938294 C142.077387,7.3938294 142.17902,7.39281307 142.279637,7.3938294 C142.773575,7.40196007 142.778657,7.40196007 142.779673,7.88980036 C142.781706,9.56878403 142.78069,11.248784 142.78069,12.928784 C142.78069,14.1026497 142.78069,15.2765154 142.78069,16.4503811 C142.78069,16.9971688 142.764428,17.5439564 142.786788,18.0887114 C142.801016,18.4169873 142.673975,18.5155717 142.366025,18.492196 C142.084501,18.4718693 141.799927,18.4932123 141.517387,18.4871143 C141.310054,18.483049 141.221633,18.5765517 141.238911,18.7808348 C141.245009,18.8611252 141.239927,18.9424319 141.238911,19.0237387 C141.237895,19.590853 141.237895,19.593902 141.786715,19.593902 C143.324428,19.5959347 144.861125,19.5959347 146.398838,19.593902 C146.907005,19.5928857 146.910054,19.5888203 146.908022,19.052196 C146.904973,18.4718693 146.991361,18.486098 146.365299,18.4881307 C146.183376,18.4881307 145.999419,18.473902 145.819528,18.4911797 C145.515644,18.5216697 145.382505,18.4261343 145.38657,18.0937931 C145.399782,16.6363702 145.39775,15.1799637 145.387586,13.7225408 C145.385554,13.4298367 145.491252,13.3383666 145.776842,13.3403993 C147.173285,13.3505626 148.568711,13.3536116 149.965154,13.3393829 C150.270054,13.3353176 150.342214,13.4511797 150.3351,13.7306715 C150.318838,14.3577495 150.330018,14.9858439 150.330018,15.612922 C150.330018,16.4026134 150.329002,17.1912886 150.330018,17.98098 C150.331034,18.473902 150.368639,18.5023593 149.846243,18.4911797 C149.603339,18.4850817 149.360436,18.5033757 149.118548,18.4871143 C148.873612,18.470853 148.793321,18.5796007 148.815681,18.8062432 C148.824828,18.9068603 148.815681,19.0084936 148.816697,19.1091107 C148.822795,19.590853 148.823811,19.593902 149.321815,19.5949183 C150.778221,19.596951 152.234628,19.5959347 153.692051,19.5959347 C154.523412,19.5959347 154.515281,19.5959347 154.463448,18.7676225 C154.451252,18.562323 154.394338,18.4779673 154.181924,18.486098 C153.879056,18.498294 153.574156,18.4759347 153.272305,18.4932123 C153.024319,18.5064247 152.947078,18.3956443 152.96029,18.1720508 C152.967405,18.0511071 152.961307,17.929147 152.961307,17.8082033 C152.961307,14.5701633 152.959274,11.3321234 152.962323,8.09509982 C152.963339,7.29117967 152.86882,7.40297641 153.679855,7.3968784 C154.538657,7.39179673 154.541706,7.38366606 154.463448,6.52486388 C154.443122,6.30228675 154.345554,6.26366606 154.155499,6.26466314 C152.476515,6.26874773 150.797532,6.2677314 149.118548,6.2677314 C149.017931,6.2677314 148.914265,6.25756806 148.846171,6.35310345 C148.800436,6.41814882 148.806534,7.24950998 148.850236,7.31353902 C148.919347,7.41415608 149.026062,7.3938294 149.122613,7.39484574 C149.406171,7.39891107 149.689728,7.40805808 149.972269,7.3938294 C150.220254,7.38163339 150.338149,7.44972777 150.3351,7.72820327 C150.32392,9.08297641 150.324936,10.4397822 150.3351,11.7955717 C150.337132,12.0598185 150.248711,12.1390926 149.989546,12.1370599 C148.59412,12.1268966 147.197677,12.1248639 145.80225,12.1380762 C145.486171,12.1421416 145.383521,12.0435572 145.387586,11.7254446 C145.403848,10.6328857 145.388603,9.54032668 145.396733,8.44675136 C145.399782,8.12660617 145.259528,7.73023593 145.459746,7.50359347 C145.688421,7.24341198 146.105118,7.42025408 146.440508,7.40094374 C146.901924,7.37451906 146.90294,7.3877314 146.910054,6.93749546 C146.911071,6.85618875 146.912087,6.77589837 146.910054,6.69459165 C146.899891,6.27789474 146.898875,6.26976407 146.468966,6.26874773 C144.971906,6.26569873 143.474846,6.2677314 141.977786,6.2677314 C141.816189,6.2677314 141.653575,6.26976407 141.491978,6.26874773 C141.356806,6.26874773 141.274483,6.31651543 141.24196,6.46591652 C141.081379,7.19462795 141.234846,7.3938294 141.97677,7.3938294 Z" id="Path"></path>
                        <path d="M157.747223,53.9317604 C157.448421,53.7041016 157.306134,53.3788748 157.320363,52.9570962 L157.320363,51.2506715 L158.275717,51.2506715 L158.275717,50.8065336 L157.316298,50.8065336 L157.316298,48.8572051 L156.793902,48.8572051 L156.793902,53.0445009 C156.789837,53.3392377 156.856915,53.6085662 156.996152,53.8535027 C157.225844,54.2427586 157.539891,54.4490744 157.937278,54.4714338 C158.147659,54.4785481 158.387514,54.4307804 158.657858,54.3281307 C158.616189,54.2254809 158.562323,54.0821779 158.496261,53.8982214 C158.242178,54.0354265 157.99216,54.0466062 157.747223,53.9317604 Z" id="Path"></path>
                        <path d="M138.986715,51.0199637 C138.5751,50.4975681 138.027296,50.2373866 137.343303,50.2373866 C136.674555,50.2373866 136.14098,50.4924864 135.74461,51.0016697 C135.430563,51.4010889 135.274047,51.8574229 135.274047,52.3696552 C135.274047,52.9113612 135.45902,53.3971688 135.828966,53.8280944 C136.198911,54.2580036 136.71216,54.4734664 137.369728,54.4734664 C137.665481,54.4734664 137.93176,54.4287477 138.16755,54.3393103 C138.402323,54.249873 138.614737,54.1187659 138.802759,53.9470054 C138.991797,53.775245 139.156443,53.5486025 139.295681,53.267078 L138.861706,53.0353539 C138.702142,53.3006171 138.554773,53.4906715 138.418584,53.6085662 C138.282396,53.726461 138.116733,53.82098 137.92363,53.8931397 C137.72951,53.9652995 137.530309,54.0018875 137.323993,54.0018875 C136.900181,54.0018875 136.543448,53.8514701 136.254809,53.5506352 C135.965154,53.2508167 135.815753,52.8656261 135.806606,52.3950635 L139.426788,52.3950635 C139.425771,51.8462432 139.278403,51.3878766 138.986715,51.0199637 Z M135.862505,51.9499093 C135.968203,51.5799637 136.123702,51.3014882 136.329002,51.1154991 C136.612559,50.8603993 136.953031,50.7333575 137.347368,50.7333575 C137.587223,50.7333575 137.816915,50.7841742 138.035426,50.8858076 C138.252922,50.987441 138.427731,51.1205808 138.560871,51.2862432 C138.692995,51.4519056 138.793612,51.6734664 138.862722,51.9499093 L135.862505,51.9499093 Z" id="Shape"></path>
                        <path d="M145.716878,50.5412704 C145.459746,50.4020327 145.191434,50.3319056 144.911942,50.3319056 C144.536915,50.375608 144.298076,50.4315064 144.195426,50.4975681 C144.042976,50.5758258 143.92,50.6561162 143.824465,50.7364065 C143.628312,50.947804 143.499238,51.1317604 143.438258,51.2882759 C143.325445,51.0433394 143.213648,50.8593829 143.103884,50.7364065 C142.993103,50.6134301 142.837604,50.5158621 142.637387,50.4416697 C142.436152,50.3684936 142.237967,50.3319056 142.041815,50.3319056 C141.737931,50.33902 141.503158,50.3949183 141.339528,50.5006171 C141.08951,50.6378221 140.888276,50.8227949 140.732777,51.0555354 C140.546788,51.3106352 140.431942,51.7131034 140.387223,52.2619238 L140.387223,52.9052632 L140.387223,54.4683848 L140.901488,54.4683848 L140.901488,52.7589111 C140.882178,52.2100907 140.920799,51.8137205 141.019383,51.568784 C141.116951,51.3258802 141.25314,51.1419238 141.425917,51.0199637 C141.598693,50.8969873 141.805009,50.8360073 142.044864,50.8360073 C142.267441,50.8360073 142.454446,50.8878403 142.603848,50.9925227 C142.753249,51.0961887 142.882323,51.2364428 142.990054,51.4112523 C143.097786,51.5860617 143.151652,51.9163702 143.151652,52.4021779 L143.151652,54.4683848 L143.669982,54.4683848 L143.669982,52.4245372 C143.72588,51.9021416 143.80922,51.5647187 143.92,51.4132849 C144.201525,51.0555354 144.54098,50.8634483 144.938367,50.8360073 C145.149764,50.8360073 145.329655,50.8858076 145.479056,50.984392 C145.628457,51.0839927 145.734156,51.2140835 145.795136,51.3766969 C145.857132,51.538294 145.887623,51.8350635 145.887623,52.2670054 L145.887623,54.4694011 L146.417132,54.4694011 L146.417132,52.2670054 C146.417132,51.7639201 146.364283,51.3858439 146.260617,51.1327768 C146.154918,50.877677 145.975027,50.6815245 145.716878,50.5412704 Z" id="Path"></path>
                        <rect id="Rectangle" x="173.044065" y="48.9080218" width="1" height="5.59186933"></rect>
                        <path d="M177.054519,44.6546642 C177.810672,43.8029764 178.473321,42.8659165 179.144102,41.942069 C179.656334,41.2357169 180.237677,40.5415608 180.5751,39.7518693 C181.311942,38.0291833 180.280363,36.3837387 178.430635,36.1520145 C178.336116,36.1408348 178.247695,36.0737568 178.073902,35.9944828 C178.413358,35.6062432 178.719274,35.261706 179.019093,34.9100544 C179.250817,34.637677 179.490672,34.3703811 179.686824,34.0746279 C179.756951,33.9679129 179.770163,33.7453358 179.705118,33.6406534 C179.426642,33.1934664 179.033321,32.8031942 178.477387,32.9485299 C177.671434,33.1599274 176.890889,33.4729583 176.113394,33.7778584 C175.998548,33.8235935 175.908094,34.0685299 175.913176,34.217931 C175.916225,34.2911071 176.159129,34.4008711 176.301416,34.4150998 C176.611397,34.4455898 176.925445,34.4242468 177.237459,34.4242468 C177.258802,34.4699819 177.281162,34.5167332 177.302505,34.5624682 C177.059601,34.8094374 176.855318,35.1214519 176.567695,35.292196 C175.678403,35.818657 174.76167,36.2993829 173.845953,36.7790926 C173.385554,37.0199637 172.903811,37.2181488 172.432232,37.4366606 C172.368203,37.3675499 172.304174,37.2984392 172.241162,37.2293285 C172.410889,36.7658802 172.584682,36.3034483 172.751361,35.8389837 C173.010526,35.1184029 173.292051,34.4029038 173.501416,33.6680944 C173.5502,33.4953176 173.382505,33.0989474 173.249365,33.0654083 C172.622287,32.9078766 171.987078,32.5836661 171.324428,32.8560436 C170.51441,33.1883848 169.720653,33.529873 169.103739,34.2199637 C168.042686,35.4070417 166.959274,36.5931034 165.258947,36.8786933 C164.926606,36.9345917 164.604428,37.0585844 164.277169,37.1500544 C163.543376,37.3543376 163.244574,37.0839927 163.370599,36.3217423 C163.397024,36.1642105 163.427514,35.9934664 163.50882,35.8603267 C163.923485,35.1783666 164.336116,34.4933575 164.790417,33.8378221 C165.034338,33.4851543 165.033321,33.2290381 164.668457,32.9962976 C164.224319,32.7117241 163.878766,32.7727042 163.425481,33.2036298 C162.35833,34.217931 161.294229,35.2352813 160.217931,36.2384029 C159.978076,36.4619964 159.69147,36.6347731 159.427223,36.8319419 C159.384537,36.8024682 159.341851,36.7740109 159.298149,36.7445372 C159.380472,36.46098 159.429256,36.1621779 159.551216,35.897931 C159.987223,34.9547731 160.422214,34.0105989 160.911071,33.094882 C161.105191,32.7310345 160.981198,32.6192377 160.676298,32.5186207 C160.253503,32.3793829 159.953684,32.4688203 159.776842,32.9210889 C159.633539,33.2869691 159.415027,33.6223593 159.258512,33.9851906 C159.0898,34.3774955 158.870272,34.5756806 158.387514,34.5960073 C157.391506,34.6397096 157.393539,34.6844283 157.350853,33.7239927 C157.323412,33.1141924 156.915862,32.5125227 156.413793,32.3377132 C155.972704,32.1842468 154.727695,32.4566243 154.502069,32.8092922 C153.990853,33.6071143 153.471506,34.4049365 153.044646,35.2484936 C152.700109,35.9304537 152.485662,36.6794918 152.214301,37.3990563 C152.031361,37.8858802 152.173648,38.4448639 152.561887,38.7619601 C152.949111,39.0780399 153.597532,39.187804 153.963412,38.8625771 C154.720581,38.1887477 155.597677,37.547441 156.085517,36.6967695 C156.681089,35.6601089 157.600871,35.760726 158.536915,35.4294011 C158.391579,35.8755717 158.257423,36.1886025 158.190345,36.5158621 C158.119201,36.8634483 158.069401,37.2242468 158.082613,37.5769147 C158.113103,38.4143739 158.847913,38.8727405 159.577641,38.4966969 C159.920145,38.3208711 160.23216,38.058657 160.507586,37.7842468 C161.082831,37.2100181 161.623521,36.6022505 162.25873,35.922323 C162.222142,36.3827223 162.180472,36.7028675 162.173358,37.024029 C162.155064,37.7954265 162.631724,38.4885662 163.382795,38.560726 C163.891978,38.60951 164.443848,38.4651906 164.940835,38.2995281 C165.512015,38.1094737 166.044574,37.8025408 166.614737,37.5362613 C166.529365,38.3147731 166.89118,38.7965154 167.645299,38.7792377 C168.105699,38.7680581 168.617931,38.6420327 169.005154,38.4031942 C169.666788,37.9966606 170.248131,37.4600363 170.923993,36.9315426 C170.903666,37.1266788 170.900617,37.2791289 170.870127,37.4244646 C170.7502,37.9915789 170.975826,38.3879492 171.511434,38.5251543 C172.164936,38.6928494 172.801162,38.6379673 173.382505,38.2913975 C173.962831,37.9458439 174.520799,37.5616697 175.088929,37.1927405 C175.731252,37.9417786 175.87049,37.9011252 176.767913,37.4285299 C177.39804,37.0961887 178.145045,37.0098004 178.841234,37.3390926 C179.368711,37.5891107 179.567913,38.156225 179.458149,38.7365517 C179.064828,40.8180036 177.651107,42.3069328 176.330889,43.7745191 C175.40196,44.806098 174.1102,45.5134664 172.962759,46.3417786 C172.824537,46.4423956 172.578584,46.3956443 172.383448,46.4169873 C172.383448,46.2238838 172.313321,45.990127 172.396661,45.8447913 C172.833684,45.0866062 173.280871,44.3314701 173.784973,43.6169873 C174.122396,43.1372777 174.372414,42.6565517 174.404936,41.975608 C174.120363,42.1554991 173.851034,42.2550998 173.685372,42.4441379 C172.869256,43.3720508 172.03078,44.2867514 171.296987,45.277677 C170.598766,46.2198185 170.878258,47.1019964 171.943376,47.4882033 C172.270635,47.6071143 172.697495,47.6050817 173.036951,47.5095463 C174.704755,47.036951 175.94265,45.9088203 177.054519,44.6546642 Z M155.404574,35.6550272 C155.071216,36.4142287 154.575245,37.1276951 153.77539,37.5220327 C153.684936,37.5667514 153.574156,37.5698004 153.373938,37.6124864 C153.586352,36.4884211 153.978657,35.5391652 154.557967,34.668167 C154.610817,34.5888929 154.853721,34.5299456 154.861851,34.5451906 C155.071216,34.9141198 155.513321,35.4070417 155.404574,35.6550272 Z M155.983884,34.5401089 C155.71049,34.141706 155.88225,33.66098 156.41176,33.3388022 C156.509328,34.0126316 156.42294,34.2545191 155.983884,34.5401089 Z M168.398403,37.1033031 C168.602686,35.9385844 170.865045,33.7565154 172.039927,33.6294737 C171.976915,34.19049 169.116951,36.8908893 168.398403,37.1033031 Z" id="Shape"></path>
                        <rect id="Rectangle" x="161.20784" y="51.6358621" width="2.03571688" height="1"></rect>
                        <path d="M155.220617,50.5615971 C154.962468,50.4081307 154.680944,50.3319056 154.37706,50.3319056 C153.987804,50.3247913 153.641234,50.3857713 153.336334,50.5158621 C153.152377,50.6185118 152.972486,50.7648639 152.795644,50.9528857 C152.614737,51.1683485 152.496842,51.507804 152.442976,51.9712523 C152.418584,52.1186207 152.409437,52.2974955 152.416552,52.5078766 L152.423666,52.9377858 L152.423666,54.4673684 L152.945045,54.4673684 L152.945045,52.9896189 C152.945045,52.4580762 152.968421,52.0911797 153.015172,51.8899456 C152.997895,51.5769147 153.111724,51.3289292 153.356661,51.1470054 C153.601597,50.966098 153.881089,50.8746279 154.195136,50.8746279 C154.549837,50.8746279 154.819165,50.9305263 155.000073,51.042323 C155.18098,51.1541198 155.301924,51.3431579 155.36392,51.6104537 C155.402541,51.7669691 155.422868,52.0779673 155.422868,52.5444646 L155.422868,54.4673684 L155.937132,54.4673684 L155.937132,52.3930309 C155.937132,51.8421779 155.88225,51.4366606 155.77147,51.1785118 C155.663739,50.9213793 155.478766,50.7150635 155.220617,50.5615971 Z" id="Path"></path>
                        <path d="M146.937495,31.4108167 C146.216915,31.2349909 145.50853,31.0063158 144.647695,30.760363 C145.016624,30.4259891 145.258512,30.197314 145.509546,29.9798185 C147.076733,28.6199637 148.682541,27.2997459 150.195862,25.8819601 C150.697931,25.4113975 151.035354,24.7213067 151.32196,24.0759347 C151.683775,23.2618512 151.236588,22.2902359 150.277169,21.806461 C149.5698,21.4497278 148.792305,21.2322323 148.046316,20.9517241 C147.54323,20.9517241 147.040145,20.9517241 146.53706,20.9517241 C145.99637,21.0492922 145.453648,21.1377132 144.914991,21.2474773 C141.589546,21.9253721 138.928784,23.7283485 136.633902,26.1502722 C135.890962,26.934882 135.194773,27.7550635 134.778076,28.7652995 C134.695753,28.9634846 134.661198,29.3435935 134.76588,29.4208348 C134.961016,29.5651543 135.277096,29.5925953 135.538294,29.5803993 C135.687695,29.5743013 135.849292,29.4127042 135.970236,29.2876951 C136.87274,28.3394555 137.758984,27.3739383 138.668603,26.4338294 C138.918621,26.1756806 139.233684,25.9815608 139.591434,25.702069 C139.765227,26.6686025 139.406461,27.403412 139.144247,28.1189111 C137.894156,31.5256624 136.602396,34.9171688 135.288276,38.3005445 C135.072813,38.8564791 134.708966,39.3676951 134.355281,39.8565517 C133.608276,40.8871143 132.778947,41.8607623 132.069546,42.9147005 C131.629474,43.5682033 131.115209,44.2572777 131.224973,45.1221779 C131.404864,46.528784 132.393757,47.2270054 133.609292,47.676225 C134.02294,47.8286751 134.464029,47.9059165 134.891906,48.0177132 C135.322831,48.0177132 135.753757,48.0177132 136.185699,48.0177132 C136.322904,47.9821416 136.459093,47.9211615 136.597314,47.9150635 C138.070998,47.8520508 139.446098,47.4231579 140.767332,46.7970962 C142.638403,45.910853 144.351942,44.7837387 145.980109,43.5011252 C147.80951,42.06098 149.535245,40.5192015 150.778221,38.5393829 C151.91245,36.7333575 151.941924,35.276951 150.547514,33.6010163 C149.603339,32.4657713 148.375608,31.7624682 146.937495,31.4108167 Z M149.214083,37.5067877 C147.877604,39.8778947 146.067514,41.8566969 143.976915,43.5936116 C142.099746,45.1536842 139.943085,46.1913612 137.661416,46.972922 C136.455027,47.3865699 135.178512,47.3337205 133.956878,46.9922323 C132.799274,46.6690381 132.20167,45.5154991 132.631579,44.3904174 C133.141779,43.0549546 133.864392,41.8638113 135.297423,41.2631579 C135.616552,41.1290018 135.867586,40.7346642 136.057641,40.4063884 C136.645082,39.3900544 137.427659,38.7253721 138.663521,38.7182577 C139.147296,38.7152087 139.635136,38.6877677 140.11078,38.6105263 C140.295753,38.5800363 140.453285,38.3808348 140.624029,38.2578584 C140.445154,38.1714701 140.260181,37.9997096 140.088421,38.0119056 C139.322105,38.067804 138.558838,38.1775681 137.794555,38.2639564 C137.604501,38.2852995 137.41343,38.2964791 137.104465,38.3229038 C137.187804,37.9702359 137.218294,37.7222505 137.305699,37.4945917 C137.789474,36.2424682 138.16755,34.9303811 138.810889,33.7646461 C139.583303,32.3651543 139.831289,30.8050817 140.434991,29.3608711 C141.041742,27.9105626 141.500109,26.3982577 142.019456,24.9123775 C142.066207,24.7792377 142.130236,24.6257713 142.104828,24.4977132 C141.964574,23.7669691 142.432087,23.4752813 142.976842,23.2140835 C144.360073,22.5524501 145.785989,22.0249728 147.330817,21.9416334 C147.844065,21.9141924 148.372559,21.9650091 148.878693,22.0615608 C149.461053,22.1733575 149.738512,22.7374229 149.511869,23.3197822 C149.357387,23.7171688 149.150054,24.104392 148.908167,24.4560436 C147.742432,26.1584029 146.233176,27.5375681 144.696479,28.8882759 C144.575535,28.9949909 144.411906,29.0630853 144.315354,29.1860617 C143.654737,30.0296189 142.754265,30.4707078 141.750127,30.745118 C141.64951,30.772559 141.539746,30.8203267 141.467586,30.8924864 C140.94824,31.4128494 140.421779,31.9271143 139.938004,32.48 C139.808929,32.6273684 139.821125,32.8987296 139.768276,33.113176 C139.981706,33.1233394 140.220544,33.1995644 140.402468,33.1294374 C140.901488,32.9363339 141.421851,32.7432305 141.852777,32.4352813 C142.627223,31.8823956 143.44029,31.7106352 144.345844,31.9484574 C145.499383,32.2513249 146.707804,32.4383303 147.789183,32.9119419 C149.920436,33.8490018 150.206025,35.7444646 149.214083,37.5067877 Z" id="Shape"></path>
                        <path d="M151.021125,51.0199637 C150.60951,50.4975681 150.061706,50.2373866 149.37873,50.2373866 C148.709982,50.2373866 148.176407,50.4924864 147.77902,51.0016697 C147.465989,51.4010889 147.308457,51.8574229 147.308457,52.3696552 C147.308457,52.9113612 147.49343,53.3971688 147.863376,53.8280944 C148.233321,54.2580036 148.747586,54.4734664 149.404138,54.4734664 C149.700907,54.4734664 149.966171,54.4287477 150.20196,54.3393103 C150.436733,54.249873 150.649147,54.1187659 150.838185,53.9470054 C151.027223,53.775245 151.190853,53.5486025 151.331107,53.267078 L150.897132,53.0353539 C150.737568,53.3006171 150.5902,53.4906715 150.454011,53.6085662 C150.317822,53.726461 150.153176,53.82098 149.959056,53.8931397 C149.765953,53.9652995 149.565735,54.0018875 149.360436,54.0018875 C148.936624,54.0018875 148.579891,53.8514701 148.290236,53.5506352 C148.000581,53.2508167 147.85118,52.8656261 147.842033,52.3950635 L151.462214,52.3950635 C151.459165,51.8462432 151.312813,51.3878766 151.021125,51.0199637 Z M147.896915,51.9499093 C148.002613,51.5799637 148.158113,51.3014882 148.363412,51.1154991 C148.646969,50.8603993 148.987441,50.7333575 149.381779,50.7333575 C149.621633,50.7333575 149.851325,50.7841742 150.069837,50.8858076 C150.287332,50.987441 150.463158,51.1205808 150.595281,51.2862432 C150.727405,51.4519056 150.828022,51.6734664 150.897132,51.9499093 L147.896915,51.9499093 Z" id="Shape"></path>
                        <path d="M185.44029,36.1540472 C185.34069,36.1408348 185.247187,36.0839201 185.056116,36.0127768 C185.365082,35.6448639 185.635426,35.3206534 185.90882,34.9984755 C186.150708,34.7118693 186.435281,34.4506715 186.62127,34.1315426 C186.709691,33.9801089 186.68225,33.682323 186.588748,33.5186933 C186.349909,33.1030127 185.941343,32.8184392 185.465699,32.9464973 C184.661779,33.1629764 183.879201,33.4678766 183.101706,33.7717604 C182.987877,33.8164791 182.898439,34.0603993 182.901488,34.2098004 C182.903521,34.2839927 183.137278,34.3998548 183.275499,34.4130672 C183.57735,34.4445735 183.884283,34.4232305 184.343666,34.4232305 C184.103811,34.7240653 183.947296,34.9324138 183.778584,35.1295826 C183.299891,35.6875499 182.806969,36.2333212 182.337423,36.7994192 C182.07216,37.1175318 182.162613,37.593176 182.547804,37.6887114 C182.84559,37.7629038 183.273466,37.7557895 183.499093,37.5880944 C184.15971,37.1002541 184.87216,37.1185481 185.593757,37.2445735 C186.045009,37.3228312 186.362105,37.6663521 186.420036,38.1328494 C186.458657,38.4387659 186.402759,38.7639927 186.34686,39.0739746 C186.045009,40.7488929 184.798984,41.8780399 183.871071,43.165735 C182.854737,44.5764065 181.332269,45.4687477 179.868748,46.3793829 C179.711216,46.476951 179.452051,46.409873 179.162396,46.4230853 C179.519129,45.2797096 180.092341,44.4402178 180.72755,43.640363 C181.100544,43.171833 181.365808,42.6778947 181.358693,41.9745917 C181.063956,42.1656624 180.796661,42.2703448 180.628966,42.4614156 C179.826062,43.3771325 179.009946,44.285735 178.276152,45.2553176 C177.5698,46.1893285 177.862505,47.1274047 178.938802,47.4993829 C179.254882,47.6081307 179.659383,47.606098 179.98461,47.5156443 C181.637169,47.0542287 182.868966,45.9494737 183.974737,44.7136116 C184.721742,43.8781851 185.375245,42.9573866 186.039927,42.051833 C186.568421,41.3322686 187.157895,40.6289655 187.52784,39.830127 C188.318548,38.125735 187.284936,36.3898367 185.44029,36.1540472 Z" id="Path"></path>
                        <path d="M133.731252,53.9317604 C133.431434,53.7041016 133.290163,53.3788748 133.304392,52.9570962 L133.304392,51.2506715 L134.259746,51.2506715 L134.259746,50.8065336 L133.300327,50.8065336 L133.300327,48.8572051 L132.777931,48.8572051 L132.777931,53.0445009 C132.773866,53.3392377 132.840944,53.6085662 132.980181,53.8535027 C133.209873,54.2427586 133.52392,54.4490744 133.921307,54.4714338 C134.131688,54.4785481 134.371543,54.4307804 134.640871,54.3281307 C134.599201,54.2254809 134.545336,54.0821779 134.479274,53.8982214 C134.225191,54.0354265 133.975172,54.0466062 133.731252,53.9317604 Z" id="Path"></path>
                        <polygon id="Path" points="168.633176 53.2691107 166.828167 49.0553902 166.236661 49.0553902 168.574229 54.5080218 168.692123 54.5080218 171.066279 49.0553902 170.470708 49.0553902"></polygon>
                        <path d="M179.600436,50.9406897 C179.190853,50.4924864 178.676588,50.2678766 178.056624,50.2678766 C177.436661,50.2678766 176.921379,50.4935027 176.512813,50.944755 C176.142868,51.3563702 175.957895,51.8421779 175.957895,52.4001452 C175.957895,52.9611615 176.153031,53.4520508 176.544319,53.8728131 C176.935608,54.2935753 177.43971,54.5029401 178.056624,54.5029401 C178.81176,54.4399274 179.332123,54.1401089 179.61873,53.6055172 L179.61873,54.5212341 L180.166534,54.5212341 C180.171615,54.4988748 180.171615,53.7925227 180.166534,52.4001452 C180.166534,51.8370962 179.978512,51.3502722 179.600436,50.9406897 Z M179.54657,52.643049 C179.147151,53.714265 178.474338,54.1441742 177.528131,53.9337931 C177.151071,53.747804 176.882759,53.5191289 176.725227,53.2498004 C176.566679,52.9804719 176.488421,52.6989474 176.488421,52.4082759 C176.488421,51.9570236 176.642904,51.5728494 176.951869,51.2537205 C177.260835,50.935608 177.629764,50.7760436 178.058657,50.7760436 C178.48755,50.7760436 178.852414,50.935608 179.154265,51.2537205 C179.274192,51.3817786 179.368711,51.5159347 179.436806,51.6582214 C179.531325,51.9712523 179.567913,52.2995281 179.54657,52.643049 Z" id="Shape"></path>
                        <path d="M131.410962,50.6195281 C131.121307,50.8156806 130.891615,51.1246461 130.719855,51.5464247 C130.646679,51.6978584 130.589764,51.8960436 130.551143,52.137931 L130.551143,52.6237387 L130.551143,54.4622868 L131.080653,54.4622868 L131.080653,53.0983666 C131.080653,52.4702722 131.11216,52.043412 131.176189,51.8147368 C131.261561,51.5576044 131.41706,51.3197822 131.640653,51.1012704 C131.865263,50.8827586 132.090889,50.8156806 132.318548,50.89902 L132.58686,50.4650454 C132.425263,50.3715426 132.272813,50.3247913 132.131543,50.3247913 C131.940472,50.3247913 131.700617,50.4233757 131.410962,50.6195281 Z" id="Path"></path>
                        <path d="M117.443485,50.2516152 C117.115209,50.2516152 116.80726,50.3146279 116.519637,50.4416697 C116.232015,50.5676951 115.966751,50.7668966 115.723848,51.039274 C115.503303,51.4071869 115.37118,51.7679855 115.327477,52.1237024 L115.327477,55.9441016 L115.841742,55.9441016 L115.841742,53.692922 C116.060254,53.9602178 116.303158,54.1594192 116.573503,54.2905263 C116.842831,54.4216334 117.137568,54.4876951 117.459746,54.4876951 C118.027877,54.4876951 118.514701,54.280363 118.919201,53.8667151 C119.323702,53.4520508 119.525953,52.9499819 119.525953,52.3594918 C119.525953,51.7791652 119.32167,51.2821779 118.915136,50.8705626 C118.50657,50.4569147 118.016697,50.2516152 117.443485,50.2516152 Z M118.784029,53.1949183 C118.637677,53.4550998 118.442541,53.6583666 118.195572,53.8016697 C117.949619,53.9449728 117.686388,54.0161162 117.407913,54.0161162 C117.123339,54.0161162 116.854011,53.9449728 116.598911,53.8016697 C116.343811,53.6583666 116.147659,53.4632305 116.01147,53.2162613 C115.873249,52.9703085 115.806171,52.694882 115.806171,52.3909982 C115.806171,51.9224682 115.960653,51.532196 116.268603,51.2181488 C116.577568,50.9041016 116.954628,50.7475862 117.400799,50.7475862 C117.692486,50.7475862 117.959782,50.8187296 118.203702,50.9620327 C118.447623,51.1053358 118.641742,51.3045372 118.787078,51.559637 C118.931397,51.8147368 119.003557,52.0871143 119.003557,52.3757532 C119.001525,52.661343 118.929365,52.9337205 118.784029,53.1949183 Z" id="Shape"></path>
                        <path d="M122.607477,50.2516152 C122.279201,50.2516152 121.971252,50.3146279 121.68363,50.4416697 C121.396007,50.5676951 121.130744,50.7668966 120.88784,51.039274 C120.667296,51.4071869 120.535172,51.7679855 120.490454,52.1237024 L120.490454,55.9441016 L121.004719,55.9441016 L121.004719,53.692922 C121.22323,53.9602178 121.466134,54.1594192 121.736479,54.2905263 C122.006824,54.4216334 122.301561,54.4876951 122.622722,54.4876951 C123.190853,54.4876951 123.677677,54.280363 124.082178,53.8667151 C124.486679,53.4520508 124.688929,52.9499819 124.688929,52.3594918 C124.688929,51.7791652 124.485662,51.2821779 124.079129,50.8705626 C123.671579,50.4569147 123.181706,50.2516152 122.607477,50.2516152 Z M123.947005,53.1949183 C123.80167,53.4550998 123.605517,53.6583666 123.359564,53.8016697 C123.113612,53.9449728 122.850381,54.0161162 122.571906,54.0161162 C122.287332,54.0161162 122.018004,53.9449728 121.762904,53.8016697 C121.507804,53.6583666 121.311652,53.4632305 121.174446,53.2162613 C121.037241,52.9703085 120.969147,52.694882 120.969147,52.3909982 C120.969147,51.9224682 121.122613,51.532196 121.431579,51.2181488 C121.740544,50.9041016 122.117604,50.7475862 122.563775,50.7475862 C122.855463,50.7475862 123.122759,50.8187296 123.366679,50.9620327 C123.610599,51.1053358 123.804719,51.3045372 123.950054,51.559637 C124.094374,51.8147368 124.166534,52.0871143 124.166534,52.3757532 C124.166534,52.661343 124.093358,52.9337205 123.947005,53.1949183 Z" id="Shape"></path>
                        <path d="M125.31804,32.1994918 C124.455172,31.8874773 123.616697,32.0236661 122.867659,32.5480944 C122.390998,32.8814519 121.952958,33.2717241 121.488494,33.6437024 C121.377713,33.5461343 121.286243,33.4129946 121.16225,33.3652269 C120.927477,33.2747731 120.646969,33.1396007 120.438621,33.2015971 C120.273975,33.2513975 120.138802,33.5532486 120.078838,33.7687114 C119.952813,34.214882 119.901996,34.6813793 119.784102,35.1305989 C119.743448,35.283049 119.62657,35.4527768 119.495463,35.5371325 C118.833829,35.9629764 118.164065,36.3806897 117.47804,36.7648639 C117.022722,37.0199637 116.533866,37.2161162 116.060254,37.4386933 C115.995209,37.3726316 115.929147,37.3065699 115.864102,37.2405082 C116.023666,36.7963702 116.18323,36.3522323 116.340762,35.9080944 C116.608058,35.1529583 116.896697,34.4039201 117.12029,33.6355717 C117.167042,33.4749909 117.011543,33.10098 116.885517,33.0684574 C116.1751,32.8855172 115.463666,32.5613067 114.709546,32.9434483 C112.711434,33.9557169 111.080218,35.3115064 110.322033,37.516951 C110.114701,38.119637 110.403339,38.7375681 111.041597,38.7467151 C111.568058,38.7538294 112.162613,38.6511797 112.612849,38.3960799 C113.285662,38.0149546 113.858875,37.4580036 114.534737,36.92951 C114.516443,37.1185481 114.516443,37.2689655 114.486969,37.4132849 C114.360944,38.0119056 114.589619,38.3828675 115.172995,38.5271869 C115.831579,38.6898004 116.463739,38.621706 117.036951,38.2619238 C117.736189,37.8228675 118.413067,37.3462069 119.128566,36.8664973 C119.00559,37.2720145 118.663085,37.6704174 119.236298,37.9915789 C119.852196,38.3371325 120.154047,38.2731034 120.463013,37.5210163 C121.056552,36.0747731 122.051543,34.9415608 123.120726,33.8408711 C123.69902,33.2452995 124.30882,32.9007623 125.162541,33.0084936 C125.354628,33.0328857 125.575172,32.8418149 125.782505,32.7503448 C125.629038,32.562323 125.513176,32.2696189 125.31804,32.1994918 Z M115.479927,34.1518693 C114.439201,35.1112886 113.385263,36.0574955 112.329292,36.999637 C112.249002,37.0717967 112.119927,37.0880581 112.013212,37.1307441 C111.981706,37.0860254 111.9502,37.0402904 111.918693,36.9955717 C112.947223,35.6540109 113.762323,34.0817423 115.561234,33.5715426 C115.612051,33.609147 115.662868,33.6477677 115.714701,33.6853721 C115.638475,33.8439201 115.599855,34.0421053 115.479927,34.1518693 Z" id="Shape"></path>
                        <path d="M129.176044,50.9091833 C128.766461,50.46098 128.252196,50.2363702 127.632232,50.2363702 C127.012269,50.2363702 126.496987,50.4619964 126.088421,50.9132486 C125.718475,51.3248639 125.533503,51.8106715 125.533503,52.3686388 C125.533503,52.9306715 125.728639,53.4205445 126.119927,53.8413067 C126.511216,54.262069 127.015318,54.4714338 127.632232,54.4714338 C128.386352,54.4084211 128.907731,54.1086025 129.194338,53.5740109 L129.194338,54.4897278 L129.742142,54.4897278 C129.746207,54.4683848 129.746207,53.7610163 129.742142,52.3686388 C129.742142,51.8055898 129.55412,51.3187659 129.176044,50.9091833 Z M129.121162,52.6115426 C128.721742,53.6827586 128.048929,54.1126679 127.103739,53.9022868 C126.726679,53.7162976 126.458367,53.4876225 126.300835,53.218294 C126.143303,52.9489655 126.064029,52.6684574 126.064029,52.3767695 C126.064029,51.9255172 126.217495,51.5403267 126.526461,51.2222142 C126.835426,50.9041016 127.204356,50.7445372 127.633249,50.7445372 C128.062142,50.7445372 128.427005,50.9041016 128.72784,51.2222142 C128.847768,51.3502722 128.942287,51.4844283 129.011397,51.6267151 C129.106933,51.9407623 129.143521,52.2690381 129.121162,52.6115426 Z" id="Shape"></path>
                        <rect id="Rectangle" x="174.558403" y="48.9080218" width="1" height="5.59186933"></rect>
                    </g>
                </g>
            </g>
        </g>
    </g>
</svg>